<svg xmlns="http://www.w3.org/2000/svg" viewBox="0 0 205.62 150.46"><defs><style>.cls-1{fill:none;stroke-width:0.52px;}.cls-1,.cls-2{stroke:#fff;}.cls-1,.cls-2,.cls-3,.cls-4{stroke-miterlimit:10;}.cls-3{fill:#fe9c8f;}.cls-3,.cls-4{stroke:#fad9c1;}.cls-4{fill:#fff;}</style></defs><g id="Layer_2" data-name="Layer 2"><g id="Layer_1-2" data-name="Layer 1"><path class="cls-1" d="M138.66,82.25c-5.55-5.47-8.15-15.21-9.68-22a91.66,91.66,0,0,1-2.36-18.66c-.18-13.23,2.26-16.84,3.24-18.22,5.46-7.69,17.78-10.38,25.94-5.73,7.59,4.31,9.68,13,10.1,21.14a90.71,90.71,0,0,1-2.63,25.63c-1,4.25-2.46,8.33-3.67,12.51-.88,3-1.32,6.51-4,8.49a7.23,7.23,0,0,1-3.78,1.14C147,86.9,142.14,85.68,138.66,82.25Z"/><path class="cls-1" d="M150.58,87.46a17,17,0,0,1-12.52-4.59c-5.55-5.47-8.22-14.87-9.92-22.45a92.65,92.65,0,0,1-2.38-18.84c-.19-13.68,2.42-17.35,3.4-18.73,5.66-8,18.56-10.82,27.07-6,6.51,3.71,10,10.85,10.54,21.85a92.11,92.11,0,0,1-2.66,25.86c-.66,2.8-1.52,5.55-2.36,8.22-.44,1.42-.9,2.89-1.33,4.34L160,78.71c-.67,2.61-1.43,5.56-3.94,7.38a8.09,8.09,0,0,1-4.23,1.3C151.41,87.43,151,87.45,150.58,87.46ZM146.22,16.2c-6.07.12-12.27,2.89-15.66,7.65-.8,1.14-3.25,4.59-3.08,17.7A91.27,91.27,0,0,0,129.82,60c1.65,7.35,4.22,16.44,9.45,21.6h0c3,3,7.44,4.42,12.43,4a6.25,6.25,0,0,0,3.34-1c2-1.46,2.66-4,3.29-6.42.14-.55.28-1.09.44-1.62.43-1.47.89-3,1.34-4.38.82-2.63,1.68-5.36,2.32-8.09A90.22,90.22,0,0,0,165,38.81c-.54-10.36-3.7-17-9.67-20.44A17.67,17.67,0,0,0,146.22,16.2Z"/><path class="cls-1" d="M142.12,81.11c-3.44-5.39-5.11-14.94-6.1-21.6a140.12,140.12,0,0,1-1.58-18.26c-.21-12.93,1.26-16.45,1.85-17.78,3.29-7.48,10.83-10,15.87-5.42,4.68,4.28,6,12.81,6.35,20.75a126.61,126.61,0,0,1-1.21,23.67c-.74,5-1.24,9.94-2.15,14.87-.49,2.66-1,6.34-3.76,7.68C147.94,86.72,143.92,83.92,142.12,81.11Z"/><path class="cls-1" d="M149.29,86.4c-3.25.06-6.39-2.49-7.89-4.83C138,76.2,136.27,67,135.18,59.64a141.55,141.55,0,0,1-1.6-18.38c-.21-13.29,1.34-16.81,1.93-18.14,1.86-4.23,5.21-7.23,9-8a9.17,9.17,0,0,1,8.27,2.32c4,3.68,6.2,10.66,6.63,21.34a127.07,127.07,0,0,1-1.21,23.83c-.27,1.81-.51,3.65-.74,5.43-.41,3.11-.83,6.32-1.42,9.47l-.08.42c-.49,2.71-1.17,6.42-4.14,7.88A5.92,5.92,0,0,1,149.29,86.4Zm-3-69.8a8.07,8.07,0,0,0-1.45.17c-3.2.68-6.09,3.31-7.74,7-.49,1.12-2,4.51-1.78,17.42a139.91,139.91,0,0,0,1.58,18.16c1.07,7.22,2.72,16.16,6,21.25h0c1.5,2.35,5.13,5.11,8.17,3.62,2.21-1.09,2.77-4.18,3.22-6.66l.08-.42c.58-3.11,1-6.3,1.4-9.39.23-1.78.48-3.63.75-5.45a126.19,126.19,0,0,0,1.2-23.51c-.42-10.2-2.4-16.79-6.08-20.15A7.65,7.65,0,0,0,146.26,16.6Z"/><path class="cls-1" d="M146.18,15.6s-.64,63,2.95,69.84"/><path class="cls-1" d="M148.36,85.84c-3.64-6.94-3.07-67.67-3.05-70.25l1.73,0c-.22,21.72.09,64.18,2.85,69.43Z"/><path class="cls-2" d="M102.9,13,80.71,14.11a10.69,10.69,0,0,0-10.18,11.2L72.28,62A10.71,10.71,0,0,0,83.49,72.22l22.19-1.07A10.69,10.69,0,0,0,115.86,60l-1.75-36.72A10.71,10.71,0,0,0,102.9,13Zm-17,44.31a4.76,4.76,0,0,1-4.52,5h-.19a4.76,4.76,0,0,1-5-4.52l-1.4-29.25a4.76,4.76,0,0,1,4.52-5h.19a4.76,4.76,0,0,1,5,4.52Zm12.38-.6a4.78,4.78,0,0,1-4.52,5h-.19a4.78,4.78,0,0,1-5-4.52L87.23,28a4.76,4.76,0,0,1,4.52-5h.19a4.77,4.77,0,0,1,5,4.52Zm12.84-.61a4.76,4.76,0,0,1-4.52,5h-.19a4.77,4.77,0,0,1-5-4.52l-1.4-29.24a4.78,4.78,0,0,1,4.52-5h.19a4.78,4.78,0,0,1,5,4.52Z"/><polygon class="cls-3" points="170.26 135.74 170.26 92.29 39.93 52.19 39.93 95.63 170.26 135.74"/><polygon class="cls-3" points="204.25 149.6 177.04 142.78 177.51 110.12 204.5 113.99 187.93 130.09 204.25 149.6"/><polygon class="cls-3" points="5.15 88.95 33.33 82 32.97 48.2 5.03 52.1 22.11 68.82 5.15 88.95"/><path class="cls-4" d="M50.44,80.78c0,.09,0,.21,0,.36a3.06,3.06,0,0,0,.12.51,4.11,4.11,0,0,0,.26.59,2.55,2.55,0,0,0,.46.62,3.69,3.69,0,0,0,.63.58,5.55,5.55,0,0,0,.63.38c.21.1.41.18.6.25l.54.16a5.18,5.18,0,0,0,1.5.25,2.87,2.87,0,0,0,1-.15,1.69,1.69,0,0,0,.61-.39,1.13,1.13,0,0,0,.28-.45.82.82,0,0,0-.11-.71,2.33,2.33,0,0,0-.65-.64,6.87,6.87,0,0,0-1-.6l-1.2-.61c-.41-.2-.8-.42-1.18-.65a5.55,5.55,0,0,1-1-.73,2.5,2.5,0,0,1-.59-.86,1.51,1.51,0,0,1,0-1,1.28,1.28,0,0,1,.54-.71,2.79,2.79,0,0,1,1-.44,5.64,5.64,0,0,1,1.41-.1,7.34,7.34,0,0,1,1.66.29,6.39,6.39,0,0,1,.95.35c.26.12.5.23.69.34s.38.2.52.29a1.83,1.83,0,0,0,.43.2.69.69,0,0,0,.32,0,.63.63,0,0,0,.21-.13l.26.08-.57,2-.22-.06q-.09-.43-.21-.84a3.35,3.35,0,0,0-.39-.81,2.88,2.88,0,0,0-.75-.72,4.54,4.54,0,0,0-1.3-.57,5.33,5.33,0,0,0-1.21-.23,3.49,3.49,0,0,0-.94.05,1.7,1.7,0,0,0-.65.26.7.7,0,0,0-.32.41.73.73,0,0,0,.13.69,3,3,0,0,0,.68.64,8,8,0,0,0,1.06.63l1.24.65c.42.22.83.45,1.23.68a6,6,0,0,1,1,.74,2.85,2.85,0,0,1,.63.84,1.26,1.26,0,0,1,.05,1,1.6,1.6,0,0,1-.61.86,3,3,0,0,1-1.17.52,5.86,5.86,0,0,1-1.61.12,8.05,8.05,0,0,1-1.94-.35,8.49,8.49,0,0,1-1-.36c-.33-.14-.63-.27-.91-.41l-.75-.35a4.09,4.09,0,0,0-.49-.22,1,1,0,0,0-.34,0,.5.5,0,0,0-.24.14L49.52,83l.67-2.29Z"/><path class="cls-4" d="M66.79,83.3a5.57,5.57,0,0,1,1.14.89,2.79,2.79,0,0,1,.63,1,1.54,1.54,0,0,1,0,1A1.64,1.64,0,0,1,68,87a3,3,0,0,1-1.08.5,5.4,5.4,0,0,1-1.44.13,6.82,6.82,0,0,1-1.66-.29,7,7,0,0,1-1.55-.66,5,5,0,0,1-1.14-.88,2.77,2.77,0,0,1-.64-1,1.67,1.67,0,0,1,0-1,1.52,1.52,0,0,1,.57-.81,2.7,2.7,0,0,1,1.08-.5,5.42,5.42,0,0,1,1.44-.14,6.86,6.86,0,0,1,1.67.28A6.6,6.6,0,0,1,66.79,83.3Zm-1.83,4a1.25,1.25,0,0,0,.69-.34,1.89,1.89,0,0,0,.43-.65c.1-.26.2-.53.28-.81a8.15,8.15,0,0,0,.2-.82,2,2,0,0,0,0-.77,1.36,1.36,0,0,0-.4-.66,2.26,2.26,0,0,0-1-.49,2.36,2.36,0,0,0-1.07-.11,1.41,1.41,0,0,0-.69.34,2,2,0,0,0-.42.65,6.86,6.86,0,0,0-.28.8,8.34,8.34,0,0,0-.2.83,1.85,1.85,0,0,0,0,.78,1.34,1.34,0,0,0,.39.66,2.39,2.39,0,0,0,1,.49A2.33,2.33,0,0,0,65,87.32Z"/><path class="cls-4" d="M70.26,85.8a2.75,2.75,0,0,1,1-.53,4.9,4.9,0,0,1,1.45-.19,6.37,6.37,0,0,1,1.83.28,9.46,9.46,0,0,1,1.12.42,4.13,4.13,0,0,1,.82.5,1.79,1.79,0,0,1,.48.53.67.67,0,0,1,.07.53.52.52,0,0,1-.42.4,1.82,1.82,0,0,1-.85-.1,2.79,2.79,0,0,1-.68-.29.37.37,0,0,1-.21-.46.29.29,0,0,1,.08-.14l.15-.19.14-.19a.77.77,0,0,0,.09-.13c0-.14,0-.28-.2-.42a2.22,2.22,0,0,0-.69-.33,2.3,2.3,0,0,0-1-.1,1.42,1.42,0,0,0-.68.31,2,2,0,0,0-.45.61,7.62,7.62,0,0,0-.3.81,5.71,5.71,0,0,0-.18.82,1.7,1.7,0,0,0,0,.81,1.73,1.73,0,0,0,.47.73,2.88,2.88,0,0,0,1.07.53,3.8,3.8,0,0,0,1.2.19,2.87,2.87,0,0,0,.85-.13,1.7,1.7,0,0,0,.54-.28,1.66,1.66,0,0,0,.26-.24l.22.12a2.19,2.19,0,0,1-.38.33,1.87,1.87,0,0,1-.62.26,3.44,3.44,0,0,1-1,.08,5.42,5.42,0,0,1-1.36-.26c-.15,0-.35-.11-.6-.2a6.23,6.23,0,0,1-.82-.36,6.92,6.92,0,0,1-.85-.52,3.38,3.38,0,0,1-.74-.67,2.46,2.46,0,0,1-.44-.83,1.65,1.65,0,0,1,0-1A1.55,1.55,0,0,1,70.26,85.8Z"/><path class="cls-4" d="M81.58,87.58l-1.26,4.3,1.12.32,0,.15L77.13,91.1l0-.15,1.12.33,1.22-4.15-1.12-.33,0-.14Zm-1-3.28a1.51,1.51,0,0,1,.89,0,1.54,1.54,0,0,1,.77.46.58.58,0,0,1-.3,1,1.8,1.8,0,0,1-1.67-.49.67.67,0,0,1-.2-.62A.65.65,0,0,1,80.54,84.3Z"/><path class="cls-4" d="M89.52,94.83c-.3-.06-.58-.12-.84-.2a3.56,3.56,0,0,1-1.2-.55.92.92,0,0,1-.36-.67h0a1.36,1.36,0,0,1-.9.34,4.58,4.58,0,0,1-1.39-.25,7.06,7.06,0,0,1-.8-.29,3.51,3.51,0,0,1-.72-.39,1.53,1.53,0,0,1-.47-.48.67.67,0,0,1-.07-.55.74.74,0,0,1,.34-.45,1.46,1.46,0,0,1,.6-.19,3.12,3.12,0,0,1,.76,0l.86.07,1.17.11a3.43,3.43,0,0,0,.71,0,.81.81,0,0,0,.39-.13.51.51,0,0,0,.19-.29l.18-.63a.79.79,0,0,0-.06-.58,1.19,1.19,0,0,0-.75-.46,1.8,1.8,0,0,0-.7-.09.41.41,0,0,0-.4.32.75.75,0,0,0,0,.11c0,.06,0,.12,0,.18a1.37,1.37,0,0,0,0,.19A1,1,0,0,1,86,90a.27.27,0,0,1-.19.2.63.63,0,0,1-.31.05,1.48,1.48,0,0,1-.35-.05l-.29-.08-.34-.11a1,1,0,0,1-.28-.17.63.63,0,0,1-.18-.22.46.46,0,0,1,0-.31.64.64,0,0,1,.38-.41,2,2,0,0,1,.75-.16,4.74,4.74,0,0,1,1,0,7.12,7.12,0,0,1,1.07.24,10.14,10.14,0,0,1,1.18.41,3.8,3.8,0,0,1,.9.51,1.61,1.61,0,0,1,.51.64,1.07,1.07,0,0,1,0,.79L89.05,94a.67.67,0,0,0,0,.37c0,.12.17.21.42.28a1.09,1.09,0,0,0,.37.06,1.32,1.32,0,0,0,.32-.07l.12.14A1.15,1.15,0,0,1,89.52,94.83Zm-1.94-3.46a.35.35,0,0,1-.16.09,1.64,1.64,0,0,1-.37,0h-.68a2.52,2.52,0,0,0-.63.05,1.37,1.37,0,0,0-.51.21.92.92,0,0,0-.31.46q0,.14-.06.3a.89.89,0,0,0,0,.36.94.94,0,0,0,.25.36,1.37,1.37,0,0,0,.57.28,1.31,1.31,0,0,0,.44.07,1.22,1.22,0,0,0,.43-.08,1.07,1.07,0,0,0,.37-.27,1.21,1.21,0,0,0,.25-.48l.4-1.37Z"/><path class="cls-4" d="M96.35,88.63,94.21,96l1.12.32,0,.15L91,95.17l0-.15,1.12.33,2.1-7.17-1.12-.33,0-.14Z"/><path class="cls-4" d="M108.63,92.33l0,.15L107.06,92l-1,3.31.13,0,6.07-1.82-1.68-.49,0-.14,3.33,1,0,.15-1.33-.39L108.18,95l4.4,6.34,1,.3,0,.15L108,100.15l0-.15,1.5.44-3.37-4.92-.13,0L105,99.11l1.53.45,0,.14L101,98.09l0-.14,1.53.45,2.07-7.08-1.53-.45,0-.14Z"/><path class="cls-4" d="M118.3,98.35,117,102.64l1.12.33,0,.14-4.27-1.25.05-.14,1.11.33,1.22-4.15-1.12-.33,0-.15Zm-1-3.29a1.79,1.79,0,0,1,1.66.49.65.65,0,0,1,.2.62.66.66,0,0,1-.5.42,1.73,1.73,0,0,1-.9,0,1.61,1.61,0,0,1-.77-.46.59.59,0,0,1,.31-1Z"/><path class="cls-4" d="M122.35,98.2a3,3,0,0,0,.5.19,4,4,0,0,0,.52.11l.53,0-.39,1.34,1.95.57,0,.14-2-.57-1,3.47a1.07,1.07,0,0,0-.06.3.71.71,0,0,0,.06.28.59.59,0,0,0,.21.24,1.29,1.29,0,0,0,.44.2,1.74,1.74,0,0,0,.57.08,1.56,1.56,0,0,0,.45-.1,1.26,1.26,0,0,0,.36-.21,1.42,1.42,0,0,0,.27-.28l.24.11a1.16,1.16,0,0,1-.5.46,1.84,1.84,0,0,1-.65.17,3.33,3.33,0,0,1-.7,0c-.24,0-.47-.1-.68-.16a6.18,6.18,0,0,1-1.3-.52,2,2,0,0,1-.61-.52.69.69,0,0,1-.14-.48c0-.15,0-.28.08-.41l.94-3.18-1.12-.33.05-.15,1.11.33.39-1.33Z"/><path class="cls-4" d="M126.4,102.26a2.75,2.75,0,0,1,1-.53,5.24,5.24,0,0,1,1.45-.2,6.3,6.3,0,0,1,1.82.29,6.69,6.69,0,0,1,1.13.42,4.67,4.67,0,0,1,.82.49,1.81,1.81,0,0,1,.48.54.72.72,0,0,1,.07.53.52.52,0,0,1-.43.4,2.1,2.1,0,0,1-.84-.1,2.79,2.79,0,0,1-.68-.29.4.4,0,0,1-.22-.47.77.77,0,0,1,.09-.13l.15-.19.14-.19a.51.51,0,0,0,.09-.14c0-.13,0-.27-.2-.41a2.22,2.22,0,0,0-.69-.33,2.16,2.16,0,0,0-1-.1,1.42,1.42,0,0,0-.68.31,1.9,1.9,0,0,0-.45.61,7.62,7.62,0,0,0-.3.81,7,7,0,0,0-.19.82,1.84,1.84,0,0,0,.06.81,1.61,1.61,0,0,0,.47.72,2.74,2.74,0,0,0,1.07.54,3.8,3.8,0,0,0,1.2.19,2.87,2.87,0,0,0,.85-.13,1.93,1.93,0,0,0,.54-.28,1.25,1.25,0,0,0,.26-.25l.22.12a2.2,2.2,0,0,1-.38.34,1.84,1.84,0,0,1-.63.26,3.78,3.78,0,0,1-.95.08,5.81,5.81,0,0,1-1.36-.26l-.6-.2a7.92,7.92,0,0,1-.82-.36,6.92,6.92,0,0,1-.85-.52,3.65,3.65,0,0,1-.74-.67,2.3,2.3,0,0,1-.44-.83,1.73,1.73,0,0,1,0-1A1.55,1.55,0,0,1,126.4,102.26Z"/><path class="cls-4" d="M134.43,107.74l2.1-7.17-1.1-.32,0-.15,3.13.92-1.17,4h0l.31-.21a1.9,1.9,0,0,1,.58-.22,3.84,3.84,0,0,1,.9-.08,5.52,5.52,0,0,1,1.28.23,3.25,3.25,0,0,1,1.59.9,1.26,1.26,0,0,1,.29,1.25l-.85,2.92,1.11.32,0,.15-4.18-1.23,0-.14,1,.3,1-3.27a.74.74,0,0,0-.09-.72,1.34,1.34,0,0,0-.71-.42,2.45,2.45,0,0,0-.8-.11,2.06,2.06,0,0,0-.75.17,1.88,1.88,0,0,0-1,1.24l-.65,2.21,1,.31,0,.15-4.18-1.23,0-.14Z"/><path class="cls-4" d="M146.62,109.15a6.6,6.6,0,0,0-.17.77,1.63,1.63,0,0,0,.06.76,1.73,1.73,0,0,0,.49.69,3,3,0,0,0,1.11.54,3.75,3.75,0,0,0,1.17.17,2.9,2.9,0,0,0,.85-.14,1.66,1.66,0,0,0,.55-.27.74.74,0,0,0,.24-.24l.22.12a1.53,1.53,0,0,1-.4.33,2.18,2.18,0,0,1-.67.26,3.58,3.58,0,0,1-1,.06,5.34,5.34,0,0,1-1.29-.23,7.69,7.69,0,0,1-1.57-.64,4.65,4.65,0,0,1-1.17-.85,2.72,2.72,0,0,1-.66-1,1.76,1.76,0,0,1,0-1.09,1.59,1.59,0,0,1,.55-.78,3.21,3.21,0,0,1,1.05-.51,5,5,0,0,1,1.39-.16,5.62,5.62,0,0,1,1.58.24,6.09,6.09,0,0,1,1.13.46,4.21,4.21,0,0,1,1,.66,2.35,2.35,0,0,1,.58.84,1.46,1.46,0,0,1,0,1l-4.92-1.44Zm3-.52a1.42,1.42,0,0,0,.07-.28.94.94,0,0,0,0-.37.74.74,0,0,0-.24-.37,1.54,1.54,0,0,0-.59-.3,2,2,0,0,0-.93-.09,1.23,1.23,0,0,0-.58.29,1.46,1.46,0,0,0-.35.49c-.08.19-.16.37-.22.54l2.66.78Z"/><path class="cls-4" d="M153.33,113.28l1.22-4.15-1.1-.32,0-.15,3.1.91-.31,1h0a2.39,2.39,0,0,1,.31-.22,2.13,2.13,0,0,1,.6-.24,3.45,3.45,0,0,1,.91-.08,5,5,0,0,1,1.29.22,3.33,3.33,0,0,1,1.59.9,1.25,1.25,0,0,1,.29,1.25l-.85,2.92,1.11.33,0,.14-4.18-1.22,0-.15,1,.3.95-3.27a.74.74,0,0,0-.09-.72,1.34,1.34,0,0,0-.71-.42,2.45,2.45,0,0,0-.8-.11,2.06,2.06,0,0,0-.75.17,1.88,1.88,0,0,0-1,1.24l-.65,2.21,1,.31,0,.15-4.18-1.23,0-.14Z"/><path class="cls-4" d="M16.5,31.09s6,12,5,16,16-10,31,0c0,0-3-14,2-15s23-6,8-17-17-22-33-8c0,0-21-13-21,7,0,0-23,10,9,21"/></g></g></svg>