<svg xmlns="http://www.w3.org/2000/svg" viewBox="0 0 164.92 141.23"><defs><style>.cls-1{fill:#fff;stroke:#000;stroke-miterlimit:10;}</style></defs><g id="Layer_2" data-name="Layer 2"><g id="Layer_1-2" data-name="Layer 1"><path class="cls-1" d="M57.19,137.1V3.62h9.53V77.23L149.11,3.62h12.14l-60.72,55.6,63.34,77.88H152.2L93.39,65.3l-26.67,23V137.1Z"/><path class="cls-1" d="M15,127.67Q.49,114.85.5,96.39H10q0,14.85,11.67,25.43t28.1,10.58q17.87,0,30.72-9,12.61-9,12.62-21.84,0-11-11.19-18.45-11-7.44-29.53-9Q29.79,72.3,16.22,62T2.64,36.51q0-14.85,13.81-25.43T49.79.5q21,0,36,11,14.76,11,14.76,26.56H91q0-11.93-12.15-20.48Q66.93,9.06,49.79,9.05q-15.48,0-26.67,8.11-11,7.88-11,19.35,0,11.27,11.43,18.91,11.66,7.65,30.72,9.23,21.9,1.8,35.24,11.93,13.1,10.13,13.09,25,0,16.22-15.47,27.69T49.79,140.73Q29.32,140.73,15,127.67Z"/></g></g></svg>