<svg xmlns="http://www.w3.org/2000/svg" viewBox="0 0 117.42 106.25"><defs><style>.cls-1{fill:#fff;stroke:#000;stroke-miterlimit:10;}</style></defs><g id="Layer_2" data-name="Layer 2"><g id="Layer_1-2" data-name="Layer 1"><path class="cls-1" d="M10.81,96A30.88,30.88,0,0,1,.5,72.47H7.26a25.51,25.51,0,0,0,8.28,19.09A27.71,27.71,0,0,0,35.47,99.5q12.68,0,21.8-6.76Q66.21,86,66.22,76.36q0-8.28-7.94-13.86-7.77-5.56-21-6.76-16-1.35-25.68-9.12T2,27.53q0-11.14,9.8-19.09T35.47.5Q50.34.5,61,8.78q10.47,8.28,10.48,19.93H64.7q0-8.94-8.62-15.37Q47.64,6.92,35.47,6.92A30.23,30.23,0,0,0,16.55,13Q8.78,18.92,8.78,27.53q0,8.44,8.11,14.19,8.26,5.74,21.79,6.93,15.54,1.35,25,9Q73,65.21,73,76.36q0,12.15-11,20.78t-26.53,8.61A34.11,34.11,0,0,1,10.81,96Z"/><path class="cls-1" d="M40.72,103V2.84h6.76V58.09L105.93,2.84h8.62L71.47,44.57,116.41,103h-8.28L66.4,49.13,47.48,66.37V103Z"/></g></g></svg>