<svg xmlns="http://www.w3.org/2000/svg" viewBox="0 0 205.62 150.46"><defs><style>.cls-1{fill:none;stroke-width:0.52px;}.cls-1,.cls-2{stroke:#fff;}.cls-1,.cls-2,.cls-3,.cls-4{stroke-miterlimit:10;}.cls-3{fill:#fe9c8f;}.cls-3,.cls-4{stroke:#fad9c1;}.cls-4{fill:#fff;}</style></defs><g id="Layer_2" data-name="Layer 2"><g id="Layer_1-2" data-name="Layer 1"><path class="cls-1" d="M138.66,82.25c-5.55-5.47-8.15-15.21-9.68-22a91.66,91.66,0,0,1-2.36-18.66c-.18-13.23,2.26-16.84,3.24-18.22,5.46-7.69,17.78-10.38,25.94-5.73,7.59,4.31,9.68,13,10.1,21.14a90.71,90.71,0,0,1-2.63,25.63c-1,4.25-2.46,8.33-3.67,12.51-.88,3-1.32,6.51-4,8.49a7.23,7.23,0,0,1-3.78,1.14C147,86.9,142.14,85.68,138.66,82.25Z"/><path class="cls-1" d="M150.58,87.46a17,17,0,0,1-12.52-4.59c-5.55-5.47-8.22-14.87-9.92-22.45a92.65,92.65,0,0,1-2.38-18.84c-.19-13.68,2.42-17.35,3.4-18.73,5.66-8,18.56-10.82,27.07-6,6.51,3.71,10,10.85,10.54,21.85a92.11,92.11,0,0,1-2.66,25.86c-.66,2.8-1.52,5.55-2.36,8.22-.44,1.42-.9,2.89-1.33,4.34L160,78.71c-.67,2.61-1.43,5.56-3.94,7.38a8.09,8.09,0,0,1-4.23,1.3C151.41,87.43,151,87.45,150.58,87.46ZM146.22,16.2c-6.07.12-12.27,2.89-15.66,7.65-.8,1.14-3.25,4.59-3.08,17.7A91.27,91.27,0,0,0,129.82,60c1.65,7.35,4.22,16.44,9.45,21.6h0c3,3,7.44,4.42,12.43,4a6.25,6.25,0,0,0,3.34-1c2-1.46,2.66-4,3.29-6.42.14-.55.28-1.09.44-1.62.43-1.47.89-3,1.34-4.38.82-2.63,1.68-5.36,2.32-8.09A90.22,90.22,0,0,0,165,38.81c-.54-10.36-3.7-17-9.67-20.44A17.67,17.67,0,0,0,146.22,16.2Z"/><path class="cls-1" d="M142.12,81.11c-3.44-5.39-5.11-14.94-6.1-21.6a140.12,140.12,0,0,1-1.58-18.26c-.21-12.93,1.26-16.45,1.85-17.78,3.29-7.48,10.83-10,15.87-5.42,4.68,4.28,6,12.81,6.35,20.75a126.61,126.61,0,0,1-1.21,23.67c-.74,5-1.24,9.94-2.15,14.87-.49,2.66-1,6.34-3.76,7.68C147.94,86.72,143.92,83.92,142.12,81.11Z"/><path class="cls-1" d="M149.29,86.4c-3.25.06-6.39-2.49-7.89-4.83C138,76.2,136.27,67,135.18,59.64a141.55,141.55,0,0,1-1.6-18.38c-.21-13.29,1.34-16.81,1.93-18.14,1.86-4.23,5.21-7.23,9-8a9.17,9.17,0,0,1,8.27,2.32c4,3.68,6.2,10.66,6.63,21.34a127.07,127.07,0,0,1-1.21,23.83c-.27,1.81-.51,3.65-.74,5.43-.41,3.11-.83,6.32-1.42,9.47l-.08.42c-.49,2.71-1.17,6.42-4.14,7.88A5.92,5.92,0,0,1,149.29,86.4Zm-3-69.8a8.07,8.07,0,0,0-1.45.17c-3.2.68-6.09,3.31-7.74,7-.49,1.12-2,4.51-1.78,17.42a139.91,139.91,0,0,0,1.58,18.16c1.07,7.22,2.72,16.16,6,21.25h0c1.5,2.35,5.13,5.11,8.17,3.62,2.21-1.09,2.77-4.18,3.22-6.66l.08-.42c.58-3.11,1-6.3,1.4-9.39.23-1.78.48-3.63.75-5.45a126.19,126.19,0,0,0,1.2-23.51c-.42-10.2-2.4-16.79-6.08-20.15A7.65,7.65,0,0,0,146.26,16.6Z"/><path class="cls-1" d="M146.18,15.6s-.64,63,2.95,69.84"/><path class="cls-1" d="M148.36,85.84c-3.64-6.94-3.07-67.67-3.05-70.25l1.73,0c-.22,21.72.09,64.18,2.85,69.43Z"/><path class="cls-2" d="M102.9,13,80.71,14.11a10.69,10.69,0,0,0-10.18,11.2L72.28,62A10.71,10.71,0,0,0,83.49,72.22l22.19-1.07A10.69,10.69,0,0,0,115.86,60l-1.75-36.72A10.71,10.71,0,0,0,102.9,13Zm-17,44.31a4.76,4.76,0,0,1-4.52,5h-.19a4.76,4.76,0,0,1-5-4.52l-1.4-29.25a4.76,4.76,0,0,1,4.52-5h.19a4.76,4.76,0,0,1,5,4.52Zm12.38-.6a4.78,4.78,0,0,1-4.52,5h-.19a4.78,4.78,0,0,1-5-4.52L87.23,28a4.76,4.76,0,0,1,4.52-5h.19a4.77,4.77,0,0,1,5,4.52Zm12.84-.61a4.76,4.76,0,0,1-4.52,5h-.19a4.77,4.77,0,0,1-5-4.52l-1.4-29.24a4.78,4.78,0,0,1,4.52-5h.19a4.78,4.78,0,0,1,5,4.52Z"/><polygon class="cls-3" points="170.26 135.74 170.26 92.29 39.93 52.19 39.93 95.63 170.26 135.74"/><polygon class="cls-3" points="204.25 149.6 177.04 142.78 177.51 110.12 204.5 113.99 187.93 130.09 204.25 149.6"/><polygon class="cls-3" points="5.15 88.95 33.33 82 32.97 48.2 5.03 52.1 22.11 68.82 5.15 88.95"/><path class="cls-4" d="M47.06,79.2c0,.11,0,.26,0,.45a4,4,0,0,0,.09.63,4.76,4.76,0,0,0,.25.72,3.21,3.21,0,0,0,.46.76,3.61,3.61,0,0,0,.65.69,4.66,4.66,0,0,0,.65.44,5.42,5.42,0,0,0,.63.27l.57.17a4.8,4.8,0,0,0,1.6.23,2.83,2.83,0,0,0,1.1-.25,2,2,0,0,0,.68-.52,1.66,1.66,0,0,0,.32-.57,1.14,1.14,0,0,0-.08-.89,2.42,2.42,0,0,0-.66-.76,8.47,8.47,0,0,0-1.06-.7L51,79.19q-.65-.36-1.23-.75a4.8,4.8,0,0,1-1-.87,2.68,2.68,0,0,1-.59-1,2.22,2.22,0,0,1,0-1.27,1.85,1.85,0,0,1,.61-.92,3.21,3.21,0,0,1,1.13-.6,5.16,5.16,0,0,1,1.53-.2,6.59,6.59,0,0,1,2.77.64c.28.14.52.27.73.4l.54.33a1.64,1.64,0,0,0,.44.22.56.56,0,0,0,.35,0,.8.8,0,0,0,.23-.16l.28.08-.73,2.49-.23-.07c0-.34-.11-.69-.18-1a3.62,3.62,0,0,0-.38-1,2.89,2.89,0,0,0-.76-.86A4.31,4.31,0,0,0,53.19,74a5.45,5.45,0,0,0-1.29-.22,3.21,3.21,0,0,0-1,.12,1.87,1.87,0,0,0-.72.36,1.1,1.1,0,0,0-.36.53,1,1,0,0,0,.1.86,2.88,2.88,0,0,0,.7.76,8.39,8.39,0,0,0,1.1.73l1.3.74c.44.25.87.51,1.28.78a5.87,5.87,0,0,1,1.06.87,2.94,2.94,0,0,1,.63,1,1.89,1.89,0,0,1,0,1.2,2.29,2.29,0,0,1-.71,1.11,3.24,3.24,0,0,1-1.29.72,5.79,5.79,0,0,1-1.73.24,7.12,7.12,0,0,1-2.06-.33,7.43,7.43,0,0,1-1.06-.39c-.35-.16-.67-.31-1-.46s-.56-.28-.78-.41a2.76,2.76,0,0,0-.52-.23.77.77,0,0,0-.37,0,.52.52,0,0,0-.26.19L46,82l.85-2.91Z"/><path class="cls-4" d="M64.5,81.43a5,5,0,0,1,1.17,1,3.17,3.17,0,0,1,.63,1.22,2.27,2.27,0,0,1,0,1.24A2.32,2.32,0,0,1,65.63,86a3.33,3.33,0,0,1-1.19.69,5.43,5.43,0,0,1-1.56.24,6.71,6.71,0,0,1-1.77-.26,6.23,6.23,0,0,1-1.63-.74,5,5,0,0,1-1.18-1,3.56,3.56,0,0,1-.63-1.22,2.34,2.34,0,0,1,.68-2.31,3.37,3.37,0,0,1,1.19-.68,5,5,0,0,1,1.55-.25,6,6,0,0,1,1.78.26A6.23,6.23,0,0,1,64.5,81.43Zm-2.19,5.14a1.54,1.54,0,0,0,.76-.47,2.55,2.55,0,0,0,.49-.84c.13-.33.25-.67.35-1s.19-.7.26-1a2.67,2.67,0,0,0,0-1,1.53,1.53,0,0,0-.38-.8,2.14,2.14,0,0,0-1-.56,2.09,2.09,0,0,0-1.14-.07,1.54,1.54,0,0,0-.76.47,2.7,2.7,0,0,0-.5.83c-.12.33-.24.66-.34,1s-.19.7-.26,1a2.94,2.94,0,0,0,0,1,1.61,1.61,0,0,0,.39.81,2.16,2.16,0,0,0,1,.56A2.22,2.22,0,0,0,62.31,86.57Z"/><path class="cls-4" d="M68.09,84.37a3.23,3.23,0,0,1,1.12-.72,5.19,5.19,0,0,1,1.57-.33,5.75,5.75,0,0,1,1.94.26,6.56,6.56,0,0,1,1.19.46,4.58,4.58,0,0,1,.86.57,2.1,2.1,0,0,1,.48.64.94.94,0,0,1,0,.66.66.66,0,0,1-.47.52,1.71,1.71,0,0,1-.9-.07A2.64,2.64,0,0,1,73.2,86a.46.46,0,0,1-.21-.56.88.88,0,0,1,.1-.18,2.71,2.71,0,0,0,.17-.25c.06-.08.11-.17.17-.24a.88.88,0,0,0,.1-.18.47.47,0,0,0-.19-.5,1.88,1.88,0,0,0-.72-.37,2,2,0,0,0-1.07-.08,1.66,1.66,0,0,0-.75.43,2.52,2.52,0,0,0-.52.79,9.38,9.38,0,0,0-.37,1,9.22,9.22,0,0,0-.24,1,2.5,2.5,0,0,0,0,1,1.88,1.88,0,0,0,.48.87,2.42,2.42,0,0,0,1.12.62,3.53,3.53,0,0,0,1.27.16,2.84,2.84,0,0,0,.92-.21,2.14,2.14,0,0,0,.6-.38,2.46,2.46,0,0,0,.3-.32l.23.14a2.92,2.92,0,0,1-.43.44,2,2,0,0,1-.69.36,3.11,3.11,0,0,1-1,.15A4.74,4.74,0,0,1,71,89.56c-.15,0-.37-.12-.64-.22a5.93,5.93,0,0,1-.85-.41,8.06,8.06,0,0,1-.89-.59,3.79,3.79,0,0,1-.75-.8,2.58,2.58,0,0,1-.43-1,2.46,2.46,0,0,1,.08-1.22A2.13,2.13,0,0,1,68.09,84.37Z"/><path class="cls-4" d="M80.16,86,78.57,91.4l1.18.34,0,.19L75.18,90.6l.06-.18,1.18.35L78,85.51l-1.18-.34,0-.19Zm-.94-4a1.6,1.6,0,0,1,1.77.52.79.79,0,0,1-.39,1.31,1.57,1.57,0,0,1-1,0,1.47,1.47,0,0,1-.8-.54.8.8,0,0,1,.38-1.31Z"/><path class="cls-4" d="M88.29,94.58a9,9,0,0,1-.89-.21,2.94,2.94,0,0,1-1.26-.62,1.06,1.06,0,0,1-.34-.82h0a1.46,1.46,0,0,1-1,.48,4.37,4.37,0,0,1-1.48-.23,5.47,5.47,0,0,1-.85-.32,3.92,3.92,0,0,1-.75-.45,1.59,1.59,0,0,1-.48-.57,1,1,0,0,1,0-.69,1.07,1.07,0,0,1,.39-.58,1.88,1.88,0,0,1,.66-.28,4.18,4.18,0,0,1,.82-.07l.92,0,1.25.07a3.55,3.55,0,0,0,.77,0,.91.91,0,0,0,.42-.18.78.78,0,0,0,.22-.38l.23-.8a1,1,0,0,0,0-.71q-.14-.36-.78-.54a1.76,1.76,0,0,0-.74-.07.52.52,0,0,0-.45.42.88.88,0,0,0,0,.14c0,.07,0,.14,0,.23l0,.23c0,.07,0,.12,0,.15a.43.43,0,0,1-.22.27.77.77,0,0,1-.34.08,1.22,1.22,0,0,1-.37,0L83.5,89c-.12,0-.23-.08-.35-.12a1.1,1.1,0,0,1-.3-.19.8.8,0,0,1-.18-.27.58.58,0,0,1,0-.39.89.89,0,0,1,.43-.53,2.09,2.09,0,0,1,.81-.25,4.58,4.58,0,0,1,1,0,6.89,6.89,0,0,1,1.15.23,9.83,9.83,0,0,1,1.23.45,3.44,3.44,0,0,1,.94.59,1.79,1.79,0,0,1,.52.77,1.6,1.6,0,0,1,0,1l-1,3.25a.92.92,0,0,0,0,.46c0,.15.17.26.42.34a1,1,0,0,0,.4,0,1.15,1.15,0,0,0,.35-.1l.12.17A1.19,1.19,0,0,1,88.29,94.58ZM86.4,90.36a.33.33,0,0,1-.18.11,1.84,1.84,0,0,1-.39.07l-.74,0a2.48,2.48,0,0,0-.68.11,1.57,1.57,0,0,0-.56.29,1.18,1.18,0,0,0-.35.59,2.78,2.78,0,0,0-.08.38,1,1,0,0,0,0,.45,1.09,1.09,0,0,0,.24.43,1.31,1.31,0,0,0,.6.32,1.24,1.24,0,0,0,.47.06,1.14,1.14,0,0,0,.47-.13,1.12,1.12,0,0,0,.41-.35,1.79,1.79,0,0,0,.29-.62l.51-1.73Z"/><path class="cls-4" d="M96,86.44l-2.72,9.27,1.18.35,0,.18-4.51-1.32,0-.19,1.18.35L93.78,86l-1.18-.34.06-.18Z"/><path class="cls-4" d="M109,90.38l-.06.18-1.62-.47-1.23,4.19.14,0,6.63-2.61-1.78-.52.05-.18,3.53,1-.06.18-1.41-.41-4.83,1.91,4.37,7.69,1.09.32,0,.18-5.89-1.72.06-.19,1.58.47-3.34-6-.14,0-1.35,4.58,1.62.48,0,.18-5.8-1.7,0-.18,1.62.47,2.63-9-1.62-.48.05-.18Z"/><path class="cls-4" d="M119,97.36l-1.59,5.44,1.18.34,0,.19L114.06,102l.06-.18,1.18.35,1.54-5.26-1.18-.35,0-.18Zm-.94-4a1.6,1.6,0,0,1,1.77.52.81.81,0,0,1,.17.76.83.83,0,0,1-.56.55,1.5,1.5,0,0,1-1,0,1.46,1.46,0,0,1-.8-.53.85.85,0,0,1-.18-.76A.83.83,0,0,1,118.1,93.31Z"/><path class="cls-4" d="M123.4,96.94a2.92,2.92,0,0,0,.53.21,3.15,3.15,0,0,0,.55.11,5.52,5.52,0,0,0,.58,0l-.5,1.69,2.06.61-.05.18-2.06-.6-1.29,4.39a1.8,1.8,0,0,0-.07.38.78.78,0,0,0,0,.34.69.69,0,0,0,.22.3,1.31,1.31,0,0,0,.46.22,1.45,1.45,0,0,0,.6.07,1.94,1.94,0,0,0,.5-.15,1.64,1.64,0,0,0,.4-.29,3.11,3.11,0,0,0,.3-.35l.25.11a1.47,1.47,0,0,1-.57.61,2,2,0,0,1-.7.25,2.7,2.7,0,0,1-.75,0,4.78,4.78,0,0,1-.72-.16,5.26,5.26,0,0,1-1.37-.57,1.94,1.94,0,0,1-.63-.61.93.93,0,0,1-.12-.59c0-.2.07-.37.11-.53l1.19-4-1.19-.35.06-.18,1.18.34.5-1.69A4.85,4.85,0,0,0,123.4,96.94Z"/><path class="cls-4" d="M127.53,101.79a3.21,3.21,0,0,1,1.12-.71,4.6,4.6,0,0,1,1.57-.33,5.72,5.72,0,0,1,1.94.25,7.39,7.39,0,0,1,1.19.46,3.82,3.82,0,0,1,.85.58,1.8,1.8,0,0,1,.49.64.94.94,0,0,1,0,.66.66.66,0,0,1-.48.52,1.78,1.78,0,0,1-.89-.07,2.51,2.51,0,0,1-.72-.33.47.47,0,0,1-.21-.57.68.68,0,0,1,.1-.17l.17-.25.17-.25.1-.17a.49.49,0,0,0-.19-.5,1.86,1.86,0,0,0-.73-.38,2,2,0,0,0-1.07-.07,1.58,1.58,0,0,0-.74.43,2.52,2.52,0,0,0-.52.79,8.07,8.07,0,0,0-.37,1c-.1.34-.18.69-.25,1a2.63,2.63,0,0,0,0,1,1.85,1.85,0,0,0,.47.88,2.51,2.51,0,0,0,1.13.61,3.56,3.56,0,0,0,1.27.17,2.9,2.9,0,0,0,.92-.21,2.39,2.39,0,0,0,.6-.38,2.46,2.46,0,0,0,.3-.32l.22.14a2.39,2.39,0,0,1-.42.43,2.05,2.05,0,0,1-.69.37,3.8,3.8,0,0,1-1,.15,5.38,5.38,0,0,1-1.45-.24c-.16,0-.37-.12-.64-.23a5.82,5.82,0,0,1-.85-.4,6.31,6.31,0,0,1-.89-.6,3.85,3.85,0,0,1-.76-.8,2.76,2.76,0,0,1-.43-1,2.65,2.65,0,0,1,.09-1.23A2.15,2.15,0,0,1,127.53,101.79Z"/><path class="cls-4" d="M135.86,108.19l2.66-9.08-1.16-.34,0-.19,3.31,1-1.49,5.08h0l.34-.28a2.17,2.17,0,0,1,.63-.31,4.3,4.3,0,0,1,1-.15,4.39,4.39,0,0,1,1.36.22,3,3,0,0,1,1.66,1,1.72,1.72,0,0,1,.25,1.55l-1.09,3.69,1.18.35-.05.18-4.43-1.29.06-.19,1.09.32,1.22-4.14a1.06,1.06,0,0,0-.07-.89,1.25,1.25,0,0,0-.73-.5,2.29,2.29,0,0,0-.86-.08,1.92,1.92,0,0,0-.81.25,2.61,2.61,0,0,0-.69.61,3.1,3.1,0,0,0-.48,1l-.82,2.8,1.11.33-.06.18L134.64,108l.05-.19Z"/><path class="cls-4" d="M148.88,109.28c-.09.31-.16.64-.22,1a2.16,2.16,0,0,0,0,1,1.73,1.73,0,0,0,.48.83,2.57,2.57,0,0,0,1.16.62,3.63,3.63,0,0,0,1.25.15,3.19,3.19,0,0,0,.92-.22,2.28,2.28,0,0,0,.61-.37,1.34,1.34,0,0,0,.28-.32l.22.14a2.1,2.1,0,0,1-.45.44,2.12,2.12,0,0,1-.74.35,3.51,3.51,0,0,1-1,.14,4.91,4.91,0,0,1-1.37-.22,6.9,6.9,0,0,1-1.65-.71,4.89,4.89,0,0,1-1.22-1,3.12,3.12,0,0,1-.64-1.22,2.43,2.43,0,0,1,0-1.36,2.2,2.2,0,0,1,.64-1,3.39,3.39,0,0,1,1.15-.69,5,5,0,0,1,1.5-.29,5.24,5.24,0,0,1,1.69.22,5.89,5.89,0,0,1,1.19.5,3.83,3.83,0,0,1,1,.78,2.64,2.64,0,0,1,.59,1,2.19,2.19,0,0,1,0,1.24l-5.2-1.52Zm3.31-.83a3.44,3.44,0,0,0,.08-.36,1.14,1.14,0,0,0,0-.45.9.9,0,0,0-.24-.45,1.22,1.22,0,0,0-.62-.34,1.8,1.8,0,0,0-1-.07,1.44,1.44,0,0,0-.64.39,2.26,2.26,0,0,0-.41.64c-.1.24-.19.47-.27.7l2.82.82Z"/><path class="cls-4" d="M155.87,114.06l1.54-5.26-1.17-.34.06-.18,3.28,1-.39,1.31h0l.35-.29a2.8,2.8,0,0,1,.65-.33,3.79,3.79,0,0,1,1-.16,4.4,4.4,0,0,1,1.37.22,3,3,0,0,1,1.66,1,1.69,1.69,0,0,1,.25,1.56l-1.09,3.69,1.19.35-.06.18-4.42-1.3,0-.18,1.09.32,1.22-4.14a1.08,1.08,0,0,0-.07-.9,1.29,1.29,0,0,0-.73-.49,2.5,2.5,0,0,0-.86-.09,1.93,1.93,0,0,0-.81.26,2.45,2.45,0,0,0-.69.61,3,3,0,0,0-.48,1l-.82,2.81,1.11.33,0,.18-4.43-1.3,0-.18Z"/><path class="cls-4" d="M16.5,31.09s6,12,5,16,16-10,31,0c0,0-3-14,2-15s23-6,8-17-17-22-33-8c0,0-21-13-21,7,0,0-23,10,9,21"/></g></g></svg>