<svg xmlns="http://www.w3.org/2000/svg" viewBox="0 0 1242 2208"><defs><style>.cls-1{fill:#ef4925;}.cls-2{fill:#64873e;}.cls-3{fill:#161616;}.cls-4{fill:#7047f3;}.cls-5{fill:#fff;}.cls-6{fill:#ffaa25;}.cls-14,.cls-18,.cls-21,.cls-7,.cls-8{isolation:isolate;}.cls-14,.cls-18,.cls-21,.cls-8{font-size:163.08px;fill:#2c2e32;}.cls-8{font-family:Lato-Bold, Lato;font-weight:700;}.cls-9{letter-spacing:-0.01em;}.cls-10{letter-spacing:-0.01em;}.cls-11,.cls-14{letter-spacing:-0.02em;}.cls-12{letter-spacing:0em;}.cls-13{letter-spacing:-0.02em;}.cls-14,.cls-18,.cls-21{font-family:Lato-Light, Lato;font-weight:300;}.cls-15{letter-spacing:0em;}.cls-16{letter-spacing:-0.02em;}.cls-17{letter-spacing:-0.02em;}.cls-19{letter-spacing:-0.05em;}.cls-20{letter-spacing:-0.02em;}.cls-21{letter-spacing:-0.04em;}.cls-22{letter-spacing:0em;}</style></defs><g id="Layer_2" data-name="Layer 2"><g id="Layer_1-2" data-name="Layer 1"><g id="Group_1452" data-name="Group 1452"><path id="Path_441" data-name="Path 441" class="cls-1" d="M786.74,1498.49c88.84-15.45,396.86-60.66,442.89-67.08-.18,18.93-.34,37.84-4.26,56.48-37.56,178.68-246.36,248.26-367.14,147.69-33.49-27.89-56.33-64-66.6-109.32C789.56,1517.12,788.34,1507.75,786.74,1498.49Z"/><path id="Path_442" data-name="Path 442" class="cls-2" d="M786.74,1498.49c3.67,21.17,9.08,85.12,71.49,137.09,122.94,102.38,330.19,28.13,367.14-147.69,3.92-18.64,4.08-37.54,4.26-56.48,7.15-1.16,4.7-1.07,8.64.37C1253.68,1498,1221.51,1597,1138,1653.22c-175.91,118.37-366.89-3.85-357.59-153.33Z"/><path id="Path_443" data-name="Path 443" class="cls-3" d="M983.28,1578.78c-10-13-2.07-26.36,9.16-24.6a40.78,40.78,0,0,1,10.33,3.35c14.35,6.48,19.42-5.06,29.29-9.74,11.78-5.59,18,12.57,1.91,31.77C1016.56,1600.37,994.71,1593.64,983.28,1578.78Z"/><path id="Path_444" data-name="Path 444" class="cls-3" d="M967.38,1530.34c-.67,3.13-1.32,11.05-8.63,11-5-.06-9.1-3.23-8.2-15.43a9,9,0,0,1,7.2-7.7,8.81,8.81,0,0,1,8.32,6.23A59.89,59.89,0,0,1,967.38,1530.34Z"/><path id="Path_445" data-name="Path 445" class="cls-3" d="M1063.91,1510c-.35,15.88-17.11,15.71-17.3.15-.12-9.71,10.2-13.27,13.81-7.74A46.23,46.23,0,0,1,1063.91,1510Z"/><path id="Path_446" data-name="Path 446" class="cls-3" d="M1061.3,1622.56c-.61.65-1.38,2.15-2.31,2.28a3.69,3.69,0,0,1-3.19-1.6c-.35-.68.52-2.76,1.34-3.41C1058.68,1618.61,1060.78,1619.89,1061.3,1622.56Z"/><path id="Path_447" data-name="Path 447" class="cls-3" d="M990.8,1637.68a13.34,13.34,0,0,1-3.19-2.82c-.86-1.52,1.19-4,2.93-3.44a4.1,4.1,0,0,1,2.36,2.78C993,1635.17,991.69,1636.3,990.8,1637.68Z"/><path id="Path_449" data-name="Path 449" class="cls-3" d="M851.71,1550.39c-.64.59-1.57,2.12-2.4,2a3.82,3.82,0,0,1-2.72-2.41,4,4,0,0,1,1.59-3.26C849.66,1545.85,851.61,1547.74,851.71,1550.39Z"/><path id="Path_451" data-name="Path 451" class="cls-3" d="M1108.13,1583c-1.37,1.39-2.15,2.8-3.06,2.91s-1.79-1.21-2.7-1.9c.7-1,1.26-2.6,2.16-2.91S1106.48,1582.1,1108.13,1583Z"/><path id="Path_452" data-name="Path 452" class="cls-3" d="M907.83,1561.64c1.31,1.42,2.29,2.12,2.69,3.12a3.17,3.17,0,0,1-.94,2.26,14,14,0,0,1-3.2-1.24Z"/><path id="Path_454" data-name="Path 454" class="cls-3" d="M943.14,1611.13l-.66.79-.77-1.57C942.89,1610,942.53,1609.77,943.14,1611.13Z"/><path id="Path_232" data-name="Path 232" class="cls-4" d="M345.5,105.6l5.07,12.31c3.19-.48,17.71-4,28.9-.24,19.55,6.48,17.39,25.49,17.79,40.23,4.39-.27,7.69-.65,11-.65,48.67.07,55.49,72.11,13.63,78.85-4.33.7-8.68,1.23-14.1,2,4.67,13.11,13.28,22.36.63,46.92-11.78,22.86-35.56,16.2-45.56,14.78-2.61,47.11-28.69,65.95-67.48,45-3.59,6.36-11.36,20.29-16.29,25.85-12.86,14.55-33.91,14.77-47,.5-.46-.5-.92-1-1.35-1.56-2.58-3.05-4.87-6.39-7.7-10.12-5.78,7.93-18.51,31.82-48.88,25.65-7.86-1.6-12.54-8-18.62-13.94-12.33,10.85-27.33,27.93-58.4,19.68-23.91-6.34-30.38-31.69-15.88-47.54a134.48,134.48,0,0,1,13.49-11.38c-3.23-10.44-9.3-21-4.83-33.4,14.13-39.25,31-44.58,47.71-41.88-2.39-16.24-2.26-31,5.57-44.56,7.38-12.79,19-21.89,32.28-25.38-10.17-13.39-18-26.4-13-43.67,4.74-16.37,14.23-26.73,31.53-29.42-6.66-10.25-13.64-19.14-12.75-31a62.68,62.68,0,0,1,4.38-20.33C192,47.91,216,18.44,249.4,56.74a115,115,0,0,1,7-9.82C284.7,14.84,332.5,29.84,328.7,72.79c-.52,5.9-2.12,11.68-3.14,17.53-.44,2.53-.66,5.11-1.09,8.42l6.37.05Z"/><path id="Path_233" data-name="Path 233" class="cls-2" d="M342.87,102.69,328.2,95.88c23.84-43,58-74.94,92.13-92,22-11,36.79,2.63,45.51,21.26,4.55,9.68.93,17.25-8.48,19.37C451.46,45.89,392.33,47.57,342.87,102.69Z"/><path id="Path_234" data-name="Path 234" class="cls-3" d="M231.62,217.1c5.76-15.06,7.21-23.33,15.08-22,7.48,1.29,7.21,8.92,8.77,25.08.11,3.2.37,6.4.77,9.58a3.81,3.81,0,0,0,3.1,2.3c.89-.3,22-9.61,28.5-12s13.56,4.37,9.24,13.86c-3.17,7-17.73,21.72-37.18,26.57-16.57,4.14-30.06-7.72-29.33-31.22C230.67,226.06,231.11,222.84,231.62,217.1Z"/><path id="Path_235" data-name="Path 235" class="cls-3" d="M156,361.79c-1.38,2.83-2.12,6-5,5.48-3.51-.62-1-5.17-1.38-9.85-.93-11.93-1.47-25.17-13.5-27.28-27.5-4.83-24.25,2-29.75-3.58-.86-.88,1.12-4.48,2.89-4.74a110.1,110.1,0,0,1,18.78-2.19c5.58.16,10.58.29,14.78-4.63,5.2-6.1,9.19-12.76,9-21.5-.46-17-6.67-19.95-12.13-30.35-.31-.59.23-2.16.81-2.79,1.76-1.87,4.8-.35,6.31,1.44,12.46,14.7,12.3,23.35,28.57,17.95,10.9-3.6,10.86-6.23,14.33-1.62.3.4-.33,2.15-.94,2.83-4.74,5.26-11,6.75-17.23,7.93-6.64,1.26-11.6-1.18-12.5,7a43.61,43.61,0,0,1-9.57,23.25c-3.52,4.35-3.48,4.88-.17,9.55A41.89,41.89,0,0,1,156,361.79Z"/><path id="Path_236" data-name="Path 236" class="cls-3" d="M222.21,319.85c3.79,3.89,5.06.36,19.68-10.05,8.28-5.89,2.47-11-1.15-22.78a4.6,4.6,0,0,1,1.46-3.9,3.89,3.89,0,0,1,3.69.88c10.85,10.29,2.35,21.17,14.32,24.28a5.65,5.65,0,0,1,3.27,2.89c.45,1,0,3.73-.58,3.91-8.09,2.69-30.79-3.26-36.34,28.66-1.69,9.61-1,12.51-4,12.25-2.55-.22-3.59-3.45-3.67-6-.37-12.54,7.11-18.72-9.08-30.62-11.76-8.66-35-5.17-42.4,8.23a42.9,42.9,0,0,1-5.55,7.36,2.71,2.71,0,0,1-2.68.2,3.08,3.08,0,0,1-1.62-2.28C159.62,310.26,196.21,293.17,222.21,319.85Z"/><path id="Path_237" data-name="Path 237" class="cls-3" d="M371.51,178.22c14.59-18.71,12.07-16.75,19.09-19.44.61-.23,3,2,2.4,3.2-3.55,7.23-15.67,12.78-17.09,37.9a162.36,162.36,0,0,1-3,18c3.08,2.11,6.33,4.2,9.42,6.54a3.1,3.1,0,0,1,.23,4.05,2.6,2.6,0,0,1-1.36.89,26.68,26.68,0,0,1-7.13-.51C360.94,225.72,344.15,247,349,262.48c1.11,3.56,2.31,7.11,3.2,10.73a3.05,3.05,0,0,1-1.39,2.52,5.22,5.22,0,0,1-3.94,0c-3.54-1.95-11-19.13-1.7-36.07,2.38-4.32,3.05-7.38-.11-11.38a3.31,3.31,0,0,1,.73-4.31,2.55,2.55,0,0,1,1.22-.52c4.24-.94,12,1.63,18.46-10.36a27.5,27.5,0,0,0,2.15-21.84,41.47,41.47,0,0,0-4.31-8.35c-1.08-1.84-2.5-4-.69-5.55S369.44,177.58,371.51,178.22Z"/><path id="Path_238" data-name="Path 238" class="cls-3" d="M263.75,100a99.39,99.39,0,0,1-10.15-7,10.56,10.56,0,0,0-12.32-2.07c-34.66,17.32-16.47,38.28-14.73,43.83.26.85.08,2.58-.43,2.87-1.14.72-2.94,1.54-3.88,1-12.1-6.56-5.37-19.36-16.34-20.69-9.53-1.17-12.36-6.11-11.15-7.66,4.1-5.3,15.2,5.77,19.67-4.12,5.9-13,15.75-20.33,28.05-24.15,8.18-2.52-.63-11.89,5.88-23.13a2.81,2.81,0,0,1,2.39-1.11c.76.12,2,1.08,2,1.75.6,9.79-3,33.06,22.31,33.05a27.06,27.06,0,0,1,5.83-.07,4.52,4.52,0,0,1,3,2.81,4.74,4.74,0,0,1-1.84,3.82C277,101.88,271.68,101.76,263.75,100Z"/><path id="Path_239" data-name="Path 239" class="cls-3" d="M281,311.07c3.52-25,18.59-24.74,14.55-38.16-2.38-7.89,1.5-21.85,6.35-20.15,5.57,2-6.36,22,6.57,21.39,24.27-1.16,20.86-1,28,3.49.54.34.76,2,.54,2.92s-1.17,2.1-1.84,2.11a52.8,52.8,0,0,1-8.61-.5c-21-3.05-36.2,9.64-39.06,32.71-.41,3.37.93,6.88-2.57,8.4-2.06.89-4.62-3-4.44-6.89C280.63,313.7,281,311,281,311.07Z"/><path id="Path_240" data-name="Path 240" class="cls-3" d="M211.51,195.36c2,4.78,4,9,5.51,13.5a3.61,3.61,0,0,1-2,4.47,2.91,2.91,0,0,1-3-.57,10,10,0,0,1-2.68-3.75c-10.5-20-31.35-19.76-34.57-20.66a3.16,3.16,0,0,1-1.47-2.41,3.43,3.43,0,0,1,1.2-2.66,9.68,9.68,0,0,1,5.38-1.72,50.91,50.91,0,0,1,15.53,4.21c6.71,3.72,12.18,2.06,17.89-1.81,8.74-5.93,9.85-13.78,14.91-21.33.65-.95,3.16.57,3.41,1.47,2.18,7.75-4.68,18.08-10.52,23.44C218.16,190.27,214.91,192.62,211.51,195.36Z"/><path id="Path_241" data-name="Path 241" class="cls-3" d="M314,96.14a3.54,3.54,0,0,1,4.87,2l0,.07c1.73,4.33-4.52,5-7.58,7.81-25.18,23.11-9.4,34.33-8.89,39.69a4.87,4.87,0,0,1-1.39,3.83,3.93,3.93,0,0,1-3.91-.38C280.56,133.42,292.15,104.71,314,96.14Z"/><path id="Path_242" data-name="Path 242" class="cls-3" d="M347.24,117.82a14.46,14.46,0,0,1,5.14-2.36c1.17-.44,2.78,2.45,2.45,3-4.11,7.11-9.83,12.35-11.49,23.89-1.34,9.32.91,14.51,8.73,19.92a16.18,16.18,0,0,1,2.57,1.49C356,165.21,358,167,356.12,169c-4.81,5.34-13.9-1.76-17.41-8.56C331.49,146.43,337.9,127.05,347.24,117.82Z"/><path id="Path_243" data-name="Path 243" class="cls-3" d="M265.89,169.15c-2,5-3.61,13.06-11.75,11.78-7.3-1.15-11.48-12-3.42-21.66C257.12,151.62,267.49,157.52,265.89,169.15Z"/><path id="Path_244" data-name="Path 244" class="cls-3" d="M312.27,200.42c-4.81,8.55-17,3.53-16.22-5.71C298.17,169.77,324.08,179.43,312.27,200.42Z"/><path id="Path_339" data-name="Path 339" class="cls-5" d="M254.62,1985.26c56.26-49,82-344.18-10.47-350.26-94.44-6.19-65.88,267-94.44,329.23S215.64,2019.2,254.62,1985.26Z"/><path id="Path_340" data-name="Path 340" class="cls-6" d="M1,1912.91c-2.6-7.11.37-10.34,2.74-13.67,14.29-20,33.3-31.07,55.47-36.56,65.43-16.21,112.41,43.1,155.57,97.56,20.91-33.88,41.8-62.81,78.09-94.34A119,119,0,0,1,351.42,1838c58.13-10.12,82.8,51.74,54.18,50.58-47.91-2-98,66.84-121.46,113.57-28.25,56.37-33.86,79.77-60,115-27.73,37.36-55.05,37.67-81.89,49.47-19.26,8.46-22.79,24.28-31.26,35.17-11.44,14.72-35.69,1.53-23-22.15a65.32,65.32,0,0,0,7-32.82c-.75-33.56,15.85-42.36,24-98.11,2.94-20.09,4.62-48.88-3.76-67.07C81.19,1907.88,28.52,1915.17,1,1912.91Z"/><path id="Path_341" data-name="Path 341" class="cls-3" d="M219.2,1802.19c1.64-3.7,5.67-5.24,9-3.43a6.84,6.84,0,0,1,1,.65c7.12,5.63,9.45,12.72,15.44,7.28,2.63-2.39,5-5.09,7.71-7.37a5.25,5.25,0,0,1,7.75,1.5,18,18,0,0,1,2.92,8.78c-.59,11-6.45,20.84-15.36,25.75C229.6,1845.78,212,1818.43,219.2,1802.19Z"/><path id="Path_342" data-name="Path 342" class="cls-3" d="M151.32,2055c-1.28-3.48-3.46-4.28,1.47-10.06,15.22-17.83,35.4-36.26,51.61-71.5,3.65-7.9,7-10.79,8.47-8.44,3,4.68-.64,8.18-2.19,11.75-14.28,32.72-29.78,49.34-54.05,75.33A20.73,20.73,0,0,1,151.32,2055Z"/><path id="Path_343" data-name="Path 343" class="cls-3" d="M211.44,1753c2.35-4.76,7.73-6.5,12-3.9a9.43,9.43,0,0,1,3.48,3.83c4.2,9-2.12,22.79-11.73,18.3C209.21,1768.42,208.53,1759,211.44,1753Z"/><path id="Path_344" data-name="Path 344" class="cls-3" d="M273.15,1760.12a53.68,53.68,0,0,1-1.68,6.15,8.28,8.28,0,0,1-9.6,5.13c-9.84-2.65-9.58-20.57.23-22.74,3.9-.93,7.87,1.27,9.55,5.29A51.85,51.85,0,0,1,273.15,1760.12Z"/><path id="Path_346" data-name="Path 346" class="cls-3" d="M127.53,2080.53c-.4-1.09-1.63-2.82-1.26-3.67a29.72,29.72,0,0,1,11.63-13.74c1.66-1,4.42,1.68,3.91,3a23,23,0,0,1-12.35,14.51C129.05,2080.84,128.51,2080.61,127.53,2080.53Z"/><g id="Discover" class="cls-7"><text class="cls-8" transform="translate(236.77 701.25) scale(0.9 1)"><tspan class="cls-9">D</tspan><tspan x="122.64" y="0">is</tspan><tspan class="cls-10" x="235.73" y="0">c</tspan><tspan class="cls-11" x="312.87" y="0">ov</tspan><tspan class="cls-12" x="487.45" y="0">e</tspan><tspan class="cls-13" x="574.53" y="0">r</tspan></text></g><g id="New" class="cls-7"><text class="cls-14" transform="translate(223.5 890.54) scale(0.9 1)">N<tspan class="cls-15" x="120.52" y="0">e</tspan><tspan class="cls-16" x="205.16" y="0">w</tspan></text></g><g id="Exciting" class="cls-7"><text class="cls-8" transform="translate(229.38 1074) scale(0.9 1)">E<tspan class="cls-17" x="93.77" y="0">x</tspan><tspan x="175.15" y="0">citing</tspan></text></g><g id="Wacky" class="cls-7"><text class="cls-18" transform="translate(222 1272.03) scale(0.9 1)"><tspan class="cls-19">W</tspan><tspan x="157.7" y="0">ack</tspan><tspan class="cls-20" x="391.15" y="0">y</tspan></text></g><g id="Foods" class="cls-7"><text class="cls-21" transform="translate(224.61 1475.88) scale(0.9 1)">F<tspan class="cls-22" x="85.21" y="0">oods</tspan></text></g><path id="Path_431" data-name="Path 431" class="cls-6" d="M1187.31,361.4c3.75,75.11-47.61,138.41-110.63,150.92-51,10.11-104.87-13.78-133.27-63.68-30.47-53.55-24.54-120.52,11.23-167.82,32.22-42.6,68.92-54.08,115.54-55a20.42,20.42,0,0,0,5,2.19C1133,236.54,1183.37,282.7,1187.31,361.4Z"/><path id="Path_432" data-name="Path 432" class="cls-2" d="M1119.27,242.79c-27.47-13-29.93-11.21-40.91-14.42-.5-21.55-6.39-49.38-.43-69.36,3.55-11.92,18.6-13,25.87-7.23,9.19,7.33,4.77,14.64-10.72,61.45,0,1.79-2.3,5.11-2.22,9.63,29.51-48.45,96.49-60.92,133.88-47.5,8.65,16.31-40.76,53.52-88.24,62.73C1130.68,239.21,1125,241.2,1119.27,242.79Z"/><path id="Path_433" data-name="Path 433" class="cls-3" d="M1076.4,163c3.08-12.58,12.77-17.8,23.6-13.69,10.1,3.85,9.76,13.65,6.4,24.47-5.09,16.38-10.32,32.72-15.54,49.06-2.53,9.9-1.61,8.28-7.35,6.85a30.59,30.59,0,0,1-13.34-3.91A243.63,243.63,0,0,1,1076.4,163Z"/><path id="Path_434" data-name="Path 434" class="cls-3" d="M1167,199.27c-1.62,2.88-.3,3.94-9.88,7.41-18.47,6.7-36.71,13.93-53.51,25a7.51,7.51,0,0,1-3.9,1c-1.75,0-3.37-3.11-2.62-4.32a18,18,0,0,1,4.38-5.65c22.68-15.06,58.07-29.17,62.65-26.81C1165.19,196.54,1165.92,198,1167,199.27Z"/><path id="Path_435" data-name="Path 435" class="cls-3" d="M1033.62,373.87c5-.47,1.6,11.18,5.2,23.4,2.36,8,9.56,7.75,12.1,1.3,5.94-15.09,6.87-27.79,12.81-21.24a2.13,2.13,0,0,1,.29,1.46c-4,41-27.93,39.2-32.36,19.11C1030.4,392.18,1028.88,374.32,1033.62,373.87Z"/><path id="Path_437" data-name="Path 437" class="cls-3" d="M1085.51,342.78c-3.7,13.42-18.06,7.88-17.12-4,.5-6.39,4.85-12.45,10.24-11.45C1083.66,328.31,1087.73,334.77,1085.51,342.78Z"/><path id="Path_438" data-name="Path 438" class="cls-3" d="M1028.39,339.49c-5.06,2.53-14.13-1.56-11.09-14.3a9.91,9.91,0,0,1,6-7.54C1034.64,313.34,1038.67,334.34,1028.39,339.49Z"/><path id="Path_453" data-name="Path 453" class="cls-3" d="M1124.11,1515.7l-3.83,1.59a16.08,16.08,0,0,1-1-3.42c0-.34,1.49-1.33,1.91-1.1A16.36,16.36,0,0,1,1124.11,1515.7Z"/><path id="Path_345" data-name="Path 345" class="cls-3" d="M100.55,2150.21c.91.11,2.26-.16,2.66.4A53.9,53.9,0,0,0,123,2166.47a4.77,4.77,0,0,1,1.65,3.89c-1,7.5-18.22-.76-25.44-13.19C97.94,2154.9,98.79,2150.57,100.55,2150.21Z"/></g></g></g></svg>