<svg xmlns="http://www.w3.org/2000/svg" viewBox="0 0 74.71 69.63"><defs><style>.cls-1{fill:#fff;}.cls-2{fill:#ffaa25;}.cls-3{fill:#161616;}</style></defs><g id="Layer_2" data-name="Layer 2"><g id="Layer_1-2" data-name="Layer 1"><g id="Group_46" data-name="Group 46"><path id="Path_339" data-name="Path 339" class="cls-1" d="M43.32,45.88C52.13,40.36,59.9,2.3,46.63.1,33.07-2.15,33.44,33.88,28.45,41.55S37.23,49.7,43.32,45.88Z"/><path id="Path_340" data-name="Path 340" class="cls-2" d="M.12,29.34c-.37-1,.2-1.34.67-1.73a17.77,17.77,0,0,1,10.37-3.72C23,23,30.57,31.61,37.5,39.51A56.71,56.71,0,0,1,52.68,28.69a25.28,25.28,0,0,1,10.8-2.53c10.48-.23,14,8.29,8.94,7.6-8.49-1.15-18.35,6.87-23.16,12.52C43.46,53.09,42.14,56,37,60.13,31.55,64.48,26.69,64,21.75,65c-3.54.74-4.39,2.73-6,4-2.24,1.7-6.38-.48-3.79-3.32a6.71,6.71,0,0,0,1.69-4.15c.33-4.38,3.41-5.22,5.62-12.33.8-2.56,1.5-6.28.26-8.8C14.45,30.19,5,30.15.12,29.34Z"/><path id="Path_341" data-name="Path 341" class="cls-3" d="M41.11,20.79a1,1,0,0,1,1.35-.31l.13.09c.95.85,1.19,1.81,2.13,1.19.41-.27.8-.59,1.21-.84a.8.8,0,0,1,1.1.31,2.16,2.16,0,0,1,.3,1.19,4,4,0,0,1-2.57,3.12C42,26.62,39.85,22.79,41.11,20.79Z"/><path id="Path_342" data-name="Path 342" class="cls-3" d="M25.68,51.53c-.14-.47-.44-.61.35-1.29,2.44-2.09,5.61-4.18,8.44-8.52.64-1,1.16-1.3,1.34-1,.37.66-.2,1.06-.48,1.5-2.51,4-5,6-8.84,9A3,3,0,0,1,25.68,51.53Z"/><path id="Path_343" data-name="Path 343" class="cls-3" d="M39.81,14.42a1.29,1.29,0,0,1,1.79-.33,1.27,1.27,0,0,1,.45.55c.49,1.24-.62,2.94-1.94,2.21a1.72,1.72,0,0,1-.3-2.42Z"/><path id="Path_344" data-name="Path 344" class="cls-3" d="M50.2,16.45a7.35,7.35,0,0,1-.32.77,1.25,1.25,0,0,1-1.46.52,1.57,1.57,0,0,1,.34-3,1.25,1.25,0,0,1,1.31.84A5.74,5.74,0,0,1,50.2,16.45Z"/><path id="Path_345" data-name="Path 345" class="cls-3" d="M14.72,62.13c.13,0,.33,0,.38.09a7.8,7.8,0,0,0,2.64,2.37.58.58,0,0,1,.19.53c-.25,1-2.62-.38-3.5-2.11C14.27,62.7,14.46,62.15,14.72,62.13Z"/><path id="Path_346" data-name="Path 346" class="cls-3" d="M20.38,54.11c0-.15-.2-.39-.13-.5A4,4,0,0,1,22.12,52c.25-.11.61.29.52.46a3.11,3.11,0,0,1-2,1.7C20.6,54.18,20.52,54.14,20.38,54.11Z"/></g></g></g></svg>