<svg xmlns="http://www.w3.org/2000/svg" viewBox="0 0 207.97 317.52"><defs><style>.cls-1{fill:#fea923;}.cls-2{fill:#64873e;}.cls-3{fill:#a6a050;}.cls-4{fill:#ef4925;}.cls-5{fill:#161616;}</style></defs><g id="Layer_2" data-name="Layer 2"><g id="Layer_1-2" data-name="Layer 1"><g id="Group_38" data-name="Group 38"><path id="Path_245" data-name="Path 245" class="cls-1" d="M69.69,314.8C46.19,312.93-.06,296.34,0,214.2c10.06-102,71.5-79.36,102.75-166.07a109.75,109.75,0,0,1,13.8-33.05c13.45-20,33-16,44.79-11.1l2.58,1.84-.13-.27,7.9,9.33c9.21,19.7,11.06,20.32-11.38,85.12-19.93,57.56,40.15,75.28-7.65,162.41C135.36,294,104.06,317.52,69.69,314.8Zm-38.95-98a45.19,45.19,0,0,0,10.85,30.3C61,271.85,98.2,261.71,114.22,222.32c22.52-55.38-21.94-98-58-66.13C39.21,171.2,31.11,190.15,30.74,216.84Z"/><path id="Path_246" data-name="Path 246" class="cls-2" d="M79.51,315.08c22.44-5.69,53.5-16.7,73.17-52.69,47.78-87.12-12.32-104.82,7.65-162.41,24.61-71.05,14.83-78.76,3.61-94.18,19.51,8.37,27.35,28.45,28.15,46.17a233.19,233.19,0,0,1-3.37,48.79c-9.18,55.35,16.17,64.74,19.06,113.34C212.31,290.53,135.73,327.77,79.51,315.08Z"/><path id="Path_247" data-name="Path 247" class="cls-3" d="M163.92,5.82,161.34,4Z"/><path id="Path_248" data-name="Path 248" class="cls-4" d="M30.74,216.84c-.12-75.42,68.46-96,86.37-50.16,22.14,56.72-42.46,122.63-75.52,80.46A45.19,45.19,0,0,1,30.74,216.84Z"/><path id="Path_249" data-name="Path 249" class="cls-5" d="M69.53,262.81c-30.75-1.12-38.9-33.79-36.81-37.76.71-1.33,3.41-2.6,4.36-1.12,3.5,5.46,4,10.71,6.8,15.78a28.52,28.52,0,0,0,38.21,13.12l.67-.34c25.08-11.25,30.06-40.35,33.54-48.12.27-.61,1.93-1,2.75-.81,1.53.42,2.78,2.24,2.21,5.31C116.2,236.33,96.61,261.05,69.53,262.81Z"/><path id="Path_250" data-name="Path 250" class="cls-5" d="M102,99.58c2.24-8,2-10.09,6.05-10.53,2.69-.29,3.49,4.77,5.49,9.83,3.65,9.21,12.24-8.58,16.83-2.92,3,3.7-3.15,12.46-6.52,15.82-7.84,7.84-19.27,5.34-21.45-7.32C102.15,103.4,102.17,102.31,102,99.58Z"/><path id="Path_251" data-name="Path 251" class="cls-5" d="M124.35,61.32a10,10,0,0,1-6.14,10.16c-4.83,1.59-11.67-3-6.67-11.6a6.78,6.78,0,0,1,12.81,1.44Z"/><path id="Path_252" data-name="Path 252" class="cls-5" d="M146.38,70.78A8.43,8.43,0,0,1,139,79.84a6.39,6.39,0,0,1-6.45-6C132.07,63.29,145.76,61.83,146.38,70.78Z"/></g></g></g></svg>