<svg xmlns="http://www.w3.org/2000/svg" viewBox="0 0 101.82 107.51"><defs><style>.cls-1,.cls-2{fill:#fff;stroke:#000;}.cls-1{stroke-miterlimit:10;}.cls-3{fill:#ef4925;}.cls-4{fill:#64873e;}.cls-5{fill:#161616;}</style></defs><g id="Layer_2" data-name="Layer 2"><g id="Layer_1-2" data-name="Layer 1"><g id="Ellipse_8899" data-name="Ellipse 8899"><ellipse class="cls-1" cx="50.91" cy="53.76" rx="50.41" ry="53.26"/><ellipse class="cls-2" cx="50.91" cy="53.76" rx="49.96" ry="52.78"/></g><path id="Path_408" data-name="Path 408" class="cls-3" d="M64.23,32.07c2.64,1.88,6,8.35,5.07,17.37C68,63.22,61.49,76.61,58.54,80c-4.35,5-10.61,5.15-16-2.31a63.72,63.72,0,0,1-11-24.16,26.25,26.25,0,0,1,1.16-14.63A19.73,19.73,0,0,1,34.2,36c.59,4.35,2.57,2.64,7.24-.13A20.39,20.39,0,0,0,42,38.8c.93,2.61,3,3,4.51.78a29,29,0,0,0,1.61-2.88c.38-.67.53-1.53,1.39-2,5,3.89,5.6,4.2,6.78,4.37,1.51.21,2.45-1.07,2.07-2.76-.11-.47-.34-.9-.46-1.37a8.25,8.25,0,0,1-.1-1.22C61.49,34.66,62.77,35.41,64.23,32.07Z"/><path id="Path_409" data-name="Path 409" class="cls-4" d="M64.8,34.29c-1.51,2.76-2.84,2.13-6.61,1.38a6.8,6.8,0,0,0,.11,1c.12.39.36.74.47,1.13.57,2.05-1.61,3-4,1.71-1.36-.72-3.74-2.17-5.12-3-.88.37-1,1.08-1.42,1.63a26.08,26.08,0,0,1-1.67,2.38C45,42.29,42.86,42,41.9,39.85a14.16,14.16,0,0,1-.6-2.41c-4.78,2.27-6.85,3.69-7.46.1,2.67-5.5,12.29-7.83,14.83-8.45,2.66,0,5.35-.69,11.76,1.47C62.4,31.22,64.19,32.24,64.8,34.29Z"/><path id="Path_410" data-name="Path 410" class="cls-5" d="M48.92,16.17C50.75,14,54.47,16,53.2,18c-.67,1.06-3.52,4.58-4.52,8.87l-2.86.89C45.73,25.6,47,18.41,48.92,16.17Z"/><path id="Path_411" data-name="Path 411" class="cls-5" d="M45.54,59.63a7.76,7.76,0,0,1,.13-.82A1.14,1.14,0,0,1,47.08,58l.12,0c1.43.64,1.91,1.87,3.64.81,1.18-.73,2.77-1.14,3.09.27.46,2-2.41,7.26-5,5.78A6.89,6.89,0,0,1,45.54,59.63Z"/><path id="Path_412" data-name="Path 412" class="cls-5" d="M54.61,51c-.24,1.06-.28,2.08-1.35,2.14s-1.86-1.5-.78-3.16A1.06,1.06,0,0,1,54,49.75a1,1,0,0,1,.27.31A5.24,5.24,0,0,1,54.61,51Z"/><path id="Path_413" data-name="Path 413" class="cls-5" d="M47.09,51.91c0,1.79-1.54,2-2.26.93a1.91,1.91,0,0,1,.09-2.22,1.11,1.11,0,0,1,1.6-.18,1.33,1.33,0,0,1,.29.38A5.81,5.81,0,0,1,47.09,51.91Z"/><path id="Path_414" data-name="Path 414" class="cls-5" d="M39.6,45.15a4.74,4.74,0,0,1,.28-.58c.12-.23.6-.19.64,0,.11.64.19,1.29.25,2,0,.07-.17.19-.28.22C40,46.92,39.58,46.25,39.6,45.15Z"/><path id="Path_415" data-name="Path 415" class="cls-5" d="M54.16,70.36c0,1-.25,1.61-.68,1.48s-.53-.58-.42-1.39.76-.91.95-.55A1.9,1.9,0,0,1,54.16,70.36Z"/><path id="Path_416" data-name="Path 416" class="cls-5" d="M34.47,50.63c-.15.23-.26.53-.34.52-1.21-.13-1.21-2-.58-2.18S34.11,49.42,34.47,50.63Z"/><path id="Path_417" data-name="Path 417" class="cls-5" d="M54.63,78c.15.16.38.3.38.43a6.82,6.82,0,0,1-.16,1.35c-.07.3-.66.59-.76.42-.23-.36-.38-.72.08-1.85C54.23,78.24,54.45,78.17,54.63,78Z"/><path id="Path_418" data-name="Path 418" class="cls-5" d="M60.54,73.85c-.37,1-.46,1.59-1,1.47-.88-.21,0-2.17.52-1.88A2,2,0,0,1,60.54,73.85Z"/><path id="Path_419" data-name="Path 419" class="cls-5" d="M66.16,47.47c.35-.55.85-.38.94.13.18,1.07-.17,1.69-.59,1.59C65.9,49,65.89,47.89,66.16,47.47Z"/><path id="Path_420" data-name="Path 420" class="cls-5" d="M41.6,71c-.18,0-.33,0-.42,0a1.46,1.46,0,0,1-.7-1.49c0-.11.11-.29.2-.31s.45-.05.51,0a8.74,8.74,0,0,1,.66,1.38C41.88,70.71,41.68,70.9,41.6,71Z"/><path id="Path_421" data-name="Path 421" class="cls-5" d="M60.54,65.46c-.51.21-.85-1.5.2-2C61.21,63.3,61.59,65,60.54,65.46Z"/><path id="Path_422" data-name="Path 422" class="cls-5" d="M59.89,52.85a1,1,0,0,1,.33,1.36.71.71,0,0,1-.1.14c-.4.55-1.43-.61-.57-1.41C59.63,52.87,59.77,52.88,59.89,52.85Z"/><path id="Path_423" data-name="Path 423" class="cls-5" d="M59.21,46a2.09,2.09,0,0,1-.11.43c-.06.1-.18.23-.27.23a.65.65,0,0,1-.48-.16c-.52-.72-.28-1.78.19-1.84S59.08,45.31,59.21,46Z"/><path id="Path_424" data-name="Path 424" class="cls-5" d="M47.23,76.4c-.19.17-.31.35-.45.38a.59.59,0,0,1-.48-.16c-.6-1.33.33-1.53.58-1.11A5.31,5.31,0,0,1,47.23,76.4Z"/><path id="Path_425" data-name="Path 425" class="cls-5" d="M41.73,63.83c.17.05.33.06.39.14.64,1,.37,1.52.05,1.49-.67-.08-.81-.57-.79-1.27C41.38,64.06,41.62,63.94,41.73,63.83Z"/><path id="Path_426" data-name="Path 426" class="cls-5" d="M39.52,56.05c-.13.16-.22.37-.36.42a.58.58,0,0,1-.49-.14c-.78-.75.34-1.75.64-1A7,7,0,0,1,39.52,56.05Z"/><path id="Path_427" data-name="Path 427" class="cls-5" d="M65.57,58.1a2.36,2.36,0,0,1,0,.46c-.22.79-.86.9-1.07.64s-.06-.73.12-1.06a.6.6,0,0,1,.61-.34A1.43,1.43,0,0,1,65.57,58.1Z"/><path id="Path_428" data-name="Path 428" class="cls-5" d="M35.42,61.17c.17,0,.34,0,.4.1,1.44,1.95-.94,1.6-.68.32C35.17,61.43,35.33,61.3,35.42,61.17Z"/><path id="Path_429" data-name="Path 429" class="cls-5" d="M50.8,80.87a.44.44,0,0,1-.54.35h0c-1.11-.57-.53-1.81,0-1.48A1.13,1.13,0,0,1,50.8,80.87Z"/><path id="Path_430" data-name="Path 430" class="cls-5" d="M64.41,39.3c.76-.13,1,.71.49,1a.49.49,0,0,1-.65-.28.74.74,0,0,1,0-.14A1.56,1.56,0,0,1,64.41,39.3Z"/></g></g></svg>