<svg xmlns="http://www.w3.org/2000/svg" viewBox="0 0 204 149.1"><defs><style>.cls-1{fill:#fad9c1;}.cls-2{fill:#fe9c8f;}.cls-3{fill:#fff;}</style></defs><g id="Layer_2" data-name="Layer 2"><g id="Layer_1-2" data-name="Layer 1"><path class="cls-1" d="M102.4,12.54,80.21,13.61A10.69,10.69,0,0,0,70,24.81l1.75,36.72A10.71,10.71,0,0,0,83,71.72l22.19-1.07a10.69,10.69,0,0,0,10.18-11.2l-1.75-36.72A10.71,10.71,0,0,0,102.4,12.54Zm-17,44.31a4.76,4.76,0,0,1-4.52,5h-.19a4.76,4.76,0,0,1-5-4.52l-1.4-29.25a4.76,4.76,0,0,1,4.52-5h.19a4.76,4.76,0,0,1,5,4.52Zm12.38-.6a4.78,4.78,0,0,1-4.52,5h-.19a4.78,4.78,0,0,1-5-4.52l-1.4-29.25a4.76,4.76,0,0,1,4.52-5h.19a4.77,4.77,0,0,1,5,4.52Zm12.84-.61a4.76,4.76,0,0,1-4.52,5H106a4.77,4.77,0,0,1-5-4.52l-1.4-29.24a4.78,4.78,0,0,1,4.52-5h.19a4.78,4.78,0,0,1,5,4.52Z"/><polygon class="cls-2" points="169.76 135.24 169.76 91.79 39.43 51.69 39.43 95.13 169.76 135.24"/><polygon class="cls-2" points="203.75 149.1 176.54 142.28 177.01 109.62 204 113.49 187.43 129.59 203.75 149.1"/><polygon class="cls-2" points="4.65 88.45 32.83 81.5 32.47 47.7 4.53 51.6 21.61 68.32 4.65 88.45"/><path class="cls-3" d="M50.46,78.52a3,3,0,0,0,0,.41,3.33,3.33,0,0,0,.09.57,3.64,3.64,0,0,0,.24.67,3.32,3.32,0,0,0,.44.69,4.12,4.12,0,0,0,.62.63,5.09,5.09,0,0,0,.62.41,3.82,3.82,0,0,0,.6.25l.53.16a4.54,4.54,0,0,0,1.51.23,2.67,2.67,0,0,0,1-.22,1.79,1.79,0,0,0,.64-.46,1.45,1.45,0,0,0,.29-.52,1,1,0,0,0-.08-.81,2.26,2.26,0,0,0-.63-.7,7.68,7.68,0,0,0-1-.65l-1.18-.63a13.4,13.4,0,0,1-1.17-.7,4.82,4.82,0,0,1-1-.79,2.54,2.54,0,0,1-.57-1,2,2,0,0,1,0-1.16,1.83,1.83,0,0,1,.57-.83,3,3,0,0,1,1.06-.53,5,5,0,0,1,1.44-.17,6,6,0,0,1,1.67.26,6.24,6.24,0,0,1,.94.35c.27.13.49.25.69.37s.37.21.52.31a1.6,1.6,0,0,0,.42.2.58.58,0,0,0,.32,0,.71.71,0,0,0,.22-.15l.26.08L59,77.14l-.22-.07c0-.32-.11-.63-.18-.94a2.93,2.93,0,0,0-.36-.9,2.7,2.7,0,0,0-.73-.79,3.88,3.88,0,0,0-1.29-.6A4.81,4.81,0,0,0,55,73.63a3.52,3.52,0,0,0-1,.09,1.9,1.9,0,0,0-.67.32.91.91,0,0,0-.34.48.93.93,0,0,0,.1.78,2.94,2.94,0,0,0,.67.71,8.15,8.15,0,0,0,1,.67l1.23.69c.42.23.83.47,1.22.72a5.56,5.56,0,0,1,1,.8,2.82,2.82,0,0,1,.61.93,1.69,1.69,0,0,1,0,1.09,2.08,2.08,0,0,1-.65,1,3.25,3.25,0,0,1-1.21.64,5.59,5.59,0,0,1-1.64.2,7.47,7.47,0,0,1-1.94-.32,7,7,0,0,1-1-.37l-.91-.43-.74-.38A4.11,4.11,0,0,0,50.3,81,.8.8,0,0,0,50,81a.51.51,0,0,0-.25.17l-.27-.08.78-2.64Z"/><path class="cls-3" d="M66.89,80.72a4.92,4.92,0,0,1,1.12,1,3,3,0,0,1,.61,1.11A2,2,0,0,1,68,84.9a3,3,0,0,1-1.11.61,4.49,4.49,0,0,1-1.46.2,5.94,5.94,0,0,1-1.67-.25,5.86,5.86,0,0,1-1.54-.69,4.66,4.66,0,0,1-1.12-1,2.91,2.91,0,0,1-.61-1.11,2,2,0,0,1,0-1.15,2,2,0,0,1,.62-1A3,3,0,0,1,62.22,80a4.77,4.77,0,0,1,1.46-.21,6.21,6.21,0,0,1,3.21.94Zm-2,4.66A1.47,1.47,0,0,0,65.6,85a2.25,2.25,0,0,0,.45-.76c.12-.3.23-.61.32-.92s.17-.64.23-1a2.4,2.4,0,0,0,0-.88,1.4,1.4,0,0,0-.38-.73,2,2,0,0,0-1-.52,2.08,2.08,0,0,0-1.08-.08,1.55,1.55,0,0,0-.71.42,2.3,2.3,0,0,0-.45.75c-.12.3-.23.61-.32.92s-.17.64-.23,1a2.46,2.46,0,0,0,0,.89,1.36,1.36,0,0,0,.38.73,1.94,1.94,0,0,0,1,.52A2,2,0,0,0,64.89,85.38Z"/><path class="cls-3" d="M70.3,83.44a3,3,0,0,1,1-.65,4.69,4.69,0,0,1,1.48-.28,5.65,5.65,0,0,1,1.83.25,7.51,7.51,0,0,1,1.12.43,3.79,3.79,0,0,1,.81.53,1.91,1.91,0,0,1,.47.59.89.89,0,0,1,0,.6.62.62,0,0,1-.45.47,1.75,1.75,0,0,1-.85-.07,2.82,2.82,0,0,1-.68-.31.44.44,0,0,1-.2-.52.71.71,0,0,1,.09-.15,1.88,1.88,0,0,0,.16-.23c0-.08.11-.15.16-.22a.7.7,0,0,0,.09-.16.46.46,0,0,0-.18-.46,1.86,1.86,0,0,0-.69-.35,2,2,0,0,0-1-.07,1.46,1.46,0,0,0-.7.38,2.46,2.46,0,0,0-.48.71q-.18.43-.33.93a7.54,7.54,0,0,0-.22.94,2.24,2.24,0,0,0,0,.93,1.76,1.76,0,0,0,.46.8,2.35,2.35,0,0,0,1.06.57,3.37,3.37,0,0,0,1.2.16,2.67,2.67,0,0,0,.87-.18,2,2,0,0,0,.56-.34,1.55,1.55,0,0,0,.27-.29l.22.13a2.13,2.13,0,0,1-.4.39,1.73,1.73,0,0,1-.65.33,3.3,3.3,0,0,1-1,.12,4.82,4.82,0,0,1-1.37-.23,5.61,5.61,0,0,1-.6-.21,4.86,4.86,0,0,1-.81-.38,5.51,5.51,0,0,1-.84-.55,3.32,3.32,0,0,1-.72-.73,2.61,2.61,0,0,1-.42-.93,2.29,2.29,0,0,1,.07-1.12A1.86,1.86,0,0,1,70.3,83.44Z"/><path class="cls-3" d="M81.69,85l-1.45,4.94,1.12.33,0,.16-4.26-1.25,0-.16,1.11.32,1.4-4.77-1.12-.32.05-.17Zm-.92-3.69a1.55,1.55,0,0,1,1.66.49.74.74,0,0,1,.18.69.78.78,0,0,1-.53.5,1.46,1.46,0,0,1-.9,0,1.41,1.41,0,0,1-.76-.49.74.74,0,0,1-.18-.7A.75.75,0,0,1,80.77,81.31Z"/><path class="cls-3" d="M89.43,92.93c-.3-.05-.58-.12-.84-.19a2.91,2.91,0,0,1-1.19-.59,1,1,0,0,1-.34-.74h0a1.39,1.39,0,0,1-.92.43,4.5,4.5,0,0,1-1.4-.23,7.17,7.17,0,0,1-.8-.3,3.8,3.8,0,0,1-.71-.42,1.49,1.49,0,0,1-.46-.52.86.86,0,0,1,0-.63.91.91,0,0,1,.36-.52,1.72,1.72,0,0,1,.62-.25,3.7,3.7,0,0,1,.77-.06l.87,0,1.18.09a3.8,3.8,0,0,0,.72,0,.78.78,0,0,0,.4-.16.7.7,0,0,0,.2-.34l.21-.72a1,1,0,0,0,0-.65,1.08,1.08,0,0,0-.74-.5,1.62,1.62,0,0,0-.71-.07.47.47,0,0,0-.41.37.39.39,0,0,0,0,.13l0,.21,0,.21a.41.41,0,0,1,0,.14.33.33,0,0,1-.2.24.64.64,0,0,1-.31.07,1.39,1.39,0,0,1-.35,0l-.3-.08-.33-.12a1.31,1.31,0,0,1-.29-.17.85.85,0,0,1-.17-.25.6.6,0,0,1,0-.35.8.8,0,0,1,.4-.49,2.06,2.06,0,0,1,.76-.21,4.66,4.66,0,0,1,1,0,6.33,6.33,0,0,1,1.08.23,8.9,8.9,0,0,1,1.17.42,3.45,3.45,0,0,1,.89.54,1.81,1.81,0,0,1,.5.71,1.53,1.53,0,0,1,0,.9L89,92a.87.87,0,0,0,0,.42c0,.14.16.24.4.31a1.1,1.1,0,0,0,.38,0,1.41,1.41,0,0,0,.32-.09l.12.15A1.11,1.11,0,0,1,89.43,92.93ZM87.6,89.07a.33.33,0,0,1-.16.11,2.05,2.05,0,0,1-.37,0l-.69,0a3.29,3.29,0,0,0-.65.09,1.54,1.54,0,0,0-.51.26,1,1,0,0,0-.33.54,2.14,2.14,0,0,0-.08.34,1,1,0,0,0,0,.41.88.88,0,0,0,.23.39,1.27,1.27,0,0,0,.57.31,1.3,1.3,0,0,0,.44,0,1.1,1.1,0,0,0,.44-.11,1,1,0,0,0,.38-.32,1.55,1.55,0,0,0,.28-.56l.46-1.57Z"/><path class="cls-3" d="M96.6,85.6,94.13,94l1.12.33,0,.16-4.26-1.24,0-.17,1.12.33,2.42-8.25-1.12-.33,0-.16Z"/><path class="cls-3" d="M108.87,89.32l-.05.16L107.29,89l-1.11,3.81.13,0,6.21-2.31-1.68-.5,0-.16,3.33,1,0,.17-1.33-.39-4.53,1.69,4.19,7.05,1,.3,0,.17-5.56-1.64,0-.16,1.5.44-3.21-5.46-.13,0-1.22,4.16,1.53.45,0,.17-5.48-1.61,0-.17,1.53.45,2.39-8.13-1.54-.45,0-.17Z"/><path class="cls-3" d="M118.41,95.77,117,100.7l1.12.33,0,.17L113.77,100l0-.17,1.11.33,1.4-4.77L115.21,95l.05-.16Zm-.92-3.7a1.6,1.6,0,0,1,1.66.49.7.7,0,0,1-.35,1.19,1.45,1.45,0,0,1-.9,0,1.42,1.42,0,0,1-.76-.5.72.72,0,0,1-.18-.69A.76.76,0,0,1,117.49,92.07Z"/><path class="cls-3" d="M122.51,95.43a2.61,2.61,0,0,0,.5.2,2.82,2.82,0,0,0,.52.1,4.89,4.89,0,0,0,.54,0l-.45,1.54,1.95.57,0,.16-2-.57-1.16,4a1.47,1.47,0,0,0-.07.34.85.85,0,0,0,0,.32.66.66,0,0,0,.21.27,1.5,1.5,0,0,0,.44.21,1.46,1.46,0,0,0,.57.06,1.36,1.36,0,0,0,.46-.13,1.42,1.42,0,0,0,.38-.26,2.07,2.07,0,0,0,.28-.32l.24.11a1.41,1.41,0,0,1-.53.55,1.78,1.78,0,0,1-.66.22,2.83,2.83,0,0,1-.71,0,6.18,6.18,0,0,1-.68-.16,5.45,5.45,0,0,1-1.3-.53,1.79,1.79,0,0,1-.59-.57.77.77,0,0,1-.12-.54,3,3,0,0,1,.1-.47l1.07-3.66-1.11-.33,0-.17,1.11.33.45-1.53Z"/><path class="cls-3" d="M126.44,99.89a3,3,0,0,1,1-.64A4.69,4.69,0,0,1,129,99a5.39,5.39,0,0,1,1.83.25,6.55,6.55,0,0,1,1.12.43,3.79,3.79,0,0,1,.81.53,1.64,1.64,0,0,1,.46.59.84.84,0,0,1,.05.6.59.59,0,0,1-.44.47,1.75,1.75,0,0,1-.85-.07,2.82,2.82,0,0,1-.68-.31.44.44,0,0,1-.2-.52.71.71,0,0,1,.09-.15l.16-.23.16-.23a.71.71,0,0,0,.09-.15.46.46,0,0,0-.18-.46,1.86,1.86,0,0,0-.69-.35,1.9,1.9,0,0,0-1-.07,1.46,1.46,0,0,0-.7.38,2.33,2.33,0,0,0-.48.71,7.22,7.22,0,0,0-.33.93c-.09.31-.17.62-.23.94a2.36,2.36,0,0,0,0,.92,1.66,1.66,0,0,0,.46.81,2.35,2.35,0,0,0,1.06.57,3.37,3.37,0,0,0,1.2.16,2.67,2.67,0,0,0,.87-.18,2.24,2.24,0,0,0,.56-.34,2,2,0,0,0,.27-.29l.22.13a2.49,2.49,0,0,1-.4.39,1.8,1.8,0,0,1-.65.33,3.33,3.33,0,0,1-1,.12,5.2,5.2,0,0,1-1.36-.23,5.61,5.61,0,0,1-.6-.21,5.82,5.82,0,0,1-.81-.38,7.21,7.21,0,0,1-.85-.55,3.51,3.51,0,0,1-.71-.73,2.61,2.61,0,0,1-.42-.93,2.29,2.29,0,0,1,.07-1.12A1.94,1.94,0,0,1,126.44,99.89Z"/><path class="cls-3" d="M134.35,105.8l2.42-8.24-1.1-.32.05-.17,3.13.92-1.36,4.61h0c.06-.06.17-.14.31-.25a2.11,2.11,0,0,1,.6-.27,3.37,3.37,0,0,1,.91-.13,4.19,4.19,0,0,1,1.29.21,2.94,2.94,0,0,1,1.58,1,1.55,1.55,0,0,1,.24,1.42l-1,3.35,1.11.33-.05.16-4.18-1.22,0-.17,1,.31,1.1-3.76a.94.94,0,0,0-.07-.82,1.19,1.19,0,0,0-.7-.45,2.22,2.22,0,0,0-.81-.09,1.85,1.85,0,0,0-.76.22,2.19,2.19,0,0,0-.64.55,2.52,2.52,0,0,0-.44.9l-.75,2.55,1.05.3-.05.17-4.18-1.22.05-.17Z"/><path class="cls-3" d="M146.63,106.92a6.63,6.63,0,0,0-.21.88,1.91,1.91,0,0,0,0,.86,1.73,1.73,0,0,0,.46.76,2.68,2.68,0,0,0,1.1.57,3.26,3.26,0,0,0,1.18.15,3,3,0,0,0,.87-.19,2.14,2.14,0,0,0,.57-.33,1.1,1.1,0,0,0,.25-.29l.22.13a1.68,1.68,0,0,1-.43.4,2.21,2.21,0,0,1-.69.32,3.93,3.93,0,0,1-1,.11,4.46,4.46,0,0,1-1.29-.22,6.91,6.91,0,0,1-1.56-.66,4.29,4.29,0,0,1-1.15-.91,2.8,2.8,0,0,1-.63-1.12,2.28,2.28,0,0,1,0-1.24,2,2,0,0,1,.6-.91,3,3,0,0,1,1.07-.62,4.53,4.53,0,0,1,1.41-.24,4.91,4.91,0,0,1,1.59.21,5.29,5.29,0,0,1,1.13.47,3.94,3.94,0,0,1,.93.71,2.45,2.45,0,0,1,.56.94,1.89,1.89,0,0,1,0,1.13l-4.92-1.44Zm3.1-.72a3,3,0,0,0,.08-.32,1.2,1.2,0,0,0,0-.42.81.81,0,0,0-.23-.41,1.23,1.23,0,0,0-.58-.32,1.7,1.7,0,0,0-.93-.06,1.19,1.19,0,0,0-.6.34,1.88,1.88,0,0,0-.38.58c-.09.22-.18.43-.25.63l2.67.78Z"/><path class="cls-3" d="M153.25,111.34l1.4-4.77-1.1-.32,0-.17,3.1.91-.35,1.19h0l.33-.26a2.17,2.17,0,0,1,.61-.29,3.38,3.38,0,0,1,.93-.14,4.19,4.19,0,0,1,1.29.21,2.94,2.94,0,0,1,1.58,1,1.53,1.53,0,0,1,.24,1.42l-1,3.35,1.11.33-.05.17-4.17-1.23,0-.17,1,.31,1.1-3.76a.94.94,0,0,0-.07-.82,1.19,1.19,0,0,0-.7-.45,2.17,2.17,0,0,0-.8-.09,1.85,1.85,0,0,0-.77.22,2.19,2.19,0,0,0-.64.55,2.7,2.7,0,0,0-.44.9l-.75,2.55,1.05.31-.05.16-4.18-1.22.05-.17Z"/><path class="cls-1" d="M16,30.59s6,12,5,16,16-10,31,0c0,0-3-14,2-15s23-6,8-17-17-22-33-8c0,0-21-13-21,7,0,0-23,10,9,21"/></g></g></svg>