<svg xmlns="http://www.w3.org/2000/svg" viewBox="0 0 136.65 157.01"><defs><style>.cls-1{fill:#feb2a8;}</style></defs><g id="Layer_2" data-name="Layer 2"><g id="Layer_1-2" data-name="Layer 1"><path class="cls-1" d="M107.23,101.78l-72.31,1.29-.09-4.88,39.88-.71L34.08,56,34,49.78,64.64,80.34l41.61-33.19.11,6L68,83.94,80.68,97.37l26.46-.47Z"/><path class="cls-1" d="M14.41,17.35,2.53,28.13A7.73,7.73,0,0,0,2,39.05L19.84,58.69a7.73,7.73,0,0,0,10.92.53L42.64,48.44a7.73,7.73,0,0,0,.52-10.92L25.33,17.88A7.72,7.72,0,0,0,14.41,17.35ZM25.3,49.81a3.45,3.45,0,0,1-.23,4.85l-.1.09a3.45,3.45,0,0,1-4.85-.23L5.91,38.87A3.44,3.44,0,0,1,6.15,34l.1-.09a3.44,3.44,0,0,1,4.84.23Zm6.62-6a3.44,3.44,0,0,1-.23,4.85l-.1.09a3.44,3.44,0,0,1-4.85-.24L12.54,32.86A3.44,3.44,0,0,1,12.77,28l.1-.09a3.44,3.44,0,0,1,4.85.23Zm6.87-6.24a3.44,3.44,0,0,1-.23,4.85l-.1.09a3.45,3.45,0,0,1-4.85-.23L19.4,26.62a3.45,3.45,0,0,1,.24-4.85l.1-.09a3.45,3.45,0,0,1,4.85.23Z"/><path class="cls-1" d="M69.59,53.12a12.2,12.2,0,0,1-9.1-3.62h0C56.66,45.42,55,38.59,54,33.09a66.7,66.7,0,0,1-1.2-13.63C53,9.63,55,7.08,55.74,6.12,60,.57,69.32-1.11,75.27,2.58c4.56,2.84,6.83,8.05,6.94,16a66.31,66.31,0,0,1-2.63,18.55c-.55,2-1.25,4-1.93,5.86-.37,1-.73,2.06-1.08,3.1-.12.36-.23.74-.35,1.12-.55,1.84-1.17,3.92-3,5.15a5.85,5.85,0,0,1-3,.8Zm-8.37-4.31a11.42,11.42,0,0,0,8.94,3.3,4.66,4.66,0,0,0,2.51-.64c1.52-1,2.07-2.84,2.6-4.6.11-.39.23-.77.35-1.15.35-1,.72-2.08,1.09-3.11.67-1.88,1.36-3.83,1.91-5.79a65.84,65.84,0,0,0,2.59-18.27C81.1,11,79,6.07,74.74,3.43,69.19,0,60.51,1.56,56.53,6.73c-.62.8-2.5,3.25-2.74,12.76A66,66,0,0,0,55,32.91c1,5.36,2.6,12,6.25,15.9Z"/><path class="cls-1" d="M69.59,53.74h-.3A12.82,12.82,0,0,1,60,49.92c-3.94-4.19-5.63-11.13-6.65-16.71a66.53,66.53,0,0,1-1.21-13.77c.25-10,2.3-12.7,3.08-13.7C59.7,0,69.4-1.8,75.6,2.05c4.75,3,7.12,8.35,7.23,16.48a66.83,66.83,0,0,1-2.65,18.72c-.56,2-1.26,4-1.94,5.88-.37,1.06-.74,2.08-1.08,3.1-.12.36-.23.73-.34,1.11-.58,1.94-1.24,4.14-3.25,5.48a6.31,6.31,0,0,1-3.35.91Zm-.28-1c.29,0,.58,0,.88,0A5.3,5.3,0,0,0,73,52c1.71-1.15,2.32-3.16,2.85-4.94.12-.38.23-.76.35-1.13.35-1,.71-2.06,1.07-3.07C78,40.91,78.67,39,79.22,37a65.88,65.88,0,0,0,2.61-18.44c-.11-7.76-2.32-12.88-6.76-15.64C69.27-.7,60.2.94,56,6.35c-.72.93-2.63,3.41-2.87,13.12A66.7,66.7,0,0,0,54.36,33c1,5.44,2.64,12.2,6.4,16.21a11.84,11.84,0,0,0,8.55,3.5Zm.27-.24a11.62,11.62,0,0,1-8.64-3.43c-3.72-4-5.34-10.68-6.34-16.09a65.39,65.39,0,0,1-1.18-13.5c.24-9.63,2.17-12.15,2.81-13A14.71,14.71,0,0,1,68.14,1.22h0a13.29,13.29,0,0,1,6.8,1.89c4.37,2.71,6.54,7.76,6.65,15.43A65.9,65.9,0,0,1,79,36.92c-.55,2-1.24,3.92-1.91,5.81-.37,1-.74,2.07-1.09,3.11-.12.37-.24.75-.35,1.14-.55,1.82-1.12,3.71-2.75,4.81a5.06,5.06,0,0,1-2.7.7ZM67.86,2.21A13.92,13.92,0,0,0,57,7.11c-.59.76-2.38,3.09-2.61,12.39a64.77,64.77,0,0,0,1.16,13.3c1,5.28,2.55,11.82,6.09,15.59a10.83,10.83,0,0,0,8.47,3.1A4.11,4.11,0,0,0,72.32,51c1.34-.9,1.85-2.61,2.35-4.27.12-.39.24-.79.36-1.17.35-1,.72-2.09,1.08-3.1.68-1.9,1.37-3.83,1.91-5.77a64.94,64.94,0,0,0,2.57-18.09c-.1-7.31-2.12-12.08-6.18-14.6a12.25,12.25,0,0,0-6.29-1.74Z"/><path class="cls-1" d="M68.48,52.32c-2.33,0-4.52-1.92-5.53-3.64h0c-2.32-4-3.29-10.6-3.87-16a101.9,101.9,0,0,1-.64-13.28c.21-9.57,1.42-12,1.88-13A9.49,9.49,0,0,1,66.92,1a6.56,6.56,0,0,1,5.8,1.87c2.78,2.75,4.14,7.82,4.15,15.5a91.82,91.82,0,0,1-1.53,17.13c-.25,1.3-.47,2.6-.69,3.89-.38,2.24-.77,4.54-1.28,6.8l-.07.3c-.43,1.91-1,4.53-3.14,5.48A4.07,4.07,0,0,1,68.48,52.32Zm-4.67-4.15c1,1.77,3.63,3.91,5.94,2.88,1.67-.74,2.17-3,2.57-4.79l.07-.3c.5-2.23.89-4.52,1.27-6.74.22-1.31.45-2.61.69-3.91a90.73,90.73,0,0,0,1.52-17C75.86,11,74.6,6.12,72,3.58A5.55,5.55,0,0,0,67.08,2,8.48,8.48,0,0,0,61.22,6.9c-.39.8-1.57,3.23-1.78,12.57a101.55,101.55,0,0,0,.63,13.15c.58,5.25,1.52,11.76,3.74,15.55Z"/><path class="cls-1" d="M68.48,52.94h-.09c-2.54,0-4.88-2.08-6-3.95C60,44.94,59.06,38.21,58.47,32.8a103.34,103.34,0,0,1-.65-13.37c.22-9.7,1.47-12.27,2-13.23a10.1,10.1,0,0,1,7-5.82,7.15,7.15,0,0,1,6.34,2c2.91,2.87,4.33,8.08,4.34,15.94a92.32,92.32,0,0,1-1.55,17.25c-.24,1.26-.45,2.55-.67,3.79v.11c-.39,2.23-.78,4.54-1.29,6.8l-.07.3c-.45,2-1.08,4.84-3.49,5.92A4.74,4.74,0,0,1,68.48,52.94Zm-.07-1A3.62,3.62,0,0,0,70,51.62c2-.88,2.52-3.39,2.93-5.22l.06-.31c.51-2.24.9-4.53,1.28-6.75l.51,0-.49-.09c.21-1.25.43-2.54.67-3.81a91.14,91.14,0,0,0,1.53-17.06c0-7.58-1.33-12.56-4-15.22A6.13,6.13,0,0,0,67,1.37a9.15,9.15,0,0,0-6.32,5.26C60.22,7.55,59,10,58.82,19.46a101.16,101.16,0,0,0,.64,13.23C60,38,61,44.6,63.28,48.48c1,1.69,3.07,3.42,5.13,3.46Zm.09-.24c-2.08,0-4.12-1.8-5-3.34C61.22,44.52,60.27,38,59.69,32.67a102.53,102.53,0,0,1-.63-13.21C59.27,10,60.48,7.55,60.87,6.74A8.91,8.91,0,0,1,67,1.6a6.26,6.26,0,0,1,1.14-.09h0A6,6,0,0,1,72.28,3.3c2.66,2.62,4,7.55,4,15.06a91.56,91.56,0,0,1-1.53,17c-.24,1.27-.46,2.55-.67,3.8l0,.1c-.38,2.23-.77,4.53-1.28,6.76l-.06.3c-.42,1.89-.94,4.24-2.79,5.06A3.41,3.41,0,0,1,68.5,51.7ZM68.05,2.51a5,5,0,0,0-.86.08,7.87,7.87,0,0,0-5.42,4.59c-.37.76-1.51,3.1-1.71,12.31a100.44,100.44,0,0,0,.63,13.07c.56,5.19,1.49,11.61,3.65,15.3,1,1.64,3.28,3.46,5.16,2.63,1.39-.62,1.85-2.7,2.22-4.36l.07-.31c.5-2.21.89-4.49,1.26-6.7l0-.11c.22-1.25.44-2.54.68-3.82a90.29,90.29,0,0,0,1.51-16.83C75.24,11.13,74,6.44,71.58,4a5,5,0,0,0-3.44-1.51h-.09Z"/><path class="cls-1" d="M67.86,52c-2.43-5.08-.33-48.84-.24-50.7l1,.05c-.76,15.67-1.71,46.34.14,50.22Z"/><path class="cls-1" d="M67.51,52.68l-.21-.45c-2.46-5.14-.53-46.32-.3-51l0-.5,2.25.11,0,.5c-.88,18.15-1.59,46.43.08,49.92l.22.46ZM68,1.78c-.73,15.35-1.6,44.1,0,49.55l.22-.1c-2-6.43-.26-44.37,0-49.44Z"/><rect class="cls-1" x="65.36" y="50.21" width="4.88" height="33.18" rx="2.44" transform="translate(133.29 135.87) rotate(-178.04)"/><path class="cls-1" d="M128.81,49.66c-1.9,2.55-4.81,6.35-10,7.85-5,1.44-11.79.67-16.37-4.13C97.3,48,98.13,41,98.33,39.58c.89-6.21,5-10,7.9-12.59,6.89-6.15,20.71-13.38,27.11-8.22C140,24.15,135.59,40.55,128.81,49.66Z"/><path class="cls-1" d="M101.64,149.57a22.31,22.31,0,0,1-17,7.44v-4.88a18.39,18.39,0,0,0,13.78-6,20,20,0,0,0,5.73-14.39A25.63,25.63,0,0,0,99.32,116q-4.87-6.47-11.83-6.46-6,0-10,5.73t-4.87,15.12Q71.65,142,66,149t-13.78,6.95q-8.05,0-13.78-7.07a26.28,26.28,0,0,1-5.73-17.08,29.11,29.11,0,0,1,6-18.41q6-7.56,14.39-7.56v4.87c-4.31,0-8,2.08-11.1,6.22a24,24,0,0,0-4.63,14.88,21.78,21.78,0,0,0,4.39,13.66Q46,151,52.25,151t10.24-5.85q4.16-6,5-15.74,1-11.2,6.47-18t13.53-6.71q8.79,0,15,7.92t6.22,19.15A24.65,24.65,0,0,1,101.64,149.57Z"/></g></g></svg>