<svg xmlns="http://www.w3.org/2000/svg" viewBox="0 0 51.78 69.47"><defs><style>.cls-1{fill:#ef4925;}.cls-2{fill:#64873e;}.cls-3{fill:#161616;}</style></defs><g id="Layer_2" data-name="Layer 2"><g id="Layer_1-2" data-name="Layer 1"><g id="Group_53" data-name="Group 53"><path id="Path_408" data-name="Path 408" class="cls-1" d="M44.76,17.7c3.55,1.89,8,8.4,6.83,17.46C49.77,49,41.09,62.48,37.12,65.9c-5.85,5-14.27,5.18-21.54-2.32C8.6,56.38,3.35,48.39.73,39.28A20.24,20.24,0,0,1,2.28,24.57a19.46,19.46,0,0,1,2.1-2.92c.8,4.38,3.47,2.66,9.74-.12a16.77,16.77,0,0,0,.78,2.94c1.25,2.61,4,3,6.06.77a32.15,32.15,0,0,0,2.18-2.89c.5-.68.7-1.54,1.85-2,6.69,3.91,7.54,4.22,9.12,4.39,2,.21,3.3-1.07,2.79-2.78-.15-.47-.46-.9-.61-1.37a6.44,6.44,0,0,1-.14-1.23C41.08,20.3,42.81,21.05,44.76,17.7Z"/><path id="Path_409" data-name="Path 409" class="cls-2" d="M46.66,19.44c-2.11,2.9-4,2.25-9.27,1.45A4.75,4.75,0,0,0,37.54,22c.17.41.5.78.65,1.19.81,2.15-2.26,3.16-5.63,1.8-1.9-.76-5.24-2.29-7.18-3.19-1.24.38-1.46,1.13-2,1.71A27.68,27.68,0,0,1,21,26c-2.23,1.89-5.18,1.59-6.52-.67a11.85,11.85,0,0,1-.85-2.54c-6.72,2.4-9.62,3.89-10.48.11C6.94,17.08,20.45,14.63,24,14c3.74,0,7.52-.73,16.53,1.54C43.3,16.22,45.81,17.29,46.66,19.44Z"/><path id="Path_410" data-name="Path 410" class="cls-3" d="M24.33,1c2-2.24,6.11-.18,4.71,1.94-.74,1.12-3.89,4.82-5,9.33l-3.15.94C20.81,10.89,22.21,3.34,24.33,1Z"/><path id="Path_411" data-name="Path 411" class="cls-3" d="M20.63,45a8.6,8.6,0,0,1,.15-.86,1.26,1.26,0,0,1,1.55-.88l.13,0c1.57.67,2.11,2,4,.85,1.3-.77,3.05-1.2,3.4.28.5,2.16-2.65,7.64-5.45,6.09A7.31,7.31,0,0,1,20.63,45Z"/><path id="Path_412" data-name="Path 412" class="cls-3" d="M31.57,36.35c-.27,1.11-.31,2.18-1.49,2.25s-2-1.58-.85-3.33a1.19,1.19,0,0,1,2,.09A4.91,4.91,0,0,1,31.57,36.35Z"/><path id="Path_413" data-name="Path 413" class="cls-3" d="M21.33,37.28c0,1.89-1.7,2.11-2.49,1a1.94,1.94,0,0,1,.1-2.33,1.25,1.25,0,0,1,1.76-.19,1.41,1.41,0,0,1,.33.4A6.38,6.38,0,0,1,21.33,37.28Z"/><path id="Path_414" data-name="Path 414" class="cls-3" d="M11.71,30.4c.06-.12.17-.38.31-.61s.66-.2.71,0c.12.68.21,1.36.27,2.05,0,.07-.18.21-.3.24C12.17,32.26,11.69,31.56,11.71,30.4Z"/><path id="Path_415" data-name="Path 415" class="cls-3" d="M31.12,56c0,1.1-.29,1.69-.75,1.56s-.59-.61-.47-1.46.84-1,1.05-.59A2.84,2.84,0,0,1,31.12,56Z"/><path id="Path_416" data-name="Path 416" class="cls-3" d="M3.88,36c-.16.25-.28.56-.37.55-1.33-.13-1.34-2.13-.64-2.29S3.48,34.73,3.88,36Z"/><path id="Path_417" data-name="Path 417" class="cls-3" d="M31.85,63.66c.16.17.41.32.41.46a6.82,6.82,0,0,1-.18,1.42c-.07.31-.72.61-.83.44-.25-.38-.42-.76.09-2C31.4,63.88,31.64,63.8,31.85,63.66Z"/><path id="Path_418" data-name="Path 418" class="cls-3" d="M39.73,59.26c-.41,1-.51,1.67-1.09,1.54-1-.21,0-2.27.58-2A3.1,3.1,0,0,1,39.73,59.26Z"/><path id="Path_419" data-name="Path 419" class="cls-3" d="M48.16,32.75c.39-.58.94-.39,1,.14.2,1.13-.19,1.77-.65,1.66C47.88,34.4,47.87,33.19,48.16,32.75Z"/><path id="Path_420" data-name="Path 420" class="cls-3" d="M14.15,56.74c-.21,0-.37,0-.47-.05a1.51,1.51,0,0,1-.77-1.56c0-.13.13-.31.22-.33s.5,0,.57.05a9.78,9.78,0,0,1,.72,1.45C14.46,56.41,14.23,56.61,14.15,56.74Z"/><path id="Path_421" data-name="Path 421" class="cls-3" d="M39.91,51.09c-.56.21-.94-1.59.22-2.06C40.65,48.81,41.07,50.64,39.91,51.09Z"/><path id="Path_422" data-name="Path 422" class="cls-3" d="M39,38.21a1,1,0,0,1,.35,1.43,1.3,1.3,0,0,1-.1.15c-.44.57-1.58-.65-.63-1.48C38.69,38.23,38.85,38.24,39,38.21Z"/><path id="Path_423" data-name="Path 423" class="cls-3" d="M37.94,31.3a2.13,2.13,0,0,1-.13.45c-.06.11-.19.25-.29.25a.78.78,0,0,1-.53-.17c-.57-.76-.3-1.87.21-1.94S37.8,30.57,37.94,31.3Z"/><path id="Path_424" data-name="Path 424" class="cls-3" d="M21.74,61.94c-.2.18-.34.37-.5.4a.6.6,0,0,1-.52-.17c-.67-1.4.36-1.61.64-1.17A4.75,4.75,0,0,1,21.74,61.94Z"/><path id="Path_425" data-name="Path 425" class="cls-3" d="M14.5,49.36c.19.07.37.07.43.16.7,1,.41,1.6.05,1.56-.73-.08-.89-.59-.86-1.33C14.12,49.61,14.38,49.48,14.5,49.36Z"/><path id="Path_426" data-name="Path 426" class="cls-3" d="M11.32,41.5c-.14.17-.25.4-.4.44a.67.67,0,0,1-.54-.15c-.86-.79.38-1.83.71-1.07A7,7,0,0,1,11.32,41.5Z"/><path id="Path_427" data-name="Path 427" class="cls-3" d="M47.51,43.55a2,2,0,0,1,0,.49c-.24.84-.95,1-1.18.67s-.07-.76.13-1.11a.67.67,0,0,1,.67-.36A1.61,1.61,0,0,1,47.51,43.55Z"/><path id="Path_428" data-name="Path 428" class="cls-3" d="M4.93,46.67c.19,0,.37,0,.44.1,1.58,2-1,1.69-.75.34C4.66,46.94,4.83,46.8,4.93,46.67Z"/><path id="Path_429" data-name="Path 429" class="cls-3" d="M26.57,66.64A.5.5,0,0,1,26,67h0c-1.23-.6-.58-1.9,0-1.56A1.19,1.19,0,0,1,26.57,66.64Z"/><path id="Path_430" data-name="Path 430" class="cls-3" d="M46.24,24.45c.84-.14,1.07.75.54,1a.55.55,0,0,1-.72-.3A.57.57,0,0,1,46,25,1.41,1.41,0,0,1,46.24,24.45Z"/></g></g></g></svg>