<svg xmlns="http://www.w3.org/2000/svg" viewBox="0 0 1206.52 322.48"><defs><style>.cls-1,.cls-2,.cls-3{isolation:isolate;}.cls-2{font-size:79.17px;font-family:Krungthep;letter-spacing:0em;}.cls-2,.cls-3,.cls-4{fill:#fe9c8f;}.cls-3{font-size:158.35px;font-family:LiGothicMed, Apple LiGothic;letter-spacing:0em;}</style></defs><g id="Layer_2" data-name="Layer 2"><g id="Layer_1-2" data-name="Layer 1"><g id="SocialKitchen" class="cls-1"><text class="cls-2" transform="translate(401.87 290.25) scale(0.76 1)">SocialKitchen</text></g><text class="cls-3" transform="translate(557.37 131.9) scale(0.76 1)">Sk</text><path class="cls-4" d="M495.75,95.73q-31.61-18.58-64.63-34.56C420.67,56.12,410,50.69,398.59,48.29a48,48,0,0,0-28.84,2.55c-17.57,7.41-29.91,23.11-42.5,36.75-13.41,14.53-33.6,31.38-54.94,26.24C254.1,109.45,244.67,91,232.6,78.45a54.9,54.9,0,0,0-41.79-17.07c-15.18.43-30.47,6.36-41.29,17.14-6.06,6-9.76,13.21-12.9,21.08-3.61,9.07-7.91,17.35-17.07,21.78-15.46,7.49-35.26,2.13-49.7-5.29C51.94,106.89,36,93,15.84,88.74a52.79,52.79,0,0,0-14.4-1.08c-1.91.12-1.93,3.13,0,3,21.35-1.37,39.64,11.85,57,22.37,14.71,8.9,31.47,16.24,49.09,14.56,7.66-.73,15.1-3.36,20.86-8.59,7.54-6.85,9.77-16.72,14.06-25.55,6.88-14.21,20.74-23.73,35.85-27.39s31.79-1.56,44.49,7.67c14.38,10.44,21.92,27.9,36.84,37.76a37.07,37.07,0,0,0,25.64,5.85c10-1.38,19.15-6.29,27.14-12.22,16.15-12,27.32-29.11,42.84-41.8,7.24-5.92,15.55-10.77,24.82-12.53,11.57-2.19,23.15,1.18,33.75,5.66,11.16,4.72,22,10.27,32.82,15.78S468,83.4,478.56,89.3q7.88,4.42,15.68,9a1.5,1.5,0,0,0,1.51-2.59Z"/><path class="cls-4" d="M712.28,97.83q31.61-18.57,64.63-34.56c10.49-5.07,21.16-10.5,32.69-12.75a45,45,0,0,1,30.19,4.58c17.41,9.28,28.72,26,42.52,39.45,13.67,13.33,33,26.68,53.07,21.59,17.69-4.48,27.27-21.4,38.74-34,5.66-6.23,12.08-11.49,20-14.59a55.2,55.2,0,0,1,22.83-3.6c15.37.74,30.74,7.45,40.79,19.28,6.3,7.41,8.64,16.55,12.9,25.09a32.71,32.71,0,0,0,17.42,16.3c15.39,6.07,33.73,1.5,48.06-5.37,18.22-8.75,33.84-22.93,53.88-27.75a50.49,50.49,0,0,1,15.1-1.32c1.93.13,1.92-2.87,0-3-20.76-1.33-38.81,10.71-55.75,21.08-15.26,9.36-32.21,17.73-50.68,15.82-8.26-.85-16.16-4.34-21.46-10.89-6.28-7.76-7.88-18.14-13.2-26.49-8.23-12.91-22.23-21.41-37.07-24.48s-31.1-.94-43.75,7.74C968.48,80,960.93,97.41,946.44,107.66a34.71,34.71,0,0,1-27.83,5.7c-10.5-2.32-19.88-8.4-28-15.27-15-12.78-26-29.7-42.26-41.19-7.39-5.23-15.75-9-24.8-10-11.13-1.25-22.1,2.12-32.24,6.42-11.07,4.7-21.85,10.19-32.57,15.64q-16.34,8.31-32.31,17.29-7.89,4.43-15.69,9a1.5,1.5,0,0,0,1.52,2.59Z"/></g></g></svg>