<svg xmlns="http://www.w3.org/2000/svg" viewBox="0 0 205.62 150.46"><defs><style>.cls-1{fill:none;stroke-width:0.52px;}.cls-1,.cls-3,.cls-4{stroke:#fad9c1;}.cls-1,.cls-2,.cls-3,.cls-4{stroke-miterlimit:10;}.cls-2{stroke:#000;}.cls-3{fill:#fe9c8f;}.cls-4{fill:#fff;}</style></defs><g id="Layer_2" data-name="Layer 2"><g id="Layer_1-2" data-name="Layer 1"><text/><path class="cls-1" d="M138.66,82.25c-5.55-5.47-8.15-15.21-9.68-22a91.66,91.66,0,0,1-2.36-18.66c-.18-13.23,2.26-16.84,3.24-18.22,5.46-7.69,17.78-10.38,25.94-5.73,7.59,4.31,9.68,13,10.1,21.14a90.71,90.71,0,0,1-2.63,25.63c-1,4.25-2.46,8.33-3.67,12.51-.88,3-1.32,6.51-4,8.49a7.23,7.23,0,0,1-3.78,1.14C147,86.9,142.14,85.68,138.66,82.25Z"/><path class="cls-1" d="M150.58,87.46a17,17,0,0,1-12.52-4.59c-5.55-5.47-8.22-14.87-9.92-22.45a92.65,92.65,0,0,1-2.38-18.84c-.19-13.68,2.42-17.35,3.4-18.73,5.66-8,18.56-10.82,27.07-6,6.51,3.71,10,10.85,10.54,21.85a92.11,92.11,0,0,1-2.66,25.86c-.66,2.8-1.52,5.55-2.36,8.22-.44,1.42-.9,2.89-1.33,4.34L160,78.71c-.67,2.61-1.43,5.56-3.94,7.38a8.09,8.09,0,0,1-4.23,1.3C151.41,87.43,151,87.45,150.58,87.46ZM146.22,16.2c-6.07.12-12.27,2.89-15.66,7.65-.8,1.14-3.25,4.59-3.08,17.7A91.27,91.27,0,0,0,129.82,60c1.65,7.35,4.22,16.44,9.45,21.6h0c3,3,7.44,4.42,12.43,4a6.25,6.25,0,0,0,3.34-1c2-1.46,2.66-4,3.29-6.42.14-.55.28-1.09.44-1.62.43-1.47.89-3,1.34-4.38.82-2.63,1.68-5.36,2.32-8.09A90.22,90.22,0,0,0,165,38.81c-.54-10.36-3.7-17-9.67-20.44A17.67,17.67,0,0,0,146.22,16.2Z"/><path class="cls-1" d="M142.12,81.11c-3.44-5.39-5.11-14.94-6.1-21.6a140.12,140.12,0,0,1-1.58-18.26c-.21-12.93,1.26-16.45,1.85-17.78,3.29-7.48,10.83-10,15.87-5.42,4.68,4.28,6,12.81,6.35,20.75a126.61,126.61,0,0,1-1.21,23.67c-.74,5-1.24,9.94-2.15,14.87-.49,2.66-1,6.34-3.76,7.68C147.94,86.72,143.92,83.92,142.12,81.11Z"/><path class="cls-1" d="M149.29,86.4c-3.25.06-6.39-2.49-7.89-4.83C138,76.2,136.27,67,135.18,59.64a141.55,141.55,0,0,1-1.6-18.38c-.21-13.29,1.34-16.81,1.93-18.14,1.86-4.23,5.21-7.23,9-8a9.17,9.17,0,0,1,8.27,2.32c4,3.68,6.2,10.66,6.63,21.34a127.07,127.07,0,0,1-1.21,23.83c-.27,1.81-.51,3.65-.74,5.43-.41,3.11-.83,6.32-1.42,9.47l-.08.42c-.49,2.71-1.17,6.42-4.14,7.88A5.92,5.92,0,0,1,149.29,86.4Zm-3-69.8a8.07,8.07,0,0,0-1.45.17c-3.2.68-6.09,3.31-7.74,7-.49,1.12-2,4.51-1.78,17.42a139.91,139.91,0,0,0,1.58,18.16c1.07,7.22,2.72,16.16,6,21.25h0c1.5,2.35,5.13,5.11,8.17,3.62,2.21-1.09,2.77-4.18,3.22-6.66l.08-.42c.58-3.11,1-6.3,1.4-9.39.23-1.78.48-3.63.75-5.45a126.19,126.19,0,0,0,1.2-23.51c-.42-10.2-2.4-16.79-6.08-20.15A7.65,7.65,0,0,0,146.26,16.6Z"/><path class="cls-1" d="M146.18,15.6s-.64,63,2.95,69.84"/><path class="cls-1" d="M148.36,85.84c-3.64-6.94-3.07-67.67-3.05-70.25l1.73,0c-.22,21.72.09,64.18,2.85,69.43Z"/><path class="cls-2" d="M102.9,13,80.71,14.11a10.69,10.69,0,0,0-10.18,11.2L72.28,62A10.71,10.71,0,0,0,83.49,72.22l22.19-1.07A10.69,10.69,0,0,0,115.86,60l-1.75-36.72A10.71,10.71,0,0,0,102.9,13Zm-17,44.31a4.76,4.76,0,0,1-4.52,5h-.19a4.76,4.76,0,0,1-5-4.52l-1.4-29.25a4.76,4.76,0,0,1,4.52-5h.19a4.76,4.76,0,0,1,5,4.52Zm12.38-.6a4.78,4.78,0,0,1-4.52,5h-.19a4.78,4.78,0,0,1-5-4.52L87.23,28a4.76,4.76,0,0,1,4.52-5h.19a4.77,4.77,0,0,1,5,4.52Zm12.84-.61a4.76,4.76,0,0,1-4.52,5h-.19a4.77,4.77,0,0,1-5-4.52l-1.4-29.24a4.78,4.78,0,0,1,4.52-5h.19a4.78,4.78,0,0,1,5,4.52Z"/><polygon class="cls-3" points="170.26 135.74 170.26 92.29 39.93 52.19 39.93 95.63 170.26 135.74"/><polygon class="cls-3" points="204.25 149.6 177.04 142.78 177.51 110.12 204.5 113.99 187.93 130.09 204.25 149.6"/><polygon class="cls-3" points="5.15 88.95 33.33 82 32.97 48.2 5.03 52.1 22.11 68.82 5.15 88.95"/><path class="cls-4" d="M42.25,78.43c0,.14,0,.31,0,.53a4.06,4.06,0,0,0,.08.73,5.44,5.44,0,0,0,.24.84,3.47,3.47,0,0,0,.47.86,3.57,3.57,0,0,0,.67.79,4.6,4.6,0,0,0,.68.49A3.78,3.78,0,0,0,45,83l.61.18a4.53,4.53,0,0,0,1.69.22A2.79,2.79,0,0,0,48.52,83a2.34,2.34,0,0,0,1.1-1.3,1.37,1.37,0,0,0,0-1,2.59,2.59,0,0,0-.68-.87,7.19,7.19,0,0,0-1.11-.78l-1.31-.76c-.45-.26-.88-.54-1.3-.83a5.82,5.82,0,0,1-1.05-1,3.24,3.24,0,0,1-.59-1.19,2.86,2.86,0,0,1,.08-1.49,2.41,2.41,0,0,1,.69-1.09A3.45,3.45,0,0,1,45.52,72a5.2,5.2,0,0,1,1.64-.3,5.9,5.9,0,0,1,1.87.26,5.73,5.73,0,0,1,1.06.41c.29.15.55.3.76.43s.41.26.57.38a1.9,1.9,0,0,0,.47.24.59.59,0,0,0,.36,0,.8.8,0,0,0,.25-.2l.3.08-.86,2.94-.24-.07c0-.41-.1-.81-.16-1.21a4.12,4.12,0,0,0-.37-1.14,3.09,3.09,0,0,0-.78-1A3.87,3.87,0,0,0,49,72.15a4.34,4.34,0,0,0-1.36-.21,3.29,3.29,0,0,0-1.09.16,2.24,2.24,0,0,0-.78.44,1.44,1.44,0,0,0-.41.64,1.32,1.32,0,0,0,.08,1,3.38,3.38,0,0,0,.73.87,7.23,7.23,0,0,0,1.15.81l1.36.82c.46.28.91.57,1.34.87a5.57,5.57,0,0,1,1.1,1,3.24,3.24,0,0,1,.64,1.16,2.4,2.4,0,0,1,0,1.4,3,3,0,0,1-.79,1.32,3.8,3.8,0,0,1-1.4.88,5.65,5.65,0,0,1-1.86.34,7,7,0,0,1-2.19-.32,7.44,7.44,0,0,1-1.11-.42c-.37-.18-.7-.34-1-.51s-.58-.31-.82-.45a4,4,0,0,0-.54-.26.84.84,0,0,0-.39,0,.63.63,0,0,0-.29.23l-.3-.09,1-3.43Z"/><path class="cls-4" d="M60.77,80.47A4.94,4.94,0,0,1,62,81.66a3.53,3.53,0,0,1,.63,1.4,2.85,2.85,0,0,1,0,1.45,2.93,2.93,0,0,1-.74,1.26,3.79,3.79,0,0,1-1.29.84,5.17,5.17,0,0,1-1.67.34A6,6,0,0,1,57,86.7a5.87,5.87,0,0,1-1.71-.81,5.14,5.14,0,0,1-1.23-1.18,3.83,3.83,0,0,1-.63-1.4,3.05,3.05,0,0,1,.06-1.47,2.91,2.91,0,0,1,.74-1.25,3.46,3.46,0,0,1,1.29-.83,5.17,5.17,0,0,1,1.67-.35,6,6,0,0,1,1.88.25A5.75,5.75,0,0,1,60.77,80.47Zm-2.5,6.07A1.78,1.78,0,0,0,59.1,86a3.35,3.35,0,0,0,.55-1c.15-.39.29-.8.41-1.21s.22-.82.31-1.22a3.69,3.69,0,0,0,.06-1.13,1.75,1.75,0,0,0-.38-.93,2.06,2.06,0,0,0-1-.62,2.1,2.1,0,0,0-1.23-.05,1.9,1.9,0,0,0-.82.58,3.42,3.42,0,0,0-.55,1c-.15.39-.28.79-.41,1.2s-.22.82-.31,1.23A3.76,3.76,0,0,0,55.61,85a1.76,1.76,0,0,0,.39.93,2.13,2.13,0,0,0,1,.62A2.06,2.06,0,0,0,58.27,86.54Z"/><path class="cls-4" d="M64.51,83.79a3.57,3.57,0,0,1,1.21-.88,5.18,5.18,0,0,1,1.69-.44,5.51,5.51,0,0,1,2.07.24,7.23,7.23,0,0,1,1.25.5,4.25,4.25,0,0,1,.89.64,2.08,2.08,0,0,1,.5.73,1.2,1.2,0,0,1,0,.77.84.84,0,0,1-.52.63,1.71,1.71,0,0,1-1-.06,2.18,2.18,0,0,1-.75-.36.55.55,0,0,1-.21-.65,1.08,1.08,0,0,1,.11-.21l.19-.29.19-.3a.84.84,0,0,0,.11-.2.56.56,0,0,0-.18-.58,1.79,1.79,0,0,0-.76-.42,2,2,0,0,0-1.14,0,1.74,1.74,0,0,0-.81.53,3.07,3.07,0,0,0-.58.93,12.21,12.21,0,0,0-.43,1.21c-.11.4-.21.81-.29,1.22a3.19,3.19,0,0,0,0,1.19,2.1,2.1,0,0,0,.48,1,2.39,2.39,0,0,0,1.17.68,3.33,3.33,0,0,0,1.35.15,3,3,0,0,0,1-.28,2.58,2.58,0,0,0,.65-.46,2.39,2.39,0,0,0,.32-.39l.24.16a3.11,3.11,0,0,1-.47.52,2,2,0,0,1-.75.45A3.41,3.41,0,0,1,69,90a5,5,0,0,1-1.54-.23l-.67-.24a6.28,6.28,0,0,1-.9-.45,7.72,7.72,0,0,1-.93-.67,3.71,3.71,0,0,1-.77-.9,3.09,3.09,0,0,1-.43-1.18,3.29,3.29,0,0,1,.13-1.43A2.81,2.81,0,0,1,64.51,83.79Z"/><path class="cls-4" d="M77.33,85.25l-1.87,6.41L76.7,92l-.06.22-4.77-1.4.06-.22,1.25.37L75,84.8l-1.25-.37.06-.21Zm-.87-4.7a1.46,1.46,0,0,1,1,0,1.48,1.48,0,0,1,.84.6,1,1,0,0,1,.16.88,1,1,0,0,1-.61.66,1.46,1.46,0,0,1-1,0,1.44,1.44,0,0,1-.84-.6,1,1,0,0,1-.16-.88A1,1,0,0,1,76.46,80.55Z"/><path class="cls-4" d="M85.72,95.05a6.2,6.2,0,0,1-.94-.21,2.79,2.79,0,0,1-1.32-.69,1.23,1.23,0,0,1-.35-.94h0a1.7,1.7,0,0,1-1.07.6,4.4,4.4,0,0,1-1.57-.23,6,6,0,0,1-.89-.34,4.1,4.1,0,0,1-.79-.5,1.73,1.73,0,0,1-.49-.66,1.21,1.21,0,0,1,0-.8,1.34,1.34,0,0,1,.43-.69,2.14,2.14,0,0,1,.71-.35,4.09,4.09,0,0,1,.89-.11h1c.55,0,1,.05,1.34.05a3.1,3.1,0,0,0,.81-.06.87.87,0,0,0,.46-.23,1,1,0,0,0,.25-.45l.27-.94a1.28,1.28,0,0,0,0-.82c-.09-.28-.36-.48-.81-.61a1.68,1.68,0,0,0-.79-.06.63.63,0,0,0-.49.5,1.09,1.09,0,0,0,0,.17c0,.08,0,.17,0,.27a2.51,2.51,0,0,0,0,.27,1.3,1.3,0,0,1,0,.18.54.54,0,0,1-.24.32.75.75,0,0,1-.36.1,1.11,1.11,0,0,1-.4,0l-.32-.08-.38-.14a.77.77,0,0,1-.31-.21.65.65,0,0,1-.18-.31.71.71,0,0,1,0-.45,1.05,1.05,0,0,1,.48-.64,2.09,2.09,0,0,1,.87-.31,4.52,4.52,0,0,1,1.11,0,6.64,6.64,0,0,1,1.21.24,10.53,10.53,0,0,1,1.31.48,3.37,3.37,0,0,1,1,.66,2.1,2.1,0,0,1,.53.88,2,2,0,0,1,0,1.15l-1.12,3.83a1.33,1.33,0,0,0,0,.55c0,.17.18.29.45.37a.91.91,0,0,0,.42,0,1.33,1.33,0,0,0,.37-.12l.13.19A1.15,1.15,0,0,1,85.72,95.05Zm-1.88-4.86a.72.72,0,0,1-.19.14,2.08,2.08,0,0,1-.42.08l-.79.07a2.43,2.43,0,0,0-.73.14,1.66,1.66,0,0,0-.6.36,1.48,1.48,0,0,0-.4.71,3.24,3.24,0,0,0-.1.44,1.3,1.3,0,0,0,0,.52,1.08,1.08,0,0,0,.25.5,1.23,1.23,0,0,0,.62.36,1.4,1.4,0,0,0,.5,0,1.35,1.35,0,0,0,.5-.17,1.27,1.27,0,0,0,.45-.42,2.36,2.36,0,0,0,.34-.73l.6-2Z"/><path class="cls-4" d="M94.2,85.3,91,96.21l1.25.37-.07.21L87.41,95.4l.07-.22,1.24.37,3.14-10.7-1.25-.37.07-.22Z"/><path class="cls-4" d="M107.93,89.47l-.06.22-1.72-.5-1.45,4.94.15,0L112,90.9l-1.88-.55.06-.21,3.73,1.09-.06.21L112.36,91l-5.22,2.39,4.41,8.84,1.16.34-.06.21L106.42,101l.07-.22,1.67.49-3.37-6.85-.15,0-1.58,5.41,1.71.5-.06.22-6.13-1.8.06-.22,1.71.5,3.1-10.56-1.72-.5.07-.21Z"/><path class="cls-4" d="M118.43,97.3l-1.88,6.4,1.25.37-.07.22-4.77-1.4.07-.22,1.25.37,1.81-6.19-1.25-.37.07-.22Zm-.87-4.7a1.45,1.45,0,0,1,1,0,1.47,1.47,0,0,1,.83.59,1,1,0,0,1-.45,1.55,1.51,1.51,0,0,1-1,0,1.47,1.47,0,0,1-.83-.6,1,1,0,0,1-.17-.88A1,1,0,0,1,117.56,92.6Z"/><path class="cls-4" d="M123.09,96.67a3.22,3.22,0,0,0,.55.23,2.91,2.91,0,0,0,.59.1c.21,0,.41,0,.61,0l-.58,2,2.18.64-.06.21-2.18-.64-1.52,5.17a4.47,4.47,0,0,0-.09.45,1.33,1.33,0,0,0,0,.4.76.76,0,0,0,.23.34,1.34,1.34,0,0,0,.48.25,1.48,1.48,0,0,0,.65,0,1.68,1.68,0,0,0,.53-.19,1.79,1.79,0,0,0,.43-.35,4.18,4.18,0,0,0,.34-.42l.26.13a1.89,1.89,0,0,1-.62.73,2,2,0,0,1-.76.3,2.38,2.38,0,0,1-.8,0,5.35,5.35,0,0,1-.76-.16,4.89,4.89,0,0,1-1.45-.63,2,2,0,0,1-.65-.69,1.13,1.13,0,0,1-.11-.69c0-.22.09-.42.14-.61l1.39-4.75-1.25-.37.07-.22,1.25.37.58-2C122.74,96.46,122.91,96.57,123.09,96.67Z"/><path class="cls-4" d="M127.33,102.2a3.84,3.84,0,0,1,1.22-.87,5.06,5.06,0,0,1,1.68-.44,5.47,5.47,0,0,1,2.07.24,6.26,6.26,0,0,1,1.25.5,4,4,0,0,1,.9.64,2,2,0,0,1,.49.73,1.27,1.27,0,0,1,0,.77.85.85,0,0,1-.53.63,1.72,1.72,0,0,1-1-.06,2.37,2.37,0,0,1-.75-.36.55.55,0,0,1-.2-.66,1.1,1.1,0,0,1,.11-.2q.09-.14.18-.3l.19-.29a.85.85,0,0,0,.11-.21.57.57,0,0,0-.18-.58,1.73,1.73,0,0,0-.76-.41,2,2,0,0,0-1.14,0,1.85,1.85,0,0,0-.81.52,3.48,3.48,0,0,0-.58.94,11.39,11.39,0,0,0-.42,1.21c-.12.4-.22.81-.3,1.22a3.14,3.14,0,0,0,0,1.18,2,2,0,0,0,.47,1,2.28,2.28,0,0,0,1.18.68,3.54,3.54,0,0,0,1.35.16,3,3,0,0,0,1-.28,2.41,2.41,0,0,0,.65-.46,2.6,2.6,0,0,0,.33-.39l.23.16a3.43,3.43,0,0,1-.46.52,2.14,2.14,0,0,1-.75.45,3.47,3.47,0,0,1-1.1.21,4.68,4.68,0,0,1-1.54-.24,5.39,5.39,0,0,1-.67-.23,7.55,7.55,0,0,1-.9-.45,6.41,6.41,0,0,1-.93-.67,3.61,3.61,0,0,1-.78-.91,3,3,0,0,1-.42-1.17,3.33,3.33,0,0,1,.12-1.44A3,3,0,0,1,127.33,102.2Z"/><path class="cls-4" d="M136,109.41l3.13-10.7-1.23-.36.07-.22,3.5,1-1.76,6h0l.37-.34a2.46,2.46,0,0,1,.69-.38,3.75,3.75,0,0,1,1-.21,4.56,4.56,0,0,1,1.45.21,2.94,2.94,0,0,1,1.74,1.15,2.07,2.07,0,0,1,.21,1.8L144,111.74l1.25.37-.06.22L140.49,111l.06-.22,1.16.34,1.43-4.88a1.3,1.3,0,0,0,0-1,1.23,1.23,0,0,0-.77-.55,2.16,2.16,0,0,0-.91-.08,2.13,2.13,0,0,0-.87.32,2.77,2.77,0,0,0-.75.74,3.8,3.8,0,0,0-.55,1.18l-1,3.3,1.17.35-.06.21-4.68-1.37.07-.21Z"/><path class="cls-4" d="M149.86,110.25q-.15.56-.27,1.14a2.91,2.91,0,0,0,0,1.1,2.1,2.1,0,0,0,.49,1,2.56,2.56,0,0,0,1.22.68,3.18,3.18,0,0,0,1.33.13,3.4,3.4,0,0,0,1-.28,2.32,2.32,0,0,0,.66-.46,1.49,1.49,0,0,0,.3-.38l.24.16a3,3,0,0,1-.5.53,2.64,2.64,0,0,1-.8.44,3.56,3.56,0,0,1-1.11.19,4.53,4.53,0,0,1-1.45-.22,6.71,6.71,0,0,1-1.74-.77,4.73,4.73,0,0,1-1.26-1.12,3.52,3.52,0,0,1-.65-1.4,3.21,3.21,0,0,1,.08-1.59,2.88,2.88,0,0,1,.72-1.2,3.79,3.79,0,0,1,1.25-.85,4.87,4.87,0,0,1,1.61-.38,4.82,4.82,0,0,1,1.79.2,5,5,0,0,1,1.26.55,3.92,3.92,0,0,1,1,.87,3.08,3.08,0,0,1,.59,1.17,2.78,2.78,0,0,1-.06,1.45l-5.5-1.61Zm3.56-1.07c0-.11.06-.25.1-.42a1.35,1.35,0,0,0,0-.53,1,1,0,0,0-.24-.53,1.23,1.23,0,0,0-.65-.37,1.66,1.66,0,0,0-1,0,1.45,1.45,0,0,0-.69.47,2.75,2.75,0,0,0-.46.76c-.11.28-.22.56-.31.82l3,.87Z"/><path class="cls-4" d="M157.16,115.61l1.81-6.19-1.23-.36.07-.22,3.46,1-.45,1.54h0c.07-.08.2-.19.38-.35a2.5,2.5,0,0,1,.71-.4,3.41,3.41,0,0,1,1.05-.22,4.28,4.28,0,0,1,1.46.2,2.94,2.94,0,0,1,1.74,1.15,2.07,2.07,0,0,1,.21,1.8L165.14,118l1.24.36-.06.22-4.68-1.37.07-.22,1.15.34,1.43-4.88a1.3,1.3,0,0,0,0-1,1.23,1.23,0,0,0-.77-.55,2.14,2.14,0,0,0-.91-.08,2.25,2.25,0,0,0-.87.32,2.92,2.92,0,0,0-.75.74,3.8,3.8,0,0,0-.55,1.18l-1,3.3,1.18.35-.07.22-4.68-1.38.07-.21Z"/><path class="cls-4" d="M16.5,31.09s6,12,5,16,16-10,31,0c0,0-3-14,2-15s23-6,8-17-17-22-33-8c0,0-21-13-21,7,0,0-23,10,9,21"/></g></g></svg>