<svg xmlns="http://www.w3.org/2000/svg" viewBox="0 0 177.02 340.39"><defs><style>.cls-1{fill:#ef4a27;}.cls-2{fill:#ffaa25;}.cls-3{fill:#161616;}</style></defs><g id="Layer_2" data-name="Layer 2"><g id="Layer_1-2" data-name="Layer 1"><g id="Group_49" data-name="Group 49"><path id="Path_372" data-name="Path 372" class="cls-1" d="M26.51,192.56C7.45,185.77,2,173.18.84,159.55A122.89,122.89,0,0,1,.1,140.26C3.13,98.8,12.52,61.7,33.36,33.08c9.54-14.65,21.56-25,34.73-29.81,23.48-8.45,48.21-.33,67.32,22.09C159,53,169.9,75.92,176.38,116.7c2,10.73-.68,22.19-6.63,28.68C129.33,193.88,76.48,211.29,26.51,192.56Z"/><path id="Path_373" data-name="Path 373" class="cls-2" d="M78.22,199.58a141,141,0,0,0,42.47-13c6.64,44.4,13.31,66.28,2.69,115.74-8.54,39.78-36.57,44-53.2,32.58-14.51-10-12.86-34.28-7.24-56.92C72,241.57,79.05,226.56,78.22,199.58Z"/><path id="Path_374" data-name="Path 374" class="cls-3" d="M124.2,41.5c2.32-15.69,2.46-26,7.65-20.24,12,13.27,28.51,35,34.65,55.74.62,2,.13,4.47-1.14,5.62C150.31,100,124.43,90.44,124.2,41.5Z"/><path id="Path_375" data-name="Path 375" class="cls-3" d="M9.08,99.44c-2-1-2.61-2.91-1.88-6.24C12.56,68.49,22.39,46.58,35.54,30c2.37-3,4.29-2.33,6.06,1.91C50.75,52,47.45,79.61,34.24,93.54,26.89,101.28,17.62,103.46,9.08,99.44Z"/><path id="Path_376" data-name="Path 376" class="cls-3" d="M168.16,145.49c-.71,2.49-.21,2.55-3.19,6.1a131.79,131.79,0,0,1-33.15,28.23c-3,1.83-4.76-.56-4.26-5.46C131.34,136.88,160.42,128.07,168.16,145.49Z"/><path id="Path_377" data-name="Path 377" class="cls-3" d="M49.21,198.58q-11.51-2.78-22.94-5.93c-1.85-.43-3.12-3.07-2.83-5.89.71-20.76,14.77-35.87,24.45-18.56C53.53,178.29,55.15,200,49.21,198.58Z"/><path id="Path_378" data-name="Path 378" class="cls-3" d="M67.27,138.65c-1.44-4.51-.21-10,2.75-12.15a4.17,4.17,0,0,1,4.19-.59c4.5,2.34,8.6,9.65,14.39,1.59,5.62-7.82,11-4.21,11.41,4.68C101,155.64,76.25,170.9,67.27,138.65Z"/><path id="Path_379" data-name="Path 379" class="cls-3" d="M91.52,40.58c-18.19.37-21-18.88-13-26,7.06-5.76,15.73-4.24,21.75,3.81,3.14,4,3.58,11,1,15.83a8.92,8.92,0,0,1-2.57,3A28.78,28.78,0,0,1,91.52,40.58Z"/><path id="Path_380" data-name="Path 380" class="cls-3" d="M117,270.44c2,20.75-20.31,58.39-20.74,38.8a5,5,0,0,1,1-2.72c7.13-8.89,12.15-21.07,14.32-34.7a5.88,5.88,0,0,1,1-2.75,3.24,3.24,0,0,1,2.71-1.28C116,268.1,116.59,269.78,117,270.44Z"/><path id="Path_381" data-name="Path 381" class="cls-3" d="M66.81,115.42c-4.33-.5-7.57-6.25-7.24-12.84a.91.91,0,0,1,0-.17c.17-5.52,3-10,6.67-10.29C74.58,92,76.61,116,66.81,115.42Z"/><path id="Path_382" data-name="Path 382" class="cls-3" d="M99.52,96.84c0,6.14-3.26,11.14-7.3,11.24-8.39-1.4-7.72-23.82,1.21-22.41C97,86.47,99.67,91.29,99.52,96.84Z"/><path id="Path_383" data-name="Path 383" class="cls-3" d="M87.46,312.24a17.9,17.9,0,0,1,2,.72,4.64,4.64,0,0,1,.94,4.81c-.06.16-.12.31-.19.46-5.38,7.49-8.45,1.52-7.85-2.23C82.84,312.79,85.14,312.49,87.46,312.24Z"/></g></g></g></svg>