<svg xmlns="http://www.w3.org/2000/svg" viewBox="0 0 179.3 80.11"><defs><style>.cls-1{fill:#fe9c8f;}.cls-2{fill:#fff;stroke:#000;stroke-miterlimit:10;}</style></defs><g id="Layer_2" data-name="Layer 2"><g id="Layer_1-2" data-name="Layer 1"><path class="cls-1" d="M2.33,33.14a6.64,6.64,0,0,0,.21.67A4.23,4.23,0,0,0,3,34.7a7.29,7.29,0,0,0,.71,1,5.35,5.35,0,0,0,1.06.93,6.24,6.24,0,0,0,1.33.75,7.56,7.56,0,0,0,1.22.37,6.42,6.42,0,0,0,1.11.13h1A8.14,8.14,0,0,0,12,37.52a4.71,4.71,0,0,0,1.6-.87,3,3,0,0,0,.82-1.07,2.62,2.62,0,0,0,.24-1,1.76,1.76,0,0,0-.52-1.3,4.17,4.17,0,0,0-1.39-.86,13.71,13.71,0,0,0-2-.57l-2.27-.48c-.77-.16-1.53-.35-2.26-.57a8.25,8.25,0,0,1-2-.86,4.32,4.32,0,0,1-1.39-1.29,3.3,3.3,0,0,1-.52-1.91,3,3,0,0,1,.53-1.65,5.05,5.05,0,0,1,1.5-1.39,8.25,8.25,0,0,1,2.28-1,10.51,10.51,0,0,1,2.88-.37,11.09,11.09,0,0,1,1.73.12c.49.09.93.18,1.31.27s.71.18,1,.27a3,3,0,0,0,.79.12,1.1,1.1,0,0,0,.55-.09,1.22,1.22,0,0,0,.29-.35h.47v4.05h-.38c-.24-.5-.5-1-.77-1.48a5.32,5.32,0,0,0-1-1.31A4.75,4.75,0,0,0,11.9,23a6.64,6.64,0,0,0-2.41-.37,8.33,8.33,0,0,0-2.11.24,5.37,5.37,0,0,0-1.53.62,3.11,3.11,0,0,0-1,.85,1.64,1.64,0,0,0-.33,1,1.57,1.57,0,0,0,.56,1.23,4.81,4.81,0,0,0,1.44.85,14.42,14.42,0,0,0,2.05.6l2.35.54c.81.18,1.6.38,2.36.6a9.34,9.34,0,0,1,2,.84,5,5,0,0,1,1.44,1.24A2.85,2.85,0,0,1,17.36,33a3.58,3.58,0,0,1-.59,2,5.42,5.42,0,0,1-1.69,1.64,9.33,9.33,0,0,1-2.59,1.12,12.56,12.56,0,0,1-3.36.42A12.55,12.55,0,0,1,7.29,38c-.6-.09-1.17-.17-1.7-.27l-1.4-.26a4.6,4.6,0,0,0-.91-.13,1.36,1.36,0,0,0-.59.09.92.92,0,0,0-.33.4H1.88V33.14Z" transform="translate(-1.25)"/><path class="cls-1" d="M21.62,27a9.19,9.19,0,0,1,2.64-2.51,13,13,0,0,1,3.61-1.61,14.14,14.14,0,0,1,3.9-.56,15.31,15.31,0,0,1,4.08.55,12.8,12.8,0,0,1,3.58,1.58A8.68,8.68,0,0,1,42,27a5.78,5.78,0,0,1,1,3.29,5.56,5.56,0,0,1-.91,3,8.83,8.83,0,0,1-2.44,2.52A12.59,12.59,0,0,1,36,37.54a14.21,14.21,0,0,1-4.26.63,14.47,14.47,0,0,1-4.23-.61A12.63,12.63,0,0,1,24,35.9a9.06,9.06,0,0,1-2.46-2.48A5.71,5.71,0,0,1,21.62,27Zm4.19,7a5.36,5.36,0,0,0,1.12,2.32,4,4,0,0,0,2,1.21,10.51,10.51,0,0,0,2.87.34,8.37,8.37,0,0,0,3.47-.59,4.16,4.16,0,0,0,1.87-1.62,6,6,0,0,0,.8-2.45,29.15,29.15,0,0,0,.16-3.08c0-1,0-1.94-.14-2.84a5.48,5.48,0,0,0-.76-2.39,4.26,4.26,0,0,0-1.89-1.64,8.35,8.35,0,0,0-3.51-.61,8.19,8.19,0,0,0-3.34.57,4.31,4.31,0,0,0-1.91,1.59,6.21,6.21,0,0,0-.86,2.43,20.85,20.85,0,0,0-.21,3.09A15.67,15.67,0,0,0,25.81,34Z" transform="translate(-1.25)"/><path class="cls-1" d="M63.4,27c-.22-.47-.48-1-.79-1.48a6.12,6.12,0,0,0-1.19-1.42,5.81,5.81,0,0,0-1.83-1.07,7.48,7.48,0,0,0-2.69-.42,8.46,8.46,0,0,0-3.44.58,4.28,4.28,0,0,0-1.89,1.6,5.87,5.87,0,0,0-.82,2.44,24.66,24.66,0,0,0-.18,3.1A15.46,15.46,0,0,0,50.93,34a5.32,5.32,0,0,0,1.12,2.31,4.07,4.07,0,0,0,2,1.19,10.53,10.53,0,0,0,2.88.34,7.46,7.46,0,0,0,2.43-.38,7.32,7.32,0,0,0,1.92-1A5.93,5.93,0,0,0,62.65,35a6.06,6.06,0,0,0,.84-1.69H64v4.52h-.48a.8.8,0,0,0-.36-.35,1.47,1.47,0,0,0-.63-.1,4.72,4.72,0,0,0-.92.12l-1.3.26c-.49.09-1,.17-1.59.25a13.35,13.35,0,0,1-1.82.12,14.39,14.39,0,0,1-4.21-.61,12.76,12.76,0,0,1-3.57-1.66,9.06,9.06,0,0,1-2.46-2.48,5.66,5.66,0,0,1-.92-3.09,5.58,5.58,0,0,1,1-3.29,9.19,9.19,0,0,1,2.64-2.51A13.16,13.16,0,0,1,53,22.92a14,14,0,0,1,3.9-.56,12.31,12.31,0,0,1,1.77.12l1.52.27,1.27.27a4.8,4.8,0,0,0,1,.12,2,2,0,0,0,.63-.07.51.51,0,0,0,.3-.37h.48V27Z" transform="translate(-1.25)"/><path class="cls-1" d="M76.71,22.7V23H74V37.57h2.75v.3H66.89v-.3h2.74V23H66.89V22.7Z" transform="translate(-1.25)"/><path class="cls-1" d="M79.63,37.57,88.52,22.1h.8l9.4,15.47h2.57v.3h-10v-.3H94l-3.46-5.71H83.42l-3.31,5.71h2.65v.3H77.12v-.3Zm3.94-6h6.86l-3.52-5.82Z" transform="translate(-1.25)"/><path class="cls-1" d="M111.7,22.7V23H109V37.57h4.92a8.92,8.92,0,0,0,2-.23,6.34,6.34,0,0,0,1.88-.78,6,6,0,0,0,1.58-1.41,6.14,6.14,0,0,0,1.09-2.1h.39v4.82H101.88v-.3h2.75V23h-2.75V22.7Z" transform="translate(-1.25)"/><path class="cls-1" d="M11.07,48.27v.3H8.32v6.82h.24l9.13-6.82h-3v-.3h6v.3H18.26l-6.65,5,10.32,9.58h1.85v.3h-10v-.3H16.5L8.56,55.69H8.32v7.45h2.75v.3H1.25v-.3H4V48.57H1.25v-.3Z" transform="translate(-1.25)"/><path class="cls-1" d="M34.19,48.27v.3H31.45V63.14h2.74v.3H24.37v-.3h2.75V48.57H24.37v-.3Z" transform="translate(-1.25)"/><path class="cls-1" d="M42.63,48.57a10.69,10.69,0,0,0-2,.16,4.84,4.84,0,0,0-1.55.55,4.34,4.34,0,0,0-1.22,1.1,7.45,7.45,0,0,0-1,1.79h-.39v-3.9h18.7v3.9h-.38a7.81,7.81,0,0,0-1-1.79,4.21,4.21,0,0,0-1.22-1.1,4.84,4.84,0,0,0-1.55-.55,10.69,10.69,0,0,0-2-.16H48V63.14h2.75v.3H41v-.3h2.75V48.57Z" transform="translate(-1.25)"/><path class="cls-1" d="M75.6,52.62a15.48,15.48,0,0,0-.79-1.48,6.16,6.16,0,0,0-1.19-1.43,5.88,5.88,0,0,0-1.82-1.07,7.83,7.83,0,0,0-2.7-.41,8.4,8.4,0,0,0-3.43.57,4.32,4.32,0,0,0-1.9,1.6A5.92,5.92,0,0,0,63,52.84a24.78,24.78,0,0,0-.18,3.1,15.61,15.61,0,0,0,.36,3.67,5.33,5.33,0,0,0,1.12,2.3,4,4,0,0,0,2,1.19,10.53,10.53,0,0,0,2.88.34,7.46,7.46,0,0,0,2.43-.38,7.14,7.14,0,0,0,1.92-1,6.15,6.15,0,0,0,1.4-1.44,6,6,0,0,0,.84-1.68h.48v4.51h-.48a.8.8,0,0,0-.36-.35,1.66,1.66,0,0,0-.62-.09,4.59,4.59,0,0,0-.93.11l-1.3.26c-.48.09-1,.18-1.59.25a13.35,13.35,0,0,1-1.82.12,14.39,14.39,0,0,1-4.21-.61,12.49,12.49,0,0,1-3.57-1.66A8.92,8.92,0,0,1,58.83,59a5.62,5.62,0,0,1-.92-3.09,5.55,5.55,0,0,1,1-3.28,9.36,9.36,0,0,1,2.64-2.52,13.46,13.46,0,0,1,3.59-1.61,14.47,14.47,0,0,1,3.9-.56,11,11,0,0,1,1.77.13c.55.08,1.06.17,1.52.26l1.27.27a4.91,4.91,0,0,0,1,.13,1.94,1.94,0,0,0,.62-.08.51.51,0,0,0,.3-.37H76v4.35Z" transform="translate(-1.25)"/><path class="cls-1" d="M88.79,48.27v.3H86v7h8.62v-7H91.92v-.3h9.81v.3H99V63.14h2.74v.3H91.92v-.3h2.74V55.86H86v7.28h2.75v.3H79v-.3h2.75V48.57H79v-.3Z" transform="translate(-1.25)"/><path class="cls-1" d="M121.72,48.27v3.64h-.38a6.12,6.12,0,0,0-.51-.92,4.6,4.6,0,0,0-1-1.1,5.78,5.78,0,0,0-1.66-.93,6.88,6.88,0,0,0-2.47-.39H111v6.58h1.68a6.68,6.68,0,0,0,1.86-.22,3.53,3.53,0,0,0,1.27-.64,3.49,3.49,0,0,0,.83-1,6.2,6.2,0,0,0,.54-1.31h.39V58.6h-.39a10.26,10.26,0,0,0-.49-1.19,3.58,3.58,0,0,0-.76-1,3.5,3.5,0,0,0-1.18-.69,5.17,5.17,0,0,0-1.75-.26h-2v7.69h4.9a8.59,8.59,0,0,0,2.47-.33,7,7,0,0,0,2-.92,5.86,5.86,0,0,0,1.41-1.4,6.27,6.27,0,0,0,.87-1.71H123v4.66H103.88v-.3h2.75V48.57h-2.75v-.3Z" transform="translate(-1.25)"/><path class="cls-1" d="M132.38,48.27l9.93,10.14h.06V48.57h-2.74v-.3h6v.3h-2.74V63.44H142L128.62,49.78h-.06V63.14h2.74v.3h-6v-.3h2.75V48.57h-2.75v-.3Z" transform="translate(-1.25)"/><path class="cls-2" d="M153.77,1,141.18,6.17a6.56,6.56,0,0,0-3.57,8.56l8.57,20.83a6.56,6.56,0,0,0,8.56,3.57L167.33,34a6.56,6.56,0,0,0,3.57-8.57L162.33,4.57A6.57,6.57,0,0,0,153.77,1Zm-.67,29.06a2.93,2.93,0,0,1-1.59,3.8l-.11,0a2.92,2.92,0,0,1-3.8-1.58l-6.82-16.59a2.91,2.91,0,0,1,1.59-3.8l.1-.05a2.92,2.92,0,0,1,3.8,1.59Zm7-2.89a2.92,2.92,0,0,1-1.59,3.8l-.11.05a2.93,2.93,0,0,1-3.8-1.59L147.8,12.83A2.92,2.92,0,0,1,149.39,9l.1,0a2.91,2.91,0,0,1,3.8,1.58Zm7.28-3a2.92,2.92,0,0,1-1.59,3.8l-.1,0a2.91,2.91,0,0,1-3.8-1.59L155.08,9.84A2.92,2.92,0,0,1,156.67,6l.11,0a2.92,2.92,0,0,1,3.8,1.59Z" transform="translate(-1.25)"/><rect class="cls-2" x="166.85" y="29.6" width="4.14" height="51.8" rx="2.07" transform="translate(-9.67 68.42) rotate(-22.36)"/><path class="cls-2" d="M21.85,14.38s2.73,5.41,2.28,7.21,7.28-4.51,14.11,0c0,0-1.37-6.31.91-6.76s10.46-2.71,3.64-7.67-7.74-9.92-15-3.6c0,0-9.56-5.87-9.56,3.15,0,0-10.47,4.51,4.1,9.47" transform="translate(-1.25)"/><path d="M29.47,29.42a1.5,1.5,0,0,0,0-3,1.5,1.5,0,0,0,0,3Z" transform="translate(-1.25)"/><path d="M34.67,29.42a1.5,1.5,0,0,0,0-3,1.5,1.5,0,0,0,0,3Z" transform="translate(-1.25)"/><path d="M27.93,33.79a3.16,3.16,0,0,0,1.52,1.79,3.75,3.75,0,0,0,2.08.41,4.48,4.48,0,0,0,2.17-.83,11,11,0,0,0,1.64-1.49,1.5,1.5,0,1,0-2.12-2.12c-.3.32-.6.64-.93.93-.06.05-.34.27-.13.11s-.07.06-.13.09a3.37,3.37,0,0,1-.59.32l.36-.15a2.5,2.5,0,0,1-.66.19l.39,0a2.22,2.22,0,0,1-.63,0l.39,0a2.41,2.41,0,0,1-.6-.16L31,33l-.24-.13-.1-.07c-.12-.06.29.27.14.11l-.09-.09c-.14-.12.13.14.12.17s-.13-.23-.15-.27l.15.36,0-.12a1.62,1.62,0,0,0-.69-.89,1.5,1.5,0,0,0-2.21,1.69Z" transform="translate(-1.25)"/></g></g></svg>