<svg xmlns="http://www.w3.org/2000/svg" viewBox="0 0 342.64 349.8"><g id="Layer_2" data-name="Layer 2"><g id="Layer_1-2" data-name="Layer 1"><path d="M242.69,47.62c10.52,11.66,25.88,15.8,40.69,19,7.6,1.64,15.27,3.11,22.67,5.52a51.91,51.91,0,0,1,11.33,5.21,26.86,26.86,0,0,1,3,2.16,19.44,19.44,0,0,1,2.12,2.42c1.47,1.7,3.44,2.84,4.86,4.59,5.6,6.91,7.56,16,9.18,24.53,1.95,10.29,2.29,20.89,2.33,31.35,0,10.3-.37,20.6-.56,30.9-.19,10.64.44,21.25.75,31.88q.92,31.31.27,62.62-.36,16.14-1.19,32.26c-.13,2.48-.26,5-.41,7.43a74.19,74.19,0,0,1-.58,8.31,37,37,0,0,1-5.73,14.07c-4.63,6.65-13.35,9.64-21,10.88-4.91.8-9.92,1.18-14.87,1.67q-8.08.81-16.18,1.45c-21.21,1.69-42.48,2.58-63.76,2.85-42.08.52-84.15-1.42-126.13-4.35-21.15-1.47-42.29-3.19-63.43-5a11.1,11.1,0,0,1-3.46-.5,12.32,12.32,0,0,1-2-1.21,17,17,0,0,1-4.22-4.31,29,29,0,0,1-4.1-9.79c-1-4.43-1-8.77-1.17-13.29-.22-5.23-.65-10.45-1.2-15.66S8.69,282.4,8,277.29a55.2,55.2,0,0,1-.76-7.24V263.2c0-5.22-.86-10.53-1.29-15.74q-.66-8.06-1.16-16.13C3.5,210.46,3,189.55,3,168.64q0-15.93.46-31.84.21-7.61.48-15.23c.17-4.62.18-9.23,1.18-13.77a41,41,0,0,1,11-20.6C22.5,81,31.66,78.43,40.22,76.84c5.1-1,10.3-1.16,15.46-1.71C60.55,74.61,65.42,74,70.22,73,78,71.38,86.51,69.47,92,63.37c4.32-4.76,6.54-11,8-17.13.81-3.33,1.41-6.7,2-10.07.27-1.52.54-3,.82-4.54a18,18,0,0,1,2.11-5.4,19.55,19.55,0,0,1,3.69-4.88,16.54,16.54,0,0,1,5.87-3.19q7.22-2.7,14.58-4.91a239.61,239.61,0,0,1,29.2-6.8A251.8,251.8,0,0,1,189,3.25a203.93,203.93,0,0,1,26.74.15c7.14.64,14.66,2.82,19.07,8.87,1.13,1.54,3.73.05,2.59-1.52C232.74,4.43,225.52,1.63,218,.65A106.15,106.15,0,0,0,206.83.07q-8-.18-16,.11a249.68,249.68,0,0,0-60.71,9.63q-7.38,2.14-14.61,4.78c-4.13,1.51-7.84,2.95-10.69,6.45a23.87,23.87,0,0,0-5,10.61c-.62,3.34-1.17,6.7-1.84,10-1.32,6.5-3,13.42-7.31,18.68-5.29,6.52-14.07,8.29-21.91,9.84-5.18,1-10.42,1.68-15.67,2.19A138.63,138.63,0,0,0,37.63,74.3c-8.44,1.77-17.12,4.53-23.47,10.61A43.4,43.4,0,0,0,2.57,105.57a59.55,59.55,0,0,0-1.5,12.69q-.32,8.11-.54,16.23c-.61,21.57-.74,43.17-.15,64.75q.44,16,1.42,32.09.52,8.41,1.22,16.8c.43,5.19,1.23,10.42,1.23,15.62v6.57a61,61,0,0,0,.89,8C5.83,283.5,6.5,288.72,7,294c.56,5.43,1,10.88,1.14,16.34.06,2.23,0,4.48.24,6.69a52.72,52.72,0,0,0,1.08,5.87,30.73,30.73,0,0,0,4.29,10.06c2,2.84,5.11,6.2,8.57,7.16a17.53,17.53,0,0,0,3.07.28l4,.34,8.69.72q8,.66,16,1.3c43.17,3.45,86.42,6.32,129.74,7,21.75.32,43.52.08,65.26-.91q16.16-.75,32.27-2.05,8.44-.7,16.86-1.56c4.72-.48,9.5-.85,14.18-1.71,7.75-1.44,15.58-4.7,20.69-10.93,3.08-3.75,5.06-9,6.35-13.6,1.37-5,1.2-10.37,1.48-15.47q1.78-32.47,1.65-65-.06-16.29-.53-32.57c-.3-10.64-1-21.25-.78-31.89.36-21.13,2.09-42.81-1.87-63.71-1.63-8.6-3.69-17.55-9-24.69a31.86,31.86,0,0,0-4.69-4.67,17.88,17.88,0,0,1-1.92-2.33,14.09,14.09,0,0,0-2.49-2.13A46.13,46.13,0,0,0,309.09,70c-14.83-5.29-30.84-6.28-45.54-12a48.79,48.79,0,0,1-18.74-12.5c-1.29-1.44-3.41.69-2.12,2.12Z"/><path d="M261.67,184.24,264,243.83l1.15,29.67c.18,4.75.61,9.57.5,14.33a7.46,7.46,0,0,1-1.71,5.26,8.69,8.69,0,0,1-4.52,2.08,60.41,60.41,0,0,1-7.1.76l-8.14.7-16.76,1.44,1.5,1.5a419.58,419.58,0,0,0,1.43-72.72q-1.22-18.06-4-36c-1.78-11.51-4.21-22.86-6.64-34.25-4.17-19.52-8.49-41.9,1.35-60.47,4.29-8.11,12-16,21.67-16.45,8.21-.41,15,4.67,19.35,11.23,4.91,7.33,7.35,16,8.38,24.67a116.41,116.41,0,0,1-1.24,35.54c-.54,2.86-1.2,5.7-2,8.51a1.51,1.51,0,0,0,2.9.8,119.72,119.72,0,0,0,4-36.38c-.45-9.95-1.94-19.87-6.25-28.93-3.53-7.44-9.15-14.51-17.16-17.3-9.24-3.21-18.88.71-25.47,7.39-15.29,15.5-14.39,39.43-11,59.28,1.93,11.26,4.74,22.34,6.85,33.57q3.48,18.46,5.26,37.19a418.15,418.15,0,0,1,.39,75.14q-.39,4.59-.88,9.16a1.51,1.51,0,0,0,1.5,1.5c10-.86,20.07-1.46,30-2.59,3.66-.42,7.64-1.35,9.73-4.69,2.29-3.67,1.41-8.74,1.25-12.82L266,219.15l-1.35-34.91c-.08-1.92-3.08-1.93-3,0Z"/><path d="M266.54,156.7,260.66,188c-.36,1.89,2.53,2.69,2.89.8l5.88-31.32c.36-1.89-2.53-2.7-2.89-.8Z"/><path d="M157.5,85.28c.19,15.58.37,31.18-.44,46.75-.4,7.76-1,15.52-2.07,23.22-1,7.52-2.49,15-4.09,22.37-3.25,15-6.92,30-7.2,45.39a155,155,0,0,0,1.67,23.67c1,7.16,2.43,14.27,3.2,21.46.67,6.24.85,12.91-1.6,18.83a14.37,14.37,0,0,1-4.14,6l-.44.37c-.72.6.45-.31-.31.24a17.2,17.2,0,0,1-1.45,1c-.5.3-1,.57-1.53.82,0,0-.9.41-.34.17-.31.14-.63.25-.95.37a20.54,20.54,0,0,1-3.19.85c-.06,0-1,.14-.32.06l-.84.08a15.33,15.33,0,0,1-1.66,0,14.71,14.71,0,0,1-1.63-.11c.7.09-.17-.05-.26-.06l-.78-.18a15.21,15.21,0,0,1-1.49-.48c.64.24-.14-.08-.23-.12s-.46-.23-.68-.36-.43-.28-.65-.42c-.69-.42.39.39-.21-.15-.39-.35-.74-.72-1.11-1.09-.58-.58.27.46-.19-.22-.15-.23-.3-.45-.44-.68a8.2,8.2,0,0,1-.71-1.46c-1.14-3.22-.85-6.78-.82-10.15q.23-23.9.44-47.8l.22-23.9c.07-7.76.3-15.66-1.63-23.24-1.84-7.18-5.44-13.74-8.46-20.47a119.38,119.38,0,0,1-6.85-20,123.09,123.09,0,0,1-3-42.07q.53-5.06,1.49-10L99,93.13q1.24,14.06,2.5,28.11h6a82.55,82.55,0,0,1,3-33.76l-5.89-.79q-.34,14.93-.15,29.86a124.05,124.05,0,0,0,.45,12.94c.48,4,1.53,7.94,4.33,11,5.09,5.51,13.59,4.57,19.17.37,6.92-5.2,8.51-13.92,8-22.13-.64-9.56-4.15-19.7-.27-29l-5.78-1.6c-1.52,10.5-3.07,21.37-.39,31.82,2.22,8.68,8,16.76,16.27,20.59a21.8,21.8,0,0,0,14.62,1.6c3.74-.95,2.16-6.74-1.59-5.79a15.07,15.07,0,0,1-9.71-.86A23.41,23.41,0,0,1,141,129c-5.43-6.38-6.73-15.15-6.51-23.46a134.93,134.93,0,0,1,1.61-15.79,3,3,0,0,0-5.78-1.6c-3.32,7.95-1.73,16.71-.56,24.94a53.91,53.91,0,0,1,.62,11.42,21.89,21.89,0,0,1-1.09,5.37,13.94,13.94,0,0,1-.92,2.14c-.18.33-.37.65-.57,1-.11.17-.6.84-.47.69a12.34,12.34,0,0,1-6.52,4.35c-.35.1-.71.18-1.06.25-.54.1.11,0-.43.06a16.29,16.29,0,0,1-2,0c.2,0-.48-.1-.63-.14a7.08,7.08,0,0,1-1-.31c.39.16-.27-.13-.38-.19a7.69,7.69,0,0,1-1-.66c.3.23-.45-.43-.54-.52s-.56-.61-.55-.6a10.15,10.15,0,0,1-1.22-2.12,21.58,21.58,0,0,1-1-4.08,98.16,98.16,0,0,1-.45-11.88q-.23-15.55.13-31.11c.07-3.45-4.92-4-5.9-.8a87.15,87.15,0,0,0-3.25,35.35,3.1,3.1,0,0,0,3,3,3,3,0,0,0,3-3q-1.24-14.05-2.5-28.11a3,3,0,0,0-2.6-2.94,3,3,0,0,0-3.29,2.14,129.35,129.35,0,0,0-.67,44.79,124.47,124.47,0,0,0,5.33,21.25c2.47,7.11,5.84,13.77,8.88,20.64a55.28,55.28,0,0,1,3.56,10.45,56.43,56.43,0,0,1,1.12,11.08c.17,8.12-.08,16.27-.16,24.4L116.67,274c0,3.87-.14,7.75-.09,11.62,0,3.59.48,7.33,2.36,10.48,2.67,4.43,7.54,6.65,12.58,6.84a22.42,22.42,0,0,0,14-4.51c5.13-3.88,7.9-9.89,8.86-16.15,1.09-7.1.28-14.19-.82-21.24-1.19-7.62-2.51-15.22-3.25-22.92a124.68,124.68,0,0,1-.17-23.66,199.55,199.55,0,0,1,3.75-22.65c1.61-7.62,3.4-15.21,4.86-22.87,1.53-8,2.63-16.15,3.37-24.3,1.45-15.84,1.58-31.77,1.45-47.67,0-3.89-.07-7.79-.12-11.68s-6.05-3.87-6,0Z"/><path d="M93.22,65.9l57.22-5.29,57.21-5.29,32.35-3c1.9-.17,1.92-3.18,0-3l-57.22,5.29-57.22,5.29-32.34,3c-1.91.17-1.93,3.18,0,3Z"/><path d="M233.68,10.34a60.28,60.28,0,0,0,14,42.09c1.25,1.48,3.36-.65,2.13-2.12a57.24,57.24,0,0,1-13.17-40c.11-1.93-2.89-1.92-3,0Z"/></g></g></svg>