<svg xmlns="http://www.w3.org/2000/svg" viewBox="0 0 925 491.2"><defs><style>.cls-1{fill:#ef4a27;}.cls-2{fill:#ffaa25;}.cls-3{fill:#161616;}.cls-4{fill:#7047f3;}.cls-5{fill:#64873e;}.cls-6{fill:#fff;}.cls-7{fill:#ef4925;}.cls-8{fill:#60853a;}.cls-9{fill:#fea923;}.cls-10{fill:#a6a050;}.cls-11{fill:#343332;}</style></defs><g id="Layer_2" data-name="Layer 2"><g id="Layer_1-2" data-name="Layer 1"><g id="Group_1454" data-name="Group 1454"><g id="Group_1449" data-name="Group 1449"><path id="Path_372" data-name="Path 372" class="cls-1" d="M15,223.42C4.2,220.13,1.13,214,.47,207.43a52,52,0,0,1-.42-9.34c1.72-20.08,7-38,18.78-51.91,5.38-7.09,12.16-12.09,19.59-14.43,13.25-4.09,27.21-.16,38,10.7,13.29,13.39,19.46,24.48,23.12,44.23,1.12,5.2-.38,10.75-3.74,13.89C73,224.06,43.16,232.49,15,223.42Z"/><path id="Path_373" data-name="Path 373" class="cls-2" d="M44.14,226.82a89.7,89.7,0,0,0,24-6.31c3.75,21.5,7.51,32.1,1.52,56.05-4.83,19.26-20.64,21.31-30,15.78-8.18-4.82-7.26-16.6-4.08-27.57C40.62,247.16,44.61,239.89,44.14,226.82Z"/><path id="Path_374" data-name="Path 374" class="cls-3" d="M70.09,150.26c1.31-7.6,1.38-12.58,4.31-9.8,6.78,6.43,16.09,17,19.56,27a2.5,2.5,0,0,1-.65,2.72C84.82,178.59,70.22,174,70.09,150.26Z"/><path id="Path_375" data-name="Path 375" class="cls-3" d="M5.12,178.32c-1.12-.48-1.47-1.41-1.06-3,3-12,8.57-22.58,16-30.62,1.33-1.48,2.42-1.13,3.42.92,5.16,9.75,3.3,23.12-4.16,29.86C15.18,179.21,9.94,180.27,5.12,178.32Z"/><path id="Path_376" data-name="Path 376" class="cls-3" d="M94.9,200.63c-.4,1.2-.12,1.23-1.8,3a72.8,72.8,0,0,1-18.71,13.67c-1.69.89-2.69-.27-2.41-2.65C74.12,196.46,90.53,192.19,94.9,200.63Z"/><path id="Path_377" data-name="Path 377" class="cls-3" d="M27.77,226.34q-6.49-1.35-12.95-2.88a2.49,2.49,0,0,1-1.59-2.85c.4-10.05,8.33-17.37,13.79-9C30.21,216.51,31.12,227,27.77,226.34Z"/><path id="Path_378" data-name="Path 378" class="cls-3" d="M38,197.31c-.81-2.18-.12-4.82,1.56-5.88a2.65,2.65,0,0,1,2.36-.29c2.54,1.13,4.85,4.67,8.12.77s6.23-2,6.43,2.27C57,205.54,43,212.93,38,197.31Z"/><path id="Path_379" data-name="Path 379" class="cls-3" d="M51.65,149.82c-10.27.18-11.86-9.14-7.37-12.58,4-2.79,8.88-2.05,12.28,1.85a6.64,6.64,0,0,1,.55,7.66,4.63,4.63,0,0,1-1.45,1.47A18.05,18.05,0,0,1,51.65,149.82Z"/><path id="Path_380" data-name="Path 380" class="cls-3" d="M66,261.14c1.13,10-11.46,28.28-11.7,18.79a2.16,2.16,0,0,1,.57-1.32A33.61,33.61,0,0,0,63,261.81a2.58,2.58,0,0,1,.56-1.34,1.91,1.91,0,0,1,1.53-.61C65.48,260,65.79,260.82,66,261.14Z"/><path id="Path_381" data-name="Path 381" class="cls-3" d="M37.7,186.06c-2.44-.24-4.27-3-4.08-6.22v-.08c.1-2.67,1.72-4.82,3.76-5C42.09,174.72,43.23,186.35,37.7,186.06Z"/><path id="Path_382" data-name="Path 382" class="cls-3" d="M56.16,177.06c0,3-1.84,5.4-4.12,5.45-4.73-.68-4.35-11.54.68-10.86C54.76,172,56.24,174.38,56.16,177.06Z"/><path id="Path_383" data-name="Path 383" class="cls-3" d="M49.36,281.38c.37.11.74.2,1.11.35a2,2,0,0,1,.53,2.33,1.51,1.51,0,0,1-.11.22c-3,3.63-4.77.74-4.43-1.08C46.75,281.65,48.05,281.5,49.36,281.38Z"/></g><g id="Group_37" data-name="Group 37"><path id="Path_232" data-name="Path 232" class="cls-4" d="M511.52,319.14l2.92,5.32a23.1,23.1,0,0,1,11.61-3.07c8.32,1.07,8.79,10.3,10,17.25,1.75-.58,3-1.11,4.37-1.43,19.59-4.94,27.41,28.5,11,36-1.69.78-3.4,1.48-5.53,2.39,2.8,5.73,6.92,9.22,3.56,22.17-3.12,12-13.16,11.31-17.28,11.66,2.25,22.59-6.9,34.19-24,28.22a113.75,113.75,0,0,1-4.73,13.91c-4.15,8.2-12.61,10.45-18.88,5-.23-.19-.44-.4-.66-.61-1.25-1.18-2.41-2.52-3.81-4-1.76,4.35-5.2,17-17.85,17.16-3.28,0-5.61-2.49-8.47-4.7-4.2,6.4-9,16-22.11,15.3-10.07-.57-14.46-11.91-9.74-20.91a68.42,68.42,0,0,1,4.62-6.78c-2-4.61-5.22-9-4.29-15.33,2.91-20.05,9.33-24.3,16.24-24.72a37.4,37.4,0,0,1-.91-21.68c2.07-6.82,6.09-12.31,11.2-15.32-5-5.31-9.09-10.68-8.3-19.37.38-8.09,4.64-15,10.61-17.17-3.4-4.17-6.83-7.67-7.31-13.38a35.44,35.44,0,0,1,.33-10.08c1.56-7.48,9.1-23.88,25.26-9.15q1-2.76,2.13-5.37c9.12-18.08,29.41-15.87,30.9,4.87.21,2.85,0,5.75,0,8.63,0,1.24.09,2.49.15,4.1l2.57-.63Z"/><path id="Path_233" data-name="Path 233" class="cls-5" d="M511.52,319.14l-6.37-1.72c6-21.21,16.63-39.64,30.58-53,8.06-7.43,15-2.51,19.81,5.43a7.25,7.25,0,0,1,.21,8.34,4.45,4.45,0,0,1-2.26,1.7C536.41,286.12,521.55,300,511.52,319.14Z"/><path id="Path_234" data-name="Path 234" class="cls-3" d="M474.83,384.73c1.26-7.72,1.26-11.8,4.52-12,3.1-.15,3.53,3.49,5.29,11,.27,1.51.6,3,1,4.46A1.4,1.4,0,0,0,487,389c.33-.23,8.19-6.8,10.62-8.6s5.76.69,4.69,5.63c-2.67,7.38-7.33,13.22-13.09,16.39-6.37,3.65-12.63-.59-14-11.81C475.08,389.08,475,387.51,474.83,384.73Z"/><path id="Path_235" data-name="Path 235" class="cls-3" d="M454.61,461c-.35,1.48-.44,3.06-1.62,3.11-1.46.06-.77-2.35-1.25-4.53-1.22-5.56-2.36-11.78-7.36-11.55-11.4.52-9.61,3.42-12.22,1.35-.4-.33.14-2.24.83-2.55a42,42,0,0,1,7.4-2.95,6.72,6.72,0,0,0,5.62-3.7,17.72,17.72,0,0,0,2.09-11.11c-1.38-8-4.08-8.77-7-13.14a2.05,2.05,0,0,1,.13-1.4c.57-1.07,1.91-.66,2.64,0,6,5.7,6.6,9.81,12.76,5.59,4.13-2.82,3.93-4.05,5.65-2.23a2.22,2.22,0,0,1-.18,1.44,12.65,12.65,0,0,1-6.37,5.53c-2.59,1.28-4.75.62-4.54,4.58a25.06,25.06,0,0,1-2.21,12c-1.11,2.42-1.06,2.67.6,4.54A21.54,21.54,0,0,1,454.61,461Z"/><path id="Path_236" data-name="Path 236" class="cls-3" d="M478.29,434.39c1.79,1.45,2.06-.35,7.21-6.78,2.91-3.63.22-5.48-2.07-10.67a2.65,2.65,0,0,1,.31-2,1.37,1.37,0,0,1,1.55,0c5.08,3.76,2.44,9.79,7.47,10a2.16,2.16,0,0,1,1.52,1,2.73,2.73,0,0,1,0,1.91c-3.06,2.1-12.61,1.6-12.6,17.29,0,4.73.5,6-.75,6.22-1,.16-1.7-1.26-1.9-2.49-1-5.9,1.54-9.59-5.82-13.58-5.34-2.9-14.45,1.13-16.47,8.23a24.5,24.5,0,0,1-1.72,4.06,1,1,0,0,1-1.06.37,1.37,1.37,0,0,1-.82-.92C452.43,436.25,466,424.4,478.29,434.39Z"/><path id="Path_237" data-name="Path 237" class="cls-3" d="M528.37,352c4.55-10.35,3.67-9.17,6.31-11.16.23-.18,1.34.66,1.19,1.27-.91,3.79-5.4,7.66-4.2,19.71.16,2.95.17,5.9.05,8.85,1.38.68,2.84,1.35,4.23,2.14a1.63,1.63,0,0,1,.37,1.89,1.24,1.24,0,0,1-.48.57,9.69,9.69,0,0,1-2.91.48c-5.48-.15-10.74,11.64-7.71,18.5.7,1.58,1.43,3.14,2,4.76a1.76,1.76,0,0,1-.38,1.34,1.92,1.92,0,0,1-1.59.42c-1.56-.57-5.79-7.93-3.23-16.92.65-2.29.71-3.81-.85-5.38a1.83,1.83,0,0,1,0-2.12,1.14,1.14,0,0,1,.45-.37c1.64-.88,5-.45,6.69-6.79a15.41,15.41,0,0,0-.67-10.57,19.32,19.32,0,0,0-2.32-3.52c-.57-.76-1.29-1.64-.67-2.56S527.49,351.92,528.37,352Z"/><path id="Path_238" data-name="Path 238" class="cls-3" d="M479.51,326a36.43,36.43,0,0,1-4.59-2.3,3.79,3.79,0,0,0-5.1.27c-12.72,11.75-3.93,19.82-2.84,22.28a2,2,0,0,1,0,1.41c-.41.46-1.08,1-1.49.88-5.33-1.87-3.53-8.62-8-8.11-3.91.42-5.4-1.63-5-2.49,1.27-2.93,6.52,1.18,7.62-4,1.42-6.38,4.94-11.62,9.6-14.31,3.1-2-1.09-5.57.73-11.56a1.25,1.25,0,0,1,.89-.77,1.08,1.08,0,0,1,.93.62c.93,4.58,1.13,16,11.31,13.39a9.68,9.68,0,0,1,2.34-.64,1.78,1.78,0,0,1,1.4,1,2.69,2.69,0,0,1-.48,2A9.15,9.15,0,0,1,479.51,326Z"/><path id="Path_239" data-name="Path 239" class="cls-3" d="M501.31,424.22c-.34-12.17,5.74-13.62,3.17-19.57-1.52-3.49-.94-10.5,1.13-10.19,2.37.36-1,11.08,4.14,9.46,9.68-3,8.32-2.62,11.52-1.21.24.11.45.88.43,1.33s-.33,1.11-.59,1.19a19.38,19.38,0,0,1-3.5.64c-7.34-.16-13.39,7.48-13.51,17.07a21.66,21.66,0,0,0,.1,2.42c.07,1.64.86,3.17-.45,4.25-.76.63-2.07-.95-2.25-2.82C501.36,425.51,501.31,424.2,501.31,424.22Z"/><path id="Path_240" data-name="Path 240" class="cls-3" d="M465.21,376.49c1.13,2.06,2.24,3.88,3.17,5.83a2,2,0,0,1-.48,2.32,1,1,0,0,1-1.24,0,4.29,4.29,0,0,1-1.34-1.51c-5.63-8.38-14-6.16-15.37-6.27-.28,0-.68-.58-.76-1a2,2,0,0,1,.29-1.38,4,4,0,0,1,2-1.37,17.38,17.38,0,0,1,6.54.41c2.56.95,5.3-.1,7.06-2.69,3.11-3.69,3-7.54,4.5-11.63.19-.52,1.31-.05,1.47.35,1.41,3.45-.61,9-2.58,12.17C467.53,373.4,466.38,374.84,465.21,376.49Z"/><path id="Path_241" data-name="Path 241" class="cls-3" d="M499.46,319a1.29,1.29,0,0,1,2.09.45l0,0c1,1.88-1.46,2.84-2.49,4.48-8.51,13.52-1.36,17.23-.78,19.72a2.77,2.77,0,0,1-.28,1.95,1.4,1.4,0,0,1-1.6.22C488.62,340.07,491.27,325.29,499.46,319Z"/><path id="Path_242" data-name="Path 242" class="cls-3" d="M514.35,325.87a6.25,6.25,0,0,1,1.9-1.64c.44-.33,1.3.87,1.2,1.19-1.15,3.78-3.08,6.85-2.94,12.49-.18,4,1.9,7.66,4.92,8.55a5.62,5.62,0,0,1,1.13.44c.65.53,1.56,1.17,1,2.34-1.56,3-5.72.58-7.6-2.28C510,341,511.24,331.2,514.35,325.87Z"/><path id="Path_243" data-name="Path 243" class="cls-3" d="M485.24,358.51c-.46,2.58-.53,6.56-3.9,6.78-3,.21-5.46-4.52-2.9-9.91C480.48,351.1,485.06,352.83,485.24,358.51Z"/><path id="Path_244" data-name="Path 244" class="cls-3" d="M506.1,368.59c-.78,2.41-2.91,3.54-4.76,2.52a4.69,4.69,0,0,1-2.16-3.57C498.27,355.5,509.37,357.43,506.1,368.59Z"/></g><g id="Group_46" data-name="Group 46"><path id="Path_339" data-name="Path 339" class="cls-6" d="M352.23,372c23.07-23.65,33.61-166.21-4.29-169.14-38.71-3-27,129-38.71,159S336.25,388.4,352.23,372Z"/><path id="Path_340" data-name="Path 340" class="cls-2" d="M248.26,337.08a6.77,6.77,0,0,1,1.13-6.6c5.74-9.22,13.8-15.48,22.74-17.66,26.81-7.83,46.08,20.81,63.78,47.11a178.1,178.1,0,0,1,32-45.55c7-7.13,15.24-11.77,24-13.48,23.83-4.89,33.94,25,22.21,24.42-19.64-.94-40.18,32.28-49.79,54.85-11.57,27.22-13.88,38.52-24.61,55.55-11.37,18-22.59,18.19-33.57,23.89-7.91,4.09-9.34,11.73-12.82,17-4.69,7.11-14.63.74-9.42-10.7A36.24,36.24,0,0,0,286.77,450c-.31-16.21,6.49-20.46,9.85-47.38,1.2-9.7,1.89-23.61-1.55-32.39C281.13,334.65,259.54,338.17,248.26,337.08Z"/><path id="Path_341" data-name="Path 341" class="cls-3" d="M337.71,283.61c.67-1.79,2.33-2.53,3.7-1.66a3.79,3.79,0,0,1,.39.31c2.93,2.73,3.88,6.15,6.34,3.52,1.07-1.16,2.05-2.46,3.15-3.56a2,2,0,0,1,3.18.74,9.8,9.8,0,0,1,1.2,4.24c-.24,5.32-2.64,10.06-6.3,12.43C342,304.66,334.76,291.45,337.71,283.61Z"/><path id="Path_342" data-name="Path 342" class="cls-3" d="M309.88,405.7c-.52-1.67-1.41-2.06.6-4.85,6.25-8.62,14.52-17.51,21.18-34.53,1.49-3.82,2.85-5.21,3.46-4.08,1.23,2.26-.25,3.95-.89,5.67-5.86,15.8-12.21,23.83-22.16,36.38A7.94,7.94,0,0,1,309.88,405.7Z"/><path id="Path_343" data-name="Path 343" class="cls-3" d="M334.53,259.85c1-2.3,3.17-3.14,4.93-1.88a4.23,4.23,0,0,1,1.42,1.84c1.73,4.36-.87,11-4.8,8.86-2.28-1.86-3-5.79-1.57-8.78Z"/><path id="Path_344" data-name="Path 344" class="cls-3" d="M359.83,263.29a28.15,28.15,0,0,1-.69,2.95c-.7,1.94-2.34,3-3.93,2.48-2.32-1.05-3.54-4.35-2.74-7.37a5.28,5.28,0,0,1,2.83-3.61c1.6-.45,3.22.61,3.91,2.56A27.33,27.33,0,0,1,359.83,263.29Z"/><path id="Path_345" data-name="Path 345" class="cls-3" d="M289.07,451.67c.37.05.93-.08,1.09.19a23.2,23.2,0,0,0,8.13,7.66,2.56,2.56,0,0,1,.68,1.88c-.43,3.62-7.47-.37-10.43-6.37C288,453.94,288.35,451.84,289.07,451.67Z"/><path id="Path_346" data-name="Path 346" class="cls-3" d="M300.13,418c-.16-.53-.67-1.36-.52-1.77a14,14,0,0,1,4.77-6.64c.68-.49,1.81.81,1.6,1.47a10.79,10.79,0,0,1-5.06,7C300.77,418.17,300.53,418.07,300.13,418Z"/></g><g id="Group_50" data-name="Group 50"><path id="Path_384" data-name="Path 384" class="cls-2" d="M533.4,77.29c9.48,9.87,16.27,23.46,19.37,38.76,10.08,43-36.17,138.35-118.27,123-13.58-2.53-33.2-21.85-16.16-48.3,24.77-38.44,18.19-66.52,49.43-111.29,12.14-17.39,34.65-19.73,51.49-12.14,1.13.51,2.31.87,3.47,1.3C534.35,76.89,529,73,533.4,77.29Z"/><path id="Path_385" data-name="Path 385" class="cls-5" d="M530.65,74.27l-7.94-5.63c11.35-38.47,31.88-52.58,41.38-46.91,7.2,4.3,7.63,13.53-1.49,17.21C549.74,44.13,536.19,62,530.65,74.27Z"/><path id="Path_386" data-name="Path 386" class="cls-3" d="M488,170.08c-21.41.26-23.71-23.16-14.77-20.93,3.93,1,11.54,10.36,18.84,1.74a17.76,17.76,0,0,1,4.5-3.74c1.93-1.05,4.15-.3,5.45,1.83C507,155.62,496.17,169.67,488,170.08Z"/><path id="Path_387" data-name="Path 387" class="cls-3" d="M530.82,177.21a3.66,3.66,0,0,1-.45-2,3.06,3.06,0,0,1,.5-1.38c8.15-14.73,9.72-29.45,10.83-31.81a1.87,1.87,0,0,1,1.36-1.11C548.3,141.38,535.43,182.31,530.82,177.21Z"/><path id="Path_388" data-name="Path 388" class="cls-3" d="M471.79,126.68c.85-2.34,3-3.33,4.77-2.22a4.42,4.42,0,0,1,1.81,2.55C482.66,143.5,467.46,138,471.79,126.68Z"/><path id="Path_389" data-name="Path 389" class="cls-3" d="M500.59,132.9c-.74,2.45-2.86,3.64-4.73,2.68a4.72,4.72,0,0,1-2.26-3.7,26.2,26.2,0,0,1,.54-6.13C495.26,120.8,503.33,120.72,500.59,132.9Z"/><path id="Path_390" data-name="Path 390" class="cls-3" d="M523.67,189.34c-.36-.16-.89-.2-1-.53a3.34,3.34,0,0,1-.39-2c2-4.95,4.23-3.32,4-1C526.21,187.66,525.1,189.19,523.67,189.34Z"/></g><g id="Group_53" data-name="Group 53"><path id="Path_408" data-name="Path 408" class="cls-7" d="M667.06,242.47c7.31,6,16.49,26.75,14.05,55.63-3.74,44.15-21.62,87.06-29.8,97.92-12,16-29.37,16.52-44.35-7.38-14.54-22.44-25-48.9-30.58-77.4a97,97,0,0,1,3.21-46.85,69.06,69.06,0,0,1,4.33-9.28c1.63,13.93,7.13,8.46,20-.4a74.21,74.21,0,0,0,1.61,9.35c2.57,8.34,8.2,9.45,12.48,2.47q2.43-4.44,4.48-9.22c1-2.14,1.46-4.9,3.82-6.32,13.77,12.45,15.53,13.45,18.78,14,2.72.74,5.4-1.55,6-5.11a8.63,8.63,0,0,0-.24-3.75c-.28-1.5-.94-2.88-1.25-4.39a31.54,31.54,0,0,1-.28-3.9C659.49,250.76,663,253.17,667.06,242.47Z"/><path id="Path_409" data-name="Path 409" class="cls-5" d="M667.06,242.47c-4,10.7-7.62,8.27-17.73,5.34a30,30,0,0,0,.28,3.9c.31,1.5.95,2.88,1.25,4.39,1.54,7.94-4.33,11.65-10.78,6.64-3.63-2.82-10-8.43-13.73-11.78-2.37,1.43-2.79,4.18-3.83,6.32q-2,4.77-4.47,9.23c-4.28,7-9.91,5.87-12.49-2.47a78.52,78.52,0,0,1-1.61-9.36c-12.86,8.82-18.41,14.34-20,.4,7.18-21.35,33-30.38,39.82-32.77,7.16,0,14.37-2.69,31.62,5.69C660.63,230.57,665.43,234.52,667.06,242.47Z"/><path id="Path_410" data-name="Path 410" class="cls-3" d="M624.49,180.77c5.68-8.29,17.25-.69,13.29,7.13-2.09,4.13-10.95,17.8-14,34.41l-8.88,3.48C614.57,217.34,618.52,189.48,624.49,180.77Z"/><path id="Path_411" data-name="Path 411" class="cls-3" d="M613.93,325.07c.09-1.07.23-2.13.41-3.18.52-2.47,2.48-3.92,4.37-3.24l.37.16c4.44,2.48,6,7.27,11.32,3.14,3.67-2.82,8.61-4.43,9.6,1,1.43,7.95-7.48,28.18-15.37,22.45C618.74,341.34,614.74,333.74,613.93,325.07Z"/><path id="Path_412" data-name="Path 412" class="cls-3" d="M640.81,297.46c-.77,4.09-.88,8.06-4.2,8.31-3.15.24-5.78-5.84-2.42-12.28,1.12-1.95,3.24-2.35,4.74-.89a4,4,0,0,1,.84,1.2A23.31,23.31,0,0,1,640.81,297.46Z"/><path id="Path_413" data-name="Path 413" class="cls-3" d="M620.16,300.71c-.09,7-4.8,7.78-7,3.61a8.94,8.94,0,0,1,.26-8.6c1.23-2,3.46-2.3,5-.69a4.46,4.46,0,0,1,.91,1.47A29.09,29.09,0,0,1,620.16,300.71Z"/><path id="Path_414" data-name="Path 414" class="cls-3" d="M598.78,277.81c.17-.46.47-1.41.86-2.27s1.88-.74,2,.15c.35,2.5.59,5,.78,7.57,0,.27-.53.76-.87.88C600.06,284.66,598.71,282.08,598.78,277.81Z"/><path id="Path_415" data-name="Path 415" class="cls-3" d="M639.35,362.37c.07,4.05-.8,6.24-2.11,5.72s-1.66-2.23-1.33-5.38,2.37-3.53,3-2.15A10.7,10.7,0,0,1,639.35,362.37Z"/><path id="Path_416" data-name="Path 416" class="cls-3" d="M585.85,296.7c-.44.91-.79,2.06-1.05,2-3.75-.48-3.76-7.85-1.8-8.43C584.58,289.84,584.74,292,585.85,296.7Z"/><path id="Path_417" data-name="Path 417" class="cls-3" d="M640.52,386c.46.63,1.16,1.16,1.16,1.67a31.65,31.65,0,0,1-.5,5.25c-.21,1.15-2,2.27-2.36,1.63-.69-1.39-1.16-2.8.25-7.2C639.25,386.76,639.94,386.49,640.52,386Z"/><path id="Path_418" data-name="Path 418" class="cls-3" d="M657,369.75c-1.15,3.81-1.45,6.14-3.07,5.67-2.71-.78-.08-8.39,1.64-7.29A8.3,8.3,0,0,1,657,369.75Z"/><path id="Path_419" data-name="Path 419" class="cls-3" d="M671.3,285.45c1.08-2.15,2.64-1.46,2.91.5.56,4.17-.51,6.54-1.82,6.16C670.51,291.55,670.47,287.08,671.3,285.45Z"/><path id="Path_420" data-name="Path 420" class="cls-3" d="M604.69,365.35c-.59-.06-1.05.08-1.33-.16a6.23,6.23,0,0,1-2.17-5.79c0-.45.35-1.13.62-1.2.52-.15,1.41-.2,1.59.17a36.86,36.86,0,0,1,2,5.38C605.55,364.12,604.92,364.88,604.69,365.35Z"/><path id="Path_421" data-name="Path 421" class="cls-3" d="M656.72,346.68c-1.59.81-2.65-5.84.6-7.6C658.8,338.28,660,345,656.72,346.68Z"/><path id="Path_422" data-name="Path 422" class="cls-3" d="M655,303.45a4.57,4.57,0,0,1,1,5.27,3.6,3.6,0,0,1-.31.54c-1.23,2.12-4.44-2.38-1.77-5.47C654.18,303.51,654.63,303.56,655,303.45Z"/><path id="Path_423" data-name="Path 423" class="cls-3" d="M653.27,281.09a9.06,9.06,0,0,1-.35,1.66c-.18.39-.55.91-.82.9a1.8,1.8,0,0,1-1.51-.6c-1.62-2.82-.85-6.91.6-7.16C652.89,275.61,652.88,278.39,653.27,281.09Z"/><path id="Path_424" data-name="Path 424" class="cls-3" d="M620.22,379.63c-.58.64-1,1.35-1.41,1.46a1.49,1.49,0,0,1-1.46-.62c-1.9-5.15,1-5.94,1.79-4.3A23.56,23.56,0,0,1,620.22,379.63Z"/><path id="Path_425" data-name="Path 425" class="cls-3" d="M604.78,340.3c.52.23,1,.25,1.21.57,2,3.71,1.15,5.9.15,5.75-2.07-.29-2.51-2.18-2.44-4.91C603.7,341.2,604.43,340.72,604.78,340.3Z"/><path id="Path_426" data-name="Path 426" class="cls-3" d="M599,314.78c-.41.63-.7,1.44-1.12,1.6a1.61,1.61,0,0,1-1.54-.53c-2.42-2.92,1.07-6.77,2-4C598.56,312.83,598.78,313.79,599,314.78Z"/><path id="Path_427" data-name="Path 427" class="cls-3" d="M669.46,321.25a10,10,0,0,1,0,1.81c-.68,3.07-2.67,3.49-3.33,2.47-1-1.51-.18-2.83.38-4.12a1.86,1.86,0,0,1,1.88-1.32A5.5,5.5,0,0,1,669.46,321.25Z"/><path id="Path_428" data-name="Path 428" class="cls-3" d="M588.83,331.43c.53.15,1,.1,1.22.39,4.48,7.56-2.9,6.22-2.1,1.25A5.18,5.18,0,0,1,588.83,331.43Z"/><path id="Path_429" data-name="Path 429" class="cls-3" d="M630.09,397c-.18,1-.94,1.6-1.7,1.37h0c-3.47-2.21-1.64-7,0-5.76A4.89,4.89,0,0,1,630.09,397Z"/><path id="Path_430" data-name="Path 430" class="cls-3" d="M665.86,258.07c2.37-.51,3,2.76,1.52,3.8-.79.43-1.7-.07-2-1.1a3.12,3.12,0,0,1-.11-.53A6.73,6.73,0,0,1,665.86,258.07Z"/></g><g id="Group_54" data-name="Group 54"><path id="Path_431" data-name="Path 431" class="cls-2" d="M250.48,240.74c1.62,38.3-20.61,70.58-47.89,77-22.49,5.4-45.25-7.41-57.7-32.47C132,258.4,134,223.7,149.75,199.64c13.95-21.72,29.84-27.58,50-28.07a8.09,8.09,0,0,0,2.14,1.11C227,177.06,248.77,200.6,250.48,240.74Z"/><path id="Path_432" data-name="Path 432" class="cls-5" d="M221,180.25a58.93,58.93,0,0,0-17.71-7.36c-.21-11-2.76-25.18-.19-35.36a6.79,6.79,0,0,1,11.21-3.69c4,3.73,2.06,7.46-4.65,31.32,0,.92-1,2.61-1,4.91,12.78-24.71,41.78-31.06,58-24.21,3.74,8.32-17.65,27.3-38.21,32C226,178.42,223.51,179.44,221,180.25Z"/><path id="Path_433" data-name="Path 433" class="cls-3" d="M202.46,139.57c.81-5.25,4.73-8.65,8.74-7.59a5.93,5.93,0,0,1,1.48.61c4.38,2,4.23,6.95,2.77,12.47-2.2,8.35-4.47,16.68-6.73,25-1.09,5-.69,4.22-3.18,3.49a11.66,11.66,0,0,1-5.77-2A146.12,146.12,0,0,1,202.46,139.57Z"/><path id="Path_434" data-name="Path 434" class="cls-3" d="M241.66,158.06c-.7,1.47-.13,2-4.28,3.78a100.79,100.79,0,0,0-23.16,12.76,2.87,2.87,0,0,1-1.69.53c-.76,0-1.46-1.58-1.13-2.21a9,9,0,0,1,1.9-2.88c9.81-7.68,25.14-14.88,27.12-13.67C240.9,156.66,241.2,157.42,241.66,158.06Z"/><path id="Path_435" data-name="Path 435" class="cls-3" d="M183.94,247.09c2.17-.24.7,5.7,2.26,11.94,1,4.1,4.14,4,5.24.66,2.57-7.69,3-14.17,5.54-10.83a1.25,1.25,0,0,1,.13.74c-1.75,20.91-12.09,20-14,9.75C182.55,256.43,181.89,247.32,183.94,247.09Z"/><path id="Path_436" data-name="Path 436" class="cls-3" d="M244.26,252.83c-.26,1.66-.57,3.3-.95,4.91-3.79,13.54-4,13.61-5.5,15.31a1.32,1.32,0,0,1-2.17-.3,2.53,2.53,0,0,1-.23-2c.09-.31,5.48-18.62,5.7-18.78C242.85,250.69,242.29,250.58,244.26,252.83Z"/><path id="Path_437" data-name="Path 437" class="cls-3" d="M206.41,231.24c-.43,2.68-2.43,4.39-4.48,3.84s-3.36-3.18-2.94-5.86c.22-3.25,2.1-6.35,4.44-5.84,2.37.81,3.8,4,3.18,7.08A6.36,6.36,0,0,1,206.41,231.24Z"/><path id="Path_438" data-name="Path 438" class="cls-3" d="M181.68,229.56c-2.19,1.29-6.12-.8-4.8-7.3a5,5,0,0,1,2.61-3.84C184.38,216.23,186.13,226.94,181.68,229.56Z"/><path id="Path_439" data-name="Path 439" class="cls-3" d="M228.87,286.41a1.92,1.92,0,0,1-1.25-2.12,7.31,7.31,0,0,1,3-4.4c.6-.41,1.67.52,1.69,1.47C232.39,284,230.87,286.22,228.87,286.41Z"/><path id="Path_440" data-name="Path 440" class="cls-3" d="M244.85,244.17c-.37.36-.87,1.29-1.41,1.35a1.54,1.54,0,0,1-1.32-1.69,1.66,1.66,0,0,1,1-1.68C244,241.85,244.58,242.47,244.85,244.17Z"/></g><g id="Group_55" data-name="Group 55"><path id="Path_441" data-name="Path 441" class="cls-7" d="M35.62,376.56c39.52-8.11,176.58-31.79,197.06-35.16A175.18,175.18,0,0,1,230.79,371c-16.71,93.65-109.62,130.12-163.36,77.4-14.74-13.93-25.24-34.22-29.64-57.29C36.88,386.35,36.33,381.41,35.62,376.56Z"/><path id="Path_442" data-name="Path 442" class="cls-5" d="M35.62,376.56c1.63,11.1,4,44.62,31.81,71.85,54.7,53.66,146.92,14.76,163.36-77.4a175.18,175.18,0,0,0,1.89-29.61c3.19-.6,2.1-.56,3.85.2,6.86,34.7-7.46,86.6-44.62,116.06-78.27,62-163.26-2-159.11-80.36Z"/><path id="Path_443" data-name="Path 443" class="cls-3" d="M123.07,418.65c-4.46-6.82-.92-13.82,4.08-12.92a16.3,16.3,0,0,1,4.59,1.76c6.39,3.4,8.64-2.65,13-5.1,5.25-2.95,8,6.59.85,16.65-5.09,8-14.21,9.19-20.37,2.53A17.34,17.34,0,0,1,123.07,418.65Z"/><path id="Path_444" data-name="Path 444" class="cls-3" d="M116,393.26c-.3,1.63-.59,5.78-3.84,5.74-2.21,0-4-1.69-3.65-8.09.29-2.11,1.58-3.74,3.2-4,1.64,0,3.12,1.27,3.71,3.27C115.65,391.16,115.85,392.2,116,393.26Z"/><path id="Path_445" data-name="Path 445" class="cls-3" d="M159,382.6c-.15,8.32-7.62,8.24-7.7.08-.05-5.08,4.54-6.95,6.15-4.06A27.16,27.16,0,0,1,159,382.6Z"/><path id="Path_446" data-name="Path 446" class="cls-3" d="M157.78,441.59c-.28.34-.61,1.13-1,1.19a1.55,1.55,0,0,1-1.41-.83,2.45,2.45,0,0,1,.6-1.79C156.63,439.52,157.56,440.19,157.78,441.59Z"/><path id="Path_447" data-name="Path 447" class="cls-3" d="M126.42,449.51A6.38,6.38,0,0,1,125,448c-.38-.8.53-2.12,1.3-1.81a2.12,2.12,0,0,1,1,1.48C127.39,448.2,126.82,448.79,126.42,449.51Z"/><path id="Path_448" data-name="Path 448" class="cls-3" d="M209.31,366c-.83.13-1.47.49-1.82.21a1.59,1.59,0,0,1-.17-1.83.85.85,0,0,1,1.19-.38C208.86,364.21,209,365.09,209.31,366Z"/><path id="Path_449" data-name="Path 449" class="cls-3" d="M64.53,403.76c-.28.31-.7,1.11-1.07,1.07a1.81,1.81,0,0,1-1.21-1.26,2.27,2.27,0,0,1,.71-1.71C63.62,401.38,64.5,402.38,64.53,403.76Z"/><path id="Path_450" data-name="Path 450" class="cls-3" d="M202.91,393.08c-.67.46-1.13,1-1.49.94s-.6-.89-.88-1.38c.4-.39.79-1.05,1.2-1.07S202.39,392.37,202.91,393.08Z"/><path id="Path_451" data-name="Path 451" class="cls-3" d="M178.63,420.88c-.61.74-1,1.47-1.37,1.52s-.79-.63-1.2-1c.32-.53.57-1.36,1-1.52S177.89,420.38,178.63,420.88Z"/><path id="Path_452" data-name="Path 452" class="cls-3" d="M89.5,409.66a7,7,0,0,1,1.2,1.63,1.87,1.87,0,0,1-.42,1.19,5.61,5.61,0,0,1-1.41-.65Z"/><path id="Path_453" data-name="Path 453" class="cls-3" d="M185.73,385.58l-1.69.83a9.59,9.59,0,0,1-.46-1.79c0-.18.67-.69.85-.58A8.15,8.15,0,0,1,185.73,385.58Z"/><path id="Path_454" data-name="Path 454" class="cls-3" d="M105.21,435.6l-.28.41-.34-.82C105.1,435,104.94,434.89,105.21,435.6Z"/></g><g id="Group_47" data-name="Group 47"><path id="Path_347" data-name="Path 347" class="cls-1" d="M913.65,292.51c8.59,18.14,4.59,44.4-.45,64.61-23.2,93-58.11,153.64-68.14,123.22a41.3,41.3,0,0,1-2.1-9.74c-3.23-44.64-3.9-86.32,2.45-134.36q3-21.17,7.73-41.84c4.4-15.49,16.56-28.4,31-25.19C891.71,271.72,905.06,274.35,913.65,292.51Z"/><path id="Path_348" data-name="Path 348" class="cls-5" d="M893.65,272.35l-9.51-3.15c1.18-12.18,2.22-24.38,3.59-36.53a18.19,18.19,0,0,0-3.14-12.77q-5-8.25-9.39-17.17a23,23,0,0,1-2-6.48c-.47-1.87.3-3.89,1.74-4.51a2.18,2.18,0,0,1,2.25.32,75,75,0,0,1,6.49,4.91c1.81-5.34-.91-12.52,4.06-16.19,4.46,2.37,4.24,8.49,6.52,13.44,3-14.09,3.06-16.56,6-17.12,3.69-.71,3.22,11.44,3.22,21.51,2.57,0,3.21-2.64,4.61-3.87a55.7,55.7,0,0,1,7-5.8c1.27-.82,2.8-.15,3.43,1.51a4.27,4.27,0,0,1,.12,2.6,61.89,61.89,0,0,1-5.4,13.75c3.29,0,5.8,0,8.31,0,1.68-.29,3.22,1.25,3.44,3.44a4.4,4.4,0,0,1-1.62,4.07c-5.12,5.39-11.46,8.43-18,8.65C901.65,230.5,896.52,252.37,893.65,272.35Z"/><path id="Path_349" data-name="Path 349" class="cls-3" d="M867.63,346.85c.53.35,1,.46,1.16.8.53,1.65.82,3.46,1.45,5,1.19,3.25,4.17,4.62,6.66,3.07a5.24,5.24,0,0,0,1-.78c2.9-2.81,5.48-8.76,7-7.54a2.83,2.83,0,0,1,.6,2c-1.71,5.06-5,9-9,10.76-5,2.14-10.86-5.64-9.75-11.75A5.9,5.9,0,0,1,867.63,346.85Z"/><path id="Path_350" data-name="Path 350" class="cls-3" d="M882.38,331.91c1-3.6,1.61-9.33,5.82-7.58a4.73,4.73,0,0,1,2.52,4.69,41.68,41.68,0,0,1-1,6c-.68,2.44-2.74,3.69-4.61,2.8a4.36,4.36,0,0,1-2.18-2.93C882.74,334.19,882.65,333.42,882.38,331.91Z"/><path id="Path_351" data-name="Path 351" class="cls-3" d="M870.56,328c0,1.69.51,6.39-2.91,7.38s-6.18-4.62-4.26-10.85c.72-2.26,2.7-3.34,4.43-2.4a3.74,3.74,0,0,1,1.42,1.45A19.82,19.82,0,0,1,870.56,328Z"/><path id="Path_352" data-name="Path 352" class="cls-3" d="M856.7,387.85a25.81,25.81,0,0,1-12.89-6.21,2.57,2.57,0,0,1-.35-2.06c.17-.36.72-.84.94-.73,12.3,6.53,14.78,4.9,14.55,7.24C858.83,387.45,857.67,387.51,856.7,387.85Z"/><path id="Path_353" data-name="Path 353" class="cls-3" d="M893.61,294.91c-1.18,0-2.5-1.38-2.06-2.08,1-1.64,1.23-1.85,12.2-4.58a1.56,1.56,0,0,1,1.4.92c.56,1.54-1,3.3-2.24,3.68A22.23,22.23,0,0,1,893.61,294.91Z"/><path id="Path_354" data-name="Path 354" class="cls-3" d="M887.76,390.38c-.89-.5-2.37-1-2.26-2.26.23-2.44,3.77-.64,10.88-4.65a1.68,1.68,0,0,1,1.44.77c0,.9-.2,2.28-.66,2.58A23.19,23.19,0,0,1,887.76,390.38Z"/><path id="Path_355" data-name="Path 355" class="cls-3" d="M879.38,403.81c.36.05.76,1.05.94,1.7.37,1.36-5.33,4.24-10.24.54a1.81,1.81,0,0,1-.26-1.32c.09-.39.47-.93.74-1C871.59,403.71,878.05,403.66,879.38,403.81Z"/><path id="Path_356" data-name="Path 356" class="cls-3" d="M852.33,445.92c-6.7-2.44-9.24-2.79-8.32-5.17a1.56,1.56,0,0,1,1.44-.87c3.15.73,6.28,1.57,9.39,2.49a2,2,0,0,1,1,1.48,2.52,2.52,0,0,1-1,1.61A8,8,0,0,1,852.33,445.92Z"/><path id="Path_357" data-name="Path 357" class="cls-3" d="M875.77,434.31a2.31,2.31,0,0,1-1-1.63,1.75,1.75,0,0,1,1-1.31c3-.37,5.91-.62,8.87-.82a1.32,1.32,0,0,1,.88.86,1.93,1.93,0,0,1-.13,1.38,5.46,5.46,0,0,1-1.94,1.67A13.22,13.22,0,0,1,875.77,434.31Z"/><path id="Path_358" data-name="Path 358" class="cls-3" d="M847.46,404.91c2.1.73,4.36,1.47,6.58,2.38a2.24,2.24,0,0,1,.58,1.77c-.65,2.55-5.79.74-7.9-1.23-.34-.31-.39-1.33-.36-2C846.38,405.55,847,405.32,847.46,404.91Z"/><path id="Path_359" data-name="Path 359" class="cls-3" d="M866.74,283.79c1.66.89,6.73,3.07,6.13,5.48a1.36,1.36,0,0,1-.8.93c-2.58.25-5.06-1.29-6.54-4.06a2,2,0,0,1,0-1.39C865.74,284.36,866.17,284.21,866.74,283.79Z"/><path id="Path_360" data-name="Path 360" class="cls-3" d="M860.08,463.08a3.59,3.59,0,0,1-1.34-1.19c-.39-.55.52-1.89,1.39-1.95a47.64,47.64,0,0,1,5.34-.17c.34,0,1,1,.93,1.39a2.26,2.26,0,0,1-1,1.57A9.08,9.08,0,0,1,860.08,463.08Z"/></g><g id="Group_39" data-name="Group 39"><path id="Path_253" data-name="Path 253" class="cls-8" d="M762.93,305.36a23.16,23.16,0,0,1,4.6,2.1c15.26-1.34,30.42,4.12,43,15.5,27.16,25,23.89,71,6.4,107.91-12.35,26.05-37.81,56.07-60,59.58-19.13,3-36.41-2.8-50-21.32-24.82-33.87-34.06-84.87-17.16-130.72,7.06-19.18,19.29-30.25,34.3-36.67C740.51,294.67,752.15,300.92,762.93,305.36Z"/><path id="Path_254" data-name="Path 254" class="cls-3" d="M786.94,259.07a19.51,19.51,0,0,1,2.21.77c2.18.46,3.65,3.14,3.3,6a5.49,5.49,0,0,1-1.86,3.61,29.23,29.23,0,0,1-2.86,2.82c-13,11.57-17.08,30.07-20.81,36.26-.63,1-3.2.81-3.39-.5-.92-1-.1-4.8.09-6,2-13.25,6.73-30.94,14.9-39.05A13.66,13.66,0,0,1,786.94,259.07Z"/><path id="Path_255" data-name="Path 255" class="cls-3" d="M805.1,410.92c-.32,1-1.39,2.21-2.3,1.78-.32-.15-.79-.74-.75-1a25.19,25.19,0,0,1,.69-4.51c13.26-47.29-1-59.95-3.35-64.8-.33-.7.6-2.21,1.25-2,4.62,2,8.27,11.59,9.6,18C813.81,375.5,810.45,394.77,805.1,410.92Z"/><path id="Path_256" data-name="Path 256" class="cls-3" d="M731.07,387.88c1.44.86,1.08,2.59,1.15,4,.31,6.54-.13,13.78,2.82,20.54.86,2.59,3.16,3.79,5.14,2.67l.43-.28a24.05,24.05,0,0,0,5.47-4.64c8.19-9.87,8.32-15.1,11.4-15.12.78,0,1,2,.38,3.26-7.9,16-20.93,29.84-25.89,15.07C729,404.55,728.29,386.24,731.07,387.88Z"/><path id="Path_257" data-name="Path 257" class="cls-3" d="M735.42,360.22c1.3-2,3.59-2.26,5.13-.57A5.59,5.59,0,0,1,741.8,364a43.73,43.73,0,0,1-2,7.2c-.81,1.88-2.48,2.81-4.07,2.27C731.74,372.1,732.87,364.26,735.42,360.22Z"/><path id="Path_258" data-name="Path 258" class="cls-3" d="M760.58,371.05c-.84,5.5-3.74,11.35-7.44,8.48-4.28-3.32.71-15.8,5.15-13.21A5.43,5.43,0,0,1,760.58,371.05Z"/><path id="Path_259" data-name="Path 259" class="cls-3" d="M799.08,428a3.92,3.92,0,0,1,0,1c-1.48,4.1-6.16,14.72-9.06,13.41-.43-.19-.71-1-1-1.64-.17-.37,7-12.07,7.19-12.41a2.55,2.55,0,0,1,1.45-1.24C798.14,427,798.67,427.69,799.08,428Z"/></g><g id="Group_1448" data-name="Group 1448"><path id="Path_245" data-name="Path 245" class="cls-9" d="M758.72,227.05c-13-1.34-38.6-13.31-38.56-72.55C725.72,80.92,759.73,97.26,777,34.71a93.71,93.71,0,0,1,7.64-23.83c7.44-14.43,18.28-11.53,24.79-8l1.43,1.33L810.8,4l4.38,6.73c5.1,14.21,6.12,14.66-6.3,61.4-11,41.51,22.22,54.29-4.23,117.14C795.07,212.06,777.75,229,758.72,227.05ZM737.17,156.4a39.12,39.12,0,0,0,6,21.86c10.73,17.82,31.34,10.5,40.2-17.91,12.47-39.94-12.14-70.72-32.12-47.69C741.85,123.48,737.37,137.15,737.17,156.4Z"/><path id="Path_246" data-name="Path 246" class="cls-5" d="M764.16,227.26c12.42-4.1,29.61-12,40.5-38,26.44-62.84-6.82-75.61,4.23-117.14,13.62-51.25,8.21-56.82,2-67.94,10.8,6,15.14,20.53,15.58,33.31a218.7,218.7,0,0,1-1.86,35.19c-5.09,39.92,8.95,46.69,10.54,81.74C837.66,209.55,795.28,236.41,764.16,227.26Z"/><path id="Path_247" data-name="Path 247" class="cls-10" d="M810.88,4.2l-1.43-1.33Z"/><path id="Path_248" data-name="Path 248" class="cls-7" d="M737.17,156.4c-.07-54.4,37.89-69.28,47.8-36.18,12.25,40.92-23.5,88.45-41.8,58A39.12,39.12,0,0,1,737.17,156.4Z"/><path id="Path_249" data-name="Path 249" class="cls-3" d="M758.64,189.56c-17-.81-21.53-24.38-20.37-27.24.39-1,1.88-1.87,2.41-.8,1.94,3.94,2.22,7.72,3.76,11.37,3.84,10.25,13.31,14.49,21.15,9.47l.37-.24C779.84,174,782.6,153,784.52,147.41a1.48,1.48,0,0,1,1.53-.59c.84.3,1.53,1.62,1.22,3.83C784.47,170.46,773.63,188.29,758.64,189.56Z"/><path id="Path_250" data-name="Path 250" class="cls-3" d="M776.59,71.82c1.24-5.79,1.1-7.27,3.34-7.59,1.49-.21,1.94,3.44,3,7.09,2,6.64,6.78-6.19,9.32-2.1,1.65,2.66-1.75,9-3.61,11.41-4.34,5.65-10.67,3.85-11.87-5.29C776.69,74.58,776.71,73.79,776.59,71.82Z"/><path id="Path_251" data-name="Path 251" class="cls-3" d="M789,44.23c.22,3.15-1.16,6.12-3.4,7.33-2.67,1.15-6.46-2.17-3.69-8.37.86-2.46,3.09-3.55,5-2.42A4.86,4.86,0,0,1,789,44.23Z"/><path id="Path_252" data-name="Path 252" class="cls-3" d="M801.17,51.05c.2,3.27-1.61,6.16-4.1,6.53-1.87,0-3.44-1.85-3.57-4.29C793.25,45.65,800.83,44.59,801.17,51.05Z"/></g><g id="Group_1450" data-name="Group 1450"><path id="Path_260" data-name="Path 260" class="cls-1" d="M372.53,119.54a32.57,32.57,0,0,1,13.21,2c12.13,5.53,19.53,21.57,17.6,38.17-2.8,29.1-33.14,42.73-48.86,18.32-9.5-15.12-7.81-37.44,3.76-49.84a27,27,0,0,1,3.21-3,57.46,57.46,0,0,1,6.3-4Z"/><path id="Path_261" data-name="Path 261" class="cls-1" d="M317.52,184.65C306,186.07,295.78,175,294.7,160a35.9,35.9,0,0,1,.44-8.73c2.05-14.19,11.43-24.56,22.48-24.86l3.83-.16C348.29,133,340.08,182.07,317.52,184.65Z"/><path id="Path_262" data-name="Path 262" class="cls-5" d="M336.74,79.48c-11.65,10.26-31.55,19.39-44.12,16.6,5-29.91,25.45-52.43,55.33-47.8a19.77,19.77,0,0,1,4.78,2.19,7.44,7.44,0,0,1-.28,7C346.24,69.25,343.47,74.79,336.74,79.48Z"/><path id="Path_263" data-name="Path 263" class="cls-11" d="M352.42,57.46a7.44,7.44,0,0,0,.29-7c3.85-.94,2.54,4.53,7.56,23.82,4,15.14,8.15,30.18,12.24,45.26l-4.78,1.71C349.57,55.13,355.59,75.82,352,64c-2.21,2.3,1.61-6.75-25.89,64.12l-4.66-1.86C351.73,48.08,335,90.58,352.42,57.46Z"/><path id="Path_264" data-name="Path 264" class="cls-3" d="M306.47,83.14c-.48-.34-1-.48-1.15-.87A4,4,0,0,1,305.1,80c2-5.42,40.08-30.77,47.66-29.66.43.06,1,1,1.11,1.73a4.2,4.2,0,0,1-.49,2.18c-.18.37-.7.54-1.1.69-19.89,7.45-38.42,23.43-44.13,27.53A6.67,6.67,0,0,1,306.47,83.14Z"/><path id="Path_265" data-name="Path 265" class="cls-3" d="M383.26,163.28a34.76,34.76,0,0,1-1.51,5.45c-1.38,3.42-4.63,4.73-7.25,2.92a6.08,6.08,0,0,1-1.41-1.41,17.41,17.41,0,0,1-2.16-5c-.87-2.62,1.41-5.46,2.72-1.54.58,1.74,1.13,4.26,3.35,4.36,3.79.16,2.16-9.37,4.61-9.46.44,0,1.06.74,1.29,1.35A16.31,16.31,0,0,1,383.26,163.28Z"/><path id="Path_266" data-name="Path 266" class="cls-3" d="M309.44,162.14a7.67,7.67,0,0,1,.87-2.42c.33-.34,1.46-.27,1.55,0,.59,1.71.92,3.57,1.47,5.3a1.51,1.51,0,0,0,2.3.86,1.8,1.8,0,0,0,.37-.36c3-4.73,2.66-5.94,4.68-5.17a1.77,1.77,0,0,1,.52,1.33c-1,9-8.59,11.83-10.86,5A34.69,34.69,0,0,1,309.44,162.14Z"/><path id="Path_267" data-name="Path 267" class="cls-3" d="M369.82,146.62c.26,6.19-7.4,7.66-8,1.19-.14-3.09,1.66-5.74,4-5.92H366C368,142.06,369.6,144.05,369.82,146.62Z"/><path id="Path_268" data-name="Path 268" class="cls-3" d="M381.61,146.83c-2-.12-3.56-2.33-3.48-5s1.9-4.56,3.9-4.52,3.57,2.29,3.5,4.91-1.75,4.66-3.76,4.57Z"/><path id="Path_269" data-name="Path 269" class="cls-3" d="M326.8,148.39C326.68,151,325,153,323,152.91c-2-.38-3.4-2.82-3.11-5.44.26-2.3,1.74-4,3.52-4.1,2,.17,3.49,2.41,3.36,5Z"/><path id="Path_270" data-name="Path 270" class="cls-3" d="M310.54,151c-2,0-3.64-2-3.82-4.55s1.49-4.82,3.49-4.92,3.68,2,3.76,4.56S312.52,150.9,310.54,151Z"/></g></g></g></g></svg>