<svg xmlns="http://www.w3.org/2000/svg" viewBox="0 0 231.34 367.15"><defs><style>.cls-1{fill:#0d6dc9;}.cls-2{fill:#fff;}.cls-3{fill:#39b54a;}.cls-4{fill:none;stroke:#000;stroke-miterlimit:10;stroke-width:4px;}</style></defs><g id="Layer_2" data-name="Layer 2"><g id="Layer_1-2" data-name="Layer 1"><path d="M87.7,359.1Q85.92,350,84.15,341l-1.78-9.07a9.46,9.46,0,0,1-.13-4.78l1.19-4.51q4.78-18.21,9.58-36.43H90.12q5.16,28.33,10.33,56.67c.3,1.63,2.4,1.2,2.9,0a212.43,212.43,0,0,1,22.93-41.75l-2.74-.36a32,32,0,0,0,14.32,21.09,1.5,1.5,0,0,0,2-.54l9.64-22.53-2.74-.36c6.18,15,1.49,31.71,4.55,47.27,1.35,6.86,4.78,13.12,11,16.63,7.63,4.3,16.42,2.84,23.49-1.87,8.59-5.71,14.89-14.95,18-24.72a1.51,1.51,0,0,0-2.2-1.69c-8.85,6.11-21.75,5.73-29.86-1.54a24.78,24.78,0,0,1-5.6-28.55l-2.05.54a197.53,197.53,0,0,0,45.06,17.15c7.15,1.71,23.68.68,22-10.35-.9-6-7.2-8.45-12.37-9.69-6.61-1.59-13.58-2.51-19.76-5.5-5.35-2.59-9.39-6.55-10.34-12.58-.67-4.19.24-9.64,4.33-11.84,3.14-1.68,7-.55,10-2.54a8,8,0,0,0,3.52-6.25c.48-5.82-3.05-11.9-6.74-16.12l-1.06,2.56A16.77,16.77,0,0,0,214,240.49a1.51,1.51,0,0,0-1.29-2.25c-16-.72-29.71-15.42-29.45-31.41L181,208.12c7.4,3.76,19.26,7.89,26.69,2.07a11.73,11.73,0,0,0,3.52-13.09c-2-5.6-6.58-9.7-11.47-12.76-5.49-3.44-11.8-6.45-14.89-12.47l-.9,2.21L199.79,170a1.51,1.51,0,0,0,.9-2.2A97.36,97.36,0,0,0,181,147.87l.68,1.69c.54-2,2.57-1.47,4.18-1.08,2.39.59,4.69,1.49,7.11,2a10.46,10.46,0,0,0,6.7-.42,8.88,8.88,0,0,0,4.24-5c2-5.19-.15-10.29-3.73-14.17a68.11,68.11,0,0,0-6.94-6.09,75.23,75.23,0,0,1-6.9-6.46,78.7,78.7,0,0,1-18.47-33.06,76.08,76.08,0,0,1-2.71-18.85c-.09-6.24.56-12.47,1-18.68,1-13.06,1.49-27.26-7.41-37.9-.8-1-2.12-.27-2.5.66-4.09,10-10.67,21.9-22,24.89-8.54,2.25-20-1.65-21.66-11.27l-.39,1.46c1.53-1.5,2.74-3.85,1.07-5.72-1.36-1.52-3.75-1.8-5.67-1.65-6,.48-10.43,5.17-9.74,11.31l1.9-1.44L76.66,19.35c-1.42-.53-2.51,1.53-1.46,2.51A14.16,14.16,0,0,1,78.87,36a12.74,12.74,0,0,1-11.1,9.37c-5.24.52-10.59-1.65-14.6-4.93-4.8-3.93-7.44-9.53-8.77-15.49-1.7-7.69-1.25-15.67-.81-23.47A1.52,1.52,0,0,0,41,.43,82.74,82.74,0,0,0,20.52,62.86c1.09,13.06,3.62,25.83,2.66,39-.94,12.94-4.14,25.58-7.61,38-4,14.46-8.19,28.89-12.3,43.33-.38,1.35,1.54,2.68,2.51,1.46,2.45-3.1,6.48,1.45,6.81,4.11.56,4.38-3.78,8.73-5.77,12.26a13,13,0,0,0-1.43,10.6c1,3.1,3.44,5.6,6.88,5.4l-1.06-2.56a33,33,0,0,0-7,37,1.51,1.51,0,0,0,2.05.54,133.21,133.21,0,0,0,25.91-19.18L29.86,231A247.85,247.85,0,0,1,6.14,270.77c-.85,1.17.55,2.42,1.69,2.21a36.49,36.49,0,0,1,29.72,7.84l.3-2.35A179.42,179.42,0,0,0,.44,305.39a1.51,1.51,0,0,0-.23,1.82c3.79,5.32,9.81,8.08,16.23,8.58,7,.55,13.73-1.84,19.56-5.56a67.26,67.26,0,0,0,8.92-6.94c2.89-2.61,5.5-5.63,8.58-8,2.59-2,5.75-3.34,9-2.42a11.57,11.57,0,0,1,6.18,4.72A15.91,15.91,0,0,1,70,314.12c-3.27,6.25-9.32,10.37-15.42,13.54-5.92,3.08-12.88,4.95-17.88,9.55a14.86,14.86,0,0,0-3.78,16.32,20.54,20.54,0,0,0,15,13c8.62,1.85,17.45-.89,25.08-4.83,1.72-.88.2-3.47-1.51-2.59-6.88,3.55-15,6.2-22.77,4.52a17.47,17.47,0,0,1-13.26-12C33.5,345,37.16,339.7,42.87,336.5s12.23-5.32,17.91-8.93c5.41-3.44,10.29-8,12.76-14a18.69,18.69,0,0,0-1.31-16c-2.44-4.38-6.84-8.09-12.08-8-7,.11-11.76,6.46-16.45,10.79-6,5.6-13.17,11-21.53,12.27-7,1.06-15.08-.89-19.37-6.91l-.24,1.81a176.12,176.12,0,0,1,36.81-26.45,1.51,1.51,0,0,0,.3-2.36A39.7,39.7,0,0,0,7,270.09l1.7,2.2a248.29,248.29,0,0,0,23.72-39.75,1.5,1.5,0,0,0-2.35-1.82A130.11,130.11,0,0,1,4.8,249.43l2.05.54a29.93,29.93,0,0,1,6.48-33.36,1.51,1.51,0,0,0-1.06-2.56c-4.06.24-4.94-5.24-4.24-8.28,1.05-4.48,4.93-7.94,6.63-12.18,1.53-3.83,1.07-7.76-2-10.66-2.5-2.35-6.56-3.43-9-.37L6.16,184l10.8-38c3.45-12.17,6.82-24.41,8.48-37a108.54,108.54,0,0,0,.93-19c-.29-6.44-1.21-12.82-2-19.21C22.91,59,22.56,47.27,25.56,35.55a78.82,78.82,0,0,1,17.59-33L40.59,1.49c-.81,14.2-1.38,31.8,11,41.53,4.7,3.68,10.77,6,16.8,5.29a15.71,15.71,0,0,0,13-10.42c2.2-6.19.78-13.63-4.1-18.15l-1.46,2.5L99,31a1.51,1.51,0,0,0,1.9-1.45,7.14,7.14,0,0,1,6.86-8.32,6.83,6.83,0,0,1,2.21.14,2.86,2.86,0,0,1,1.14.57c.11.1,0,0,0,.17,0-.09-.17.38-.27.55s-.52.53-.74.82A2.69,2.69,0,0,0,110,26c1.52,6.43,7.35,10.74,13.51,12.3A23.49,23.49,0,0,0,143.55,34c7.55-5.64,12.12-14.19,15.62-22.73l-2.51.66c7.85,9.39,7.51,22.26,6.68,33.78-.43,6-1.08,12.07-1.18,18.13A79.29,79.29,0,0,0,164,82.18a82,82,0,0,0,15.37,32.62,80.49,80.49,0,0,0,12.82,13c4.19,3.41,9.88,7.58,9.46,13.65-.17,2.46-1.38,5.32-3.9,6.14s-5.39-.33-7.74-1c-3.83-1.15-9.78-3.2-11.23,2.21a1.56,1.56,0,0,0,.69,1.69A92.4,92.4,0,0,1,198.1,169.3l.89-2.2-15.88,4.08a1.52,1.52,0,0,0-.89,2.21c4.91,9.55,16.57,11.62,23.12,19.54,3.12,3.77,5.13,9.23,1.82,13.54-2.41,3.14-6.67,3.66-10.35,3.4a37.92,37.92,0,0,1-14.33-4.34,1.52,1.52,0,0,0-2.26,1.3c-.29,17.67,14.83,33.61,32.45,34.41l-1.3-2.26a13.77,13.77,0,0,1-12.52,7.32,1.51,1.51,0,0,0-1.06,2.56c3.13,3.58,6.25,8.86,5.87,13.81-.49,6.35-8.18,4.16-12.25,6.48-8.07,4.62-7,17.16-1.87,23.51,3.7,4.6,9.67,7.08,15.19,8.68,3.2.92,6.47,1.6,9.73,2.31a40.6,40.6,0,0,1,8.68,2.46c2.43,1.14,4.78,2.91,5.15,5.75a5.07,5.07,0,0,1-2.27,4.82c-3.69,2.71-9.2,3.05-13.58,2.5a69.35,69.35,0,0,1-10.79-2.74c-4-1.19-8.05-2.52-12-4a203.54,203.54,0,0,1-24-10.61,1.52,1.52,0,0,0-2.05.53,28,28,0,0,0,1.19,26.19A26.57,26.57,0,0,0,188.1,341.3a27.14,27.14,0,0,0,15.06-4.7l-2.2-1.69A44.42,44.42,0,0,1,186,356.64c-6.33,4.83-14.59,7.21-21.95,3.17-12.91-7.11-10.83-25.08-10.88-37.5,0-8.3-.3-16.94-3.51-24.72-.42-1-2.17-1.69-2.74-.36l-9.64,22.54,2.05-.54a29.09,29.09,0,0,1-12.94-19.3c-.26-1.38-2.07-1.31-2.74-.36A216.21,216.21,0,0,0,100.45,342h2.9Q98.18,313.7,93,285.37c-.27-1.5-2.54-1.36-2.89,0q-4.94,18.74-9.86,37.48c-.43,1.61-.89,3.23-1.28,4.85a8,8,0,0,0,.23,3.59l1.91,9.77Q83,350.48,84.8,359.9c.37,1.89,3.27,1.09,2.9-.8Z"/><path class="cls-1" d="M68.41,366.29a1.5,1.5,0,0,0,0-3,1.5,1.5,0,0,0,0,3Z"/><path class="cls-1" d="M75.31,359.4H85.65a1.5,1.5,0,0,0,0-3H75.31a1.5,1.5,0,0,0,0,3Z"/><path class="cls-1" d="M47.89,128.89a1.5,1.5,0,0,0,0-3,1.5,1.5,0,0,0,0,3Z"/><path class="cls-2" d="M96.17,72.61c6.61-4.29,15-1.22,20.49,5.18s8.52,15.48,10.82,24.5c3.26,12.74,5.17,27.44-.17,39a29.46,29.46,0,0,1-19.29,16c-7.72,2.07-15.71,1.37-23.57.66-4.47-.4-9-.84-13.12-3.19-11.67-6.71-15-25.66-16-42a56.33,56.33,0,0,1,.3-13.37A29.65,29.65,0,0,1,71.26,78.46c7.28-3.71,15.25-4.33,23.06-4.9"/><path class="cls-1" d="M96.92,73.91c6.93-4.36,15,.13,19.43,5.86,5.39,6.91,7.94,15.77,10,24.14,3.87,15.74,5.86,36.52-9.07,47.3-7.18,5.19-15.89,6.22-24.54,5.82a100.23,100.23,0,0,1-14.16-1.34,19.29,19.29,0,0,1-10.12-5c-5-4.86-7.4-11.85-9-18.46a118.37,118.37,0,0,1-2.85-24,34.68,34.68,0,0,1,1.89-13.52,27.7,27.7,0,0,1,6.2-9.52c6.07-6.16,14.34-8.55,22.73-9.47,2.29-.25,4.58-.42,6.87-.59,1.92-.14,1.93-3.14,0-3C84.91,72.75,75,73.66,67,79.25a31.15,31.15,0,0,0-13,20.87,70,70,0,0,0,0,15.18c.32,4.21.8,8.41,1.53,12.57,1.32,7.58,3.46,15.54,8.12,21.81a22.23,22.23,0,0,0,8.1,7c4.55,2.17,9.62,2.5,14.57,2.93,9.67.85,19.74,1.15,28.61-3.42a31.19,31.19,0,0,0,15.62-19.45c2.56-9.15,1.7-19-.12-28.17s-4.35-18.86-9.24-26.95C117,74.6,109.62,68,100.85,69.28a14,14,0,0,0-5.44,2c-1.63,1-.13,3.63,1.51,2.6Z"/><path class="cls-3" d="M92,96.08c7.76-4.58,18.22.93,21,11.09a40.09,40.09,0,0,1,1,12.16,38.08,38.08,0,0,1-1.06,8.43,21.85,21.85,0,0,1-12.66,14.36c-5.59,2.32-11.63,2.32-17.52,1.95a9.84,9.84,0,0,1-4.76-1.15c-3.14-1.95-4.35-6.73-5-11a134.32,134.32,0,0,1-1.61-19.15,10.32,10.32,0,0,1,.54-4.17,7.08,7.08,0,0,1,3.28-3.15,57,57,0,0,1,30.09-7.76"/><path class="cls-1" d="M92.78,97.37c7-4,15.12,1.21,18,7.9,2.2,5.06,2,11,1.6,16.44s-1.91,10.16-5.55,14.06a22,22,0,0,1-12.43,6.48,41.84,41.84,0,0,1-8.44.47c-2.39-.07-5.57.19-7.56-1.35-1.67-1.28-2.47-3.47-3-5.42A53.32,53.32,0,0,1,74,128.32q-.57-4.41-.85-8.85A55.81,55.81,0,0,1,73,110.8c.28-3,3-4.16,5.44-5.4a57.25,57.25,0,0,1,8.75-3.64,54.66,54.66,0,0,1,18.18-2.61c1.93,0,1.93-3,0-3A57.32,57.32,0,0,0,87,98.67a61.52,61.52,0,0,0-8.67,3.43c-2.41,1.16-5.31,2.39-7,4.58-1.88,2.51-1.46,6-1.36,8.95q.18,5,.73,10.07a89.45,89.45,0,0,0,1.35,9.2,18.14,18.14,0,0,0,2.82,7,9,9,0,0,0,6.71,3.54,55.8,55.8,0,0,0,9.41.18c5.74-.38,11.24-2,15.74-5.67a23.2,23.2,0,0,0,8.11-13.65,54.15,54.15,0,0,0,.76-9.85,35.67,35.67,0,0,0-1.1-9.71,19.44,19.44,0,0,0-9.36-12,14.33,14.33,0,0,0-13.88,0,1.5,1.5,0,0,0,1.51,2.59Z"/><path d="M89,108.09c4.78-.56,10.23-.85,13.68,3.34,3.31,4,3.3,11.23.55,15.88A12.85,12.85,0,0,1,91,133.65a10.9,10.9,0,0,1-6.15-2.5c-4.36-3.74-5.51-11.93-3-17.73s8.17-8.93,13.42-8.29"/><path class="cls-1" d="M89,109.59c5-.58,11.06-.77,13.62,4.55a13.55,13.55,0,0,1-2.42,14.67c-3.69,3.75-10.44,4.83-14.55,1.08-3.71-3.38-4.33-9.54-3-14.13,1.59-5.58,6.77-9.76,12.67-9.13,1.92.2,1.91-2.8,0-3C88.85,103,82.9,107.19,80.43,113c-2.4,5.62-1.88,13,2,17.89,4.23,5.25,12.45,5.53,17.76,1.82,5.48-3.84,7.65-11.09,6-17.47a11.54,11.54,0,0,0-6.45-7.81c-3.39-1.46-7.16-1.23-10.74-.82-1.9.22-1.92,3.22,0,3Z"/><path class="cls-4" d="M32.15,164.3c2.89,4.47,21.32,32,56.18,36.92,35.79,5.09,60.63-17.61,64.32-21.1"/><path d="M52.56,190.13c2.21,4.55,1.85,9.78,3.1,14.59a15.71,15.71,0,0,0,7.3,9.73c3.56,2.12,8,2.79,11.78.85,3.13-1.61,4.67-4.72,5.53-8,1-3.59,1.29-7.63,4.24-10.25,1.44-1.28-.69-3.4-2.12-2.12-2.44,2.17-3.51,5.23-4.24,8.32-.66,2.8-1.07,6.1-3.2,8.22-2.6,2.59-6.64,2.39-9.7.81a12.84,12.84,0,0,1-6.75-8.57c-1.26-5.06-1-10.32-3.35-15.1-.84-1.74-3.43-.22-2.59,1.51Z"/><path d="M120.53,200c1.31.53.82,3.59.73,4.59-.2,2.31-.68,4.6-.72,6.91a11.38,11.38,0,0,0,6.51,10.65c4.22,1.83,8.25-.11,10.88-3.59,3.09-4.1,4.29-9.6,4.36-14.65.1-7.24-2-14.27-4.15-21.1-.58-1.84-3.47-1.06-2.9.79,3.11,9.94,6.87,22.12,1.15,31.87-1.88,3.21-5.18,5.72-8.83,3.59a8.13,8.13,0,0,1-3.46-4.14,13,13,0,0,1-.33-6.22c.44-3.66,2-9.78-2.44-11.59-1.79-.73-2.56,2.17-.8,2.89Z"/></g></g></svg>