<svg xmlns="http://www.w3.org/2000/svg" viewBox="0 0 172.02 391.26"><defs><style>.cls-1{fill:#ef4925;}.cls-2{fill:#64873e;}.cls-3{fill:#161616;}</style></defs><g id="Layer_2" data-name="Layer 2"><g id="Layer_1-2" data-name="Layer 1"><g id="Group_53" data-name="Group 53"><path id="Path_408" data-name="Path 408" class="cls-1" d="M148.71,111c11.79,10.23,26.6,45.46,22.66,94.54-6,75-34.87,148-48.07,166.41C103.88,399.12,75.91,400,51.75,359.37,28.28,321.24,11.41,276.26,2.42,227.84a173,173,0,0,1,5.17-79.63,120.74,120.74,0,0,1,7-15.77c2.64,23.67,11.51,14.38,32.33-.68a136.53,136.53,0,0,0,2.6,15.9c4.16,14.17,13.24,16.06,20.14,4.2q3.93-7.56,7.22-15.68c1.68-3.64,2.35-8.32,6.18-10.74,22.2,21.17,25,22.86,30.28,23.76,4.4,1.26,8.72-2.62,9.64-8.68a15.35,15.35,0,0,0-.39-6.37c-.45-2.56-1.51-4.91-2-7.46a56.19,56.19,0,0,1-.46-6.62C136.49,125.06,142.21,129.14,148.71,111Z"/><path id="Path_409" data-name="Path 409" class="cls-2" d="M148.71,111c-6.52,18.18-12.3,14.06-28.61,9.07a56.21,56.21,0,0,0,.45,6.63c.51,2.55,1.54,4.9,2,7.46,2.48,13.51-7,19.8-17.39,11.29-5.85-4.79-16.18-14.32-22.15-20-3.82,2.43-4.5,7.11-6.17,10.75-2.2,5.4-4.61,10.64-7.22,15.67-6.91,11.86-16,10-20.15-4.19a134.93,134.93,0,0,1-2.59-15.91c-20.75,15-29.71,24.37-32.34.69C26.14,96.11,67.8,80.76,78.8,76.7c11.55,0,23.19-4.57,51,9.67C138.34,90.75,146.08,97.46,148.71,111Z"/><path id="Path_410" data-name="Path 410" class="cls-3" d="M80,6.11C89.19-8,107.86,4.93,101.47,18.24c-3.36,7-17.67,30.24-22.66,58.47L64.48,82.62C64,68.27,70.39,20.92,80,6.11Z"/><path id="Path_411" data-name="Path 411" class="cls-3" d="M63,251.34q.24-2.73.67-5.4c.84-4.21,4-6.67,7.05-5.51a3.47,3.47,0,0,1,.59.27c7.17,4.21,9.62,12.34,18.28,5.34,5.92-4.8,13.88-7.53,15.48,1.76C107.36,261.31,93,295.69,80.26,286,70.75,279,64.3,266.06,63,251.34Z"/><path id="Path_412" data-name="Path 412" class="cls-3" d="M106.36,204.41c-1.24,7-1.41,13.7-6.77,14.13-5.09.41-9.33-9.93-3.91-20.87,1.81-3.32,5.23-4,7.65-1.51a7.08,7.08,0,0,1,1.36,2A43.4,43.4,0,0,1,106.36,204.41Z"/><path id="Path_413" data-name="Path 413" class="cls-3" d="M73.05,209.93c-.15,11.86-7.74,13.23-11.35,6.14a15.87,15.87,0,0,1,.43-14.61c2-3.38,5.58-3.9,8-1.17a8.06,8.06,0,0,1,1.48,2.49A54.12,54.12,0,0,1,73.05,209.93Z"/><path id="Path_414" data-name="Path 414" class="cls-3" d="M38.55,171c.27-.78.75-2.39,1.38-3.86s3-1.25,3.24.25c.56,4.26.95,8.57,1.26,12.87,0,.45-.86,1.29-1.41,1.49C40.61,182.67,38.44,178.28,38.55,171Z"/><path id="Path_415" data-name="Path 415" class="cls-3" d="M104,314.72c.12,6.89-1.29,10.6-3.41,9.73-1.92-.79-2.67-3.8-2.14-9.14.55-5.51,3.82-6,4.78-3.66A18.15,18.15,0,0,1,104,314.72Z"/><path id="Path_416" data-name="Path 416" class="cls-3" d="M17.7,203.12c-.73,1.54-1.28,3.5-1.7,3.44-6.05-.82-6.07-13.34-2.92-14.33C15.64,191.47,15.9,195.16,17.7,203.12Z"/><path id="Path_417" data-name="Path 417" class="cls-3" d="M105.89,354.84c.74,1.08,1.88,2,1.87,2.85a56.22,56.22,0,0,1-.81,8.91c-.33,1.95-3.28,3.86-3.8,2.78-1.12-2.37-1.87-4.76.41-12.24C103.84,356.18,105,355.71,105.89,354.84Z"/><path id="Path_418" data-name="Path 418" class="cls-3" d="M132.43,327.26c-1.85,6.48-2.33,10.44-5,9.64-4.37-1.33-.13-14.27,2.65-12.39A14.84,14.84,0,0,1,132.43,327.26Z"/><path id="Path_419" data-name="Path 419" class="cls-3" d="M155.54,184c1.75-3.65,4.27-2.47,4.7.85.91,7.09-.83,11.12-2.94,10.47C154.27,194.38,154.2,186.78,155.54,184Z"/><path id="Path_420" data-name="Path 420" class="cls-3" d="M48.08,319.78c-.95-.09-1.7.13-2.14-.27-2.57-1.93-4-5.87-3.51-9.83.1-.77.57-1.92,1-2.05.84-.24,2.28-.33,2.58.3a65.4,65.4,0,0,1,3.29,9.13C49.48,317.7,48.46,319,48.08,319.78Z"/><path id="Path_421" data-name="Path 421" class="cls-3" d="M132,288.07c-2.57,1.36-4.29-9.94,1-12.93C135.39,273.79,137.29,285.25,132,288.07Z"/><path id="Path_422" data-name="Path 422" class="cls-3" d="M129.24,214.59c2.25,1.85,3,5.86,1.64,9a9.1,9.1,0,0,1-.49.93c-2,3.59-7.17-4-2.87-9.31C127.93,214.7,128.66,214.78,129.24,214.59Z"/><path id="Path_423" data-name="Path 423" class="cls-3" d="M126.46,176.6a15.31,15.31,0,0,1-.56,2.82c-.3.66-.88,1.54-1.33,1.53a2.83,2.83,0,0,1-2.43-1c-2.61-4.79-1.37-11.75,1-12.17C125.85,167.28,125.84,172,126.46,176.6Z"/><path id="Path_424" data-name="Path 424" class="cls-3" d="M73.14,344.06c-.94,1.09-1.54,2.29-2.27,2.47a2.33,2.33,0,0,1-2.37-1.06c-3-8.74,1.62-10.08,2.9-7.3A41.38,41.38,0,0,1,73.14,344.06Z"/><path id="Path_425" data-name="Path 425" class="cls-3" d="M48.23,277.21c.84.39,1.67.42,2,1,3.18,6.32,1.85,10,.23,9.77-3.34-.48-4.05-3.7-3.94-8.34C46.49,278.75,47.66,277.93,48.23,277.21Z"/><path id="Path_426" data-name="Path 426" class="cls-3" d="M38.85,233.84c-.68,1.07-1.14,2.46-1.83,2.73a2.48,2.48,0,0,1-2.47-.91c-3.91-4.95,1.72-11.5,3.21-6.74C38.19,230.53,38.56,232.17,38.85,233.84Z"/><path id="Path_427" data-name="Path 427" class="cls-3" d="M152.58,244.84a18.63,18.63,0,0,1,0,3.08c-1.11,5.21-4.31,5.93-5.38,4.2-1.59-2.56-.29-4.81.61-7,.59-1.53,1.78-2.41,3-2.24A9.07,9.07,0,0,1,152.58,244.84Z"/><path id="Path_428" data-name="Path 428" class="cls-3" d="M22.49,262.14c.86.26,1.7.17,2,.67,7.22,12.85-4.68,10.57-3.39,2.12A9,9,0,0,1,22.49,262.14Z"/><path id="Path_429" data-name="Path 429" class="cls-3" d="M89.07,373.53c-.29,1.68-1.52,2.72-2.75,2.31h0c-5.61-3.76-2.66-11.92,0-9.8C88.25,367.53,89.34,370.49,89.07,373.53Z"/><path id="Path_430" data-name="Path 430" class="cls-3" d="M146.78,137.48c3.81-.87,4.87,4.68,2.45,6.45-1.28.73-2.75-.11-3.28-1.87a5.3,5.3,0,0,1-.17-.9A11.64,11.64,0,0,1,146.78,137.48Z"/></g></g></g></svg>