<svg xmlns="http://www.w3.org/2000/svg" viewBox="0 0 224.45 307"><defs><style>.cls-1{fill:#fff;}.cls-2{fill:#ffaa25;}.cls-3{fill:#161616;}</style></defs><g id="Layer_2" data-name="Layer 2"><g id="Layer_1-2" data-name="Layer 1"><g id="Group_46" data-name="Group 46"><path id="Path_339" data-name="Path 339" class="cls-1" d="M136.87,187.69C167.12,161.45,181,3.31,131.24.06,80.47-3.26,95.82,143.11,80.47,176.44S115.91,205.87,136.87,187.69Z"/><path id="Path_340" data-name="Path 340" class="cls-2" d="M.52,148.93A6.6,6.6,0,0,1,2,141.61,49.77,49.77,0,0,1,31.82,122c35.16-8.68,60.43,23.09,83.64,52.26a201.57,201.57,0,0,1,42-50.53,64,64,0,0,1,31.47-15c31.24-5.42,44.51,27.72,29.12,27.09-25.75-1-52.7,35.81-65.3,60.85-15.17,30.19-18.2,42.73-32.27,61.62-14.91,20-29.62,20.18-44,26.5-10.37,4.53-12.25,13-16.81,18.82-6.15,7.89-19.19.82-12.35-11.86A34.88,34.88,0,0,0,51,274.22c-.41-18,8.51-22.69,12.91-52.56,1.58-10.76,2.48-26.19-2-35.93C43.62,146.23,15.3,150.14.52,148.93Z"/><path id="Path_341" data-name="Path 341" class="cls-3" d="M117.83,89.62a3.47,3.47,0,0,1,4.84-1.84,3,3,0,0,1,.52.35c3.83,3,5.09,6.81,8.31,3.89,1.41-1.28,2.69-2.72,4.14-3.94a2.83,2.83,0,0,1,4.17.82,9.63,9.63,0,0,1,1.56,4.7,16.6,16.6,0,0,1-8.25,13.79C123.42,113,114,98.32,117.83,89.62Z"/><path id="Path_342" data-name="Path 342" class="cls-3" d="M81.33,225.06c-.69-1.86-1.85-2.29.79-5.39,8.18-9.55,19-19.42,27.76-38.3,2-4.23,3.75-5.78,4.55-4.53,1.61,2.51-.34,4.39-1.17,6.3-7.68,17.52-16,26.43-29.06,40.35A11,11,0,0,1,81.33,225.06Z"/><path id="Path_343" data-name="Path 343" class="cls-3" d="M113.65,63.26a4.54,4.54,0,0,1,6.46-2.09,5,5,0,0,1,1.87,2c2.26,4.84-1.14,12.21-6.29,9.82a7.5,7.5,0,0,1-2.06-9.73Z"/><path id="Path_344" data-name="Path 344" class="cls-3" d="M146.83,67.08a30.55,30.55,0,0,1-.9,3.28,4.46,4.46,0,0,1-5.16,2.75,6.63,6.63,0,0,1-3.59-8.18,6.15,6.15,0,0,1,3.71-4A4.49,4.49,0,0,1,146,63.76,27.23,27.23,0,0,1,146.83,67.08Z"/><path id="Path_345" data-name="Path 345" class="cls-3" d="M54,276.05c.49.06,1.22-.09,1.44.21a28.92,28.92,0,0,0,10.66,8.5,2.54,2.54,0,0,1,.88,2.08c-.55,4-9.8-.41-13.67-7.06C52.63,278.56,53.08,276.24,54,276.05Z"/><path id="Path_346" data-name="Path 346" class="cls-3" d="M68.54,238.72c-.22-.58-.88-1.51-.68-2a16,16,0,0,1,6.25-7.37c.9-.54,2.38.9,2.11,1.64a12.33,12.33,0,0,1-6.64,7.77C69.37,238.89,69.06,238.78,68.54,238.72Z"/></g></g></g></svg>