<svg xmlns="http://www.w3.org/2000/svg" viewBox="0 0 553.8 592.58"><defs><style>.cls-1{fill:#fff;}.cls-2{fill:red;}</style></defs><g id="Layer_2" data-name="Layer 2"><g id="Layer_1-2" data-name="Layer 1"><path d="M47.79,223.81a1.5,1.5,0,0,0,0-3,1.5,1.5,0,0,0,0,3Z"/><path class="cls-1" d="M121.29,149.48c10.06-5.71,22.87-1.62,31.2,6.89s13,20.57,16.48,32.56c4.95,16.95,7.86,36.49-.27,51.82-6.13,11.55-17.62,18.51-29.37,21.26s-23.91,1.82-35.88.88c-6.8-.54-13.76-1.12-20-4.24-17.76-8.93-22.8-34.13-24.33-55.84-.41-5.94-.73-12,.46-17.78,2.68-13,12.7-22.85,23.77-27.78s23.22-5.75,35.11-6.51"/><path d="M122.05,150.77c10-5.58,22.23-.78,29.66,6.95,8.56,8.91,12.84,21.15,16.16,32.81,3.36,11.81,5.78,24.57,3.69,36.84a40.39,40.39,0,0,1-6.39,16.31A39.35,39.35,0,0,1,153,254.91c-11.17,6.73-24.3,7.82-37.06,7.3a198.75,198.75,0,0,1-20.54-1.63c-5.75-.84-11.32-2.61-16-6.24-7.83-6.14-12.07-15.76-14.66-25.12A137.58,137.58,0,0,1,60.29,196c-.15-6.44.62-12.81,3.51-18.64A39.14,39.14,0,0,1,74,164.74c9.7-8,22.27-10.63,34.48-11.77,3.31-.3,6.64-.52,10-.73,1.92-.13,1.93-3.13,0-3-13.61.87-27.9,1.87-40,8.81-10.07,5.78-18.2,15.47-20.43,27-1.32,6.87-.76,14-.17,20.9a151.65,151.65,0,0,0,2.34,17c2.1,10.44,5.64,21.19,12.77,29.34a32.24,32.24,0,0,0,12.54,8.87c6.58,2.58,13.82,2.89,20.79,3.42,14,1.07,28.61,1.66,41.82-3.9,11.13-4.68,20.14-13.27,24.28-24.73,4.44-12.3,3.14-26,.31-38.51a148.81,148.81,0,0,0-5.65-19.09,73.88,73.88,0,0,0-8.76-17.3c-6.74-9.47-17.74-17.15-29.89-15.53a22.26,22.26,0,0,0-7.91,2.63c-1.69.94-.17,3.53,1.52,2.59Z"/><path class="cls-2" d="M115,180.68c11.81-6.09,27.73,1.24,32,14.74,1.64,5.15,1.74,10.72,1.49,16.17a44.31,44.31,0,0,1-1.61,11.21c-2.87,9.32-10.74,16-19.27,19.09S109.93,245,101,244.48A16.73,16.73,0,0,1,93.7,243c-4.78-2.59-6.61-8.94-7.64-14.67a156,156,0,0,1-2.45-25.46,12,12,0,0,1,.82-5.55c1-2.05,3.06-3.21,5-4.18a97,97,0,0,1,45.81-10.33"/><path d="M115.74,182c10.29-5.19,23.07.52,28.3,10.23,3.68,6.86,3.41,15.41,2.75,23a30,30,0,0,1-2.9,11.11,27.62,27.62,0,0,1-6.11,7.86c-5.33,4.83-12.14,7.41-19.18,8.46a72.56,72.56,0,0,1-12.15.62c-2,0-4.1-.13-6.15-.25a14.13,14.13,0,0,1-5.84-1.29c-2.71-1.47-4.29-4.32-5.28-7.13a58.11,58.11,0,0,1-2.35-10.69q-1-6.37-1.39-12.8-.22-3.27-.3-6.52c0-2-.28-4.17.41-6.06a6.84,6.84,0,0,1,3.34-3.39c1.68-1,3.46-1.76,5.22-2.55a97.38,97.38,0,0,1,11.32-4.21,95.7,95.7,0,0,1,23.74-4c2-.08,4.05-.09,6.07,0s1.93-2.95,0-3a98.07,98.07,0,0,0-38.73,7q-3,1.22-6,2.62a26.36,26.36,0,0,0-5,2.82c-3.6,2.83-3.5,7.1-3.38,11.29q.21,7,1,14a111.27,111.27,0,0,0,2.12,13,23.44,23.44,0,0,0,4.28,9.49c2.61,3.17,6.33,4.21,10.29,4.49a108,108,0,0,0,13.46.18c8.09-.45,16.23-2.32,23-7a30.34,30.34,0,0,0,12.56-17.73,59.71,59.71,0,0,0,1.27-13.54,40.46,40.46,0,0,0-1.81-13.3c-4.07-11.87-17.36-20.08-29.8-16.81a22,22,0,0,0-4.28,1.65c-1.72.87-.2,3.46,1.52,2.59Z"/><path d="M110.36,196.65c7.28-.75,15.57-1.13,20.82,4.44,5,5.35,5,14.94.84,21.11s-11.65,9-18.66,8.43a18.07,18.07,0,0,1-9.37-3.32c-6.63-5-8.38-15.87-4.48-23.57a20.75,20.75,0,0,1,20.43-11"/><path d="M110.36,198.15c7.31-.74,16.92-1.32,21.25,6,3.92,6.64,1.84,15.68-3.85,20.58-6.06,5.21-16.5,6.31-23,1.29-5.66-4.37-7-12.91-4.83-19.39,2.75-8.29,11.53-13.24,20-12.42,1.92.18,1.91-2.82,0-3A22.32,22.32,0,0,0,98.21,203c-3.73,7.41-2.9,17.45,2.81,23.66,6.41,7,18.16,7,25.9,2.36A20,20,0,0,0,135.68,206a15.58,15.58,0,0,0-9.87-10c-4.93-1.72-10.35-1.34-15.45-.82-1.9.19-1.92,3.19,0,3Z"/><path d="M364.77,143.33c9.08,35.26,15,71.21,20,107.24,5.05,36.31,9.25,72.74,14.95,109,1.41,9,4.8,17.48,5.93,26.52s2.33,18.35,3.51,27.52q3.51,27.23,7.08,54.44c1,7.86,1.81,15.71,4,23.35a91.36,91.36,0,0,0,9,20.81c7.77,13.2,18.52,23.85,31,32.68,25.17,17.87,55,26.44,82.13,40.48a37,37,0,0,1,8.78,6.24l1.46-2.51c-4.53-.64-9.21-.83-13.44-2.72l-.76,2.8c4.6-.42,8.88.81,13,2.67l1.15-2.75c-8.06-2.26-16.21-4.16-24.41-5.85-8.67-1.79-17.57-2.6-26.32-4-8.59-1.42-17.17-2.91-25.81-4.06s-17.36-1.43-26.05-1.93c-17.36-1-34.71-2.34-52.11-2.08-17.86.27-35.68,1.64-53.49,3-16.66,1.28-33.34,3.14-49.56,7.25-8.6,2.18-17.1,4.68-25.92,5.89a190.84,190.84,0,0,1-26.4,1.46c-8.75,0-17.48-.36-26.23-.39-8.95,0-18,.79-26.92,1-18,.46-36,.27-53.88-.88-9-.58-18-1.4-26.94-2.51a97.73,97.73,0,0,0-12.21-.63c-3.73,0-6.8-1.09-10.41-1.74s-7.68-.6-11.45-.83c-4.27-.26-8.55-.55-12.81-1a97.23,97.23,0,0,1-13.43-2.44c-3.65-1-7.74-1.91-10.58-4.56-4.39-4.1-4.52-10.67-3.06-16.11.92-3.45,2.85-6.25,4.44-9.41A50,50,0,0,0,43,539.1c.92-3.66,1-7.29,1.42-11a22.16,22.16,0,0,0-.76-9.3c-1.1-3.43-3.13-5.91-5.26-8.7s-3.78-5.69-6.06-8.32C24.05,492.2,13,483.43,8.71,471.09c-2.47-7.19-1.33-14.31.13-21.59a166.49,166.49,0,0,1,6.51-23.18c5.48-15.4,12.84-30,20.17-44.62,7.08-14.1,13-28.66,13.94-44.6.9-15.44-3.77-29.7-12.72-42.18-8.8-12.27-20.73-22.59-27.86-36-15.49-29.13,3.56-59.61,16.82-85.45a81.79,81.79,0,0,0,4.46-9.06c1.3-3.58,2.14-7.34,3.45-10.94.67-1.81-2.23-2.6-2.89-.79-1.37,3.77-2.2,7.87-3.77,11.54-1.47,3.45-3.33,6.77-5.05,10.09-3.47,6.68-7,13.31-10.32,20.09C5.27,207.48-.26,221.64,0,236.4A52.87,52.87,0,0,0,4.6,257c3.12,7,7.93,13.17,12.79,19.06s10.19,11.69,14.88,17.87a83.36,83.36,0,0,1,11.14,19.63c6.17,15.33,3,33.81-2.44,48.82-2.84,7.87-6.74,15.22-10.48,22.69s-7.34,14.81-10.71,22.35C13.26,422,7.82,437.2,5.15,453c-1.13,6.68-1.47,13.07.91,19.52,2.11,5.73,5.67,10.74,9.59,15.37,4.23,5,8.91,9.6,13.27,14.48,2.55,2.86,4.51,6,6.76,9s4.64,5.79,5.54,9.79c.79,3.54.23,7.25-.06,10.82a40.38,40.38,0,0,1-2.88,11.8c-1.44,3.57-3.68,6.7-5.2,10.19a28.09,28.09,0,0,0-2,7.75c-.6,5.09.35,10.5,3.92,14.37,4.83,5.25,13.61,6.52,20.27,7.65,8.26,1.39,16.64,1.76,25,2.29a37.22,37.22,0,0,1,5.79.54c1.75.39,3.44,1,5.19,1.37,3.51.72,7.32.32,10.89.32,4.33,0,8.73.91,13,1.38,4.49.49,9,.9,13.48,1.26q13.71,1.08,27.48,1.41c18.14.47,36.3.08,54.42-.82,17.83-.89,35.67,1.06,53.49-.7a165.18,165.18,0,0,0,25.4-4.94c8.54-2.23,17.23-4.76,26-5.75,17.34-1.95,34.69-3.59,52.1-4.73,17.74-1.16,35.6-2,53.37-.93q13,.76,26.08,1.5c8.83.51,17.78.66,26.56,1.76,9.26,1.16,18.45,2.78,27.66,4.3,8.73,1.44,17.65,2.25,26.32,4,8.19,1.69,16.34,3.59,24.41,5.86,1.58.44,2.74-2,1.15-2.74-4.63-2.07-9.43-3.55-14.56-3.08-1.31.11-2.26,2.12-.76,2.79,4.53,2,9.32,2.34,14.17,3a1.51,1.51,0,0,0,1.45-2.51c-5-5-11.83-8-18.19-10.89-6.94-3.19-14-6.19-21-9.2-13.84-6-27.72-12-40.72-19.61-13.41-7.87-26.2-17.58-35.55-30.13a90.13,90.13,0,0,1-17.51-42.91c-2.2-17.93-4.65-35.84-7-53.76q-1.77-13.63-3.5-27.28c-.56-4.42-1-8.85-1.67-13.25A90.68,90.68,0,0,0,405,370.11c-2.55-8.61-3.4-17.79-4.7-26.65q-2-13.62-3.82-27.26c-2.42-18-4.69-36-7.12-54-4.8-35.7-10.2-71.37-18.47-106.45q-1.56-6.61-3.26-13.18c-.48-1.87-3.37-1.08-2.89.8Z"/><path d="M26.77,160.86a235.78,235.78,0,0,1,40.56-44,249,249,0,0,1,50-32.63,255,255,0,0,1,56.41-20,239.89,239.89,0,0,1,63.7-6c24.7,1.09,49.07,6.29,72.51,14,2.94,1,5.86,2,8.77,3,1.82.65,2.6-2.25.8-2.89-23.53-8.42-48-14.44-72.94-16.54a239.61,239.61,0,0,0-66.32,4,257.64,257.64,0,0,0-57.72,18.68A253.31,253.31,0,0,0,71,110.05,240,240,0,0,0,28.6,153.29c-1.51,2-3,4-4.42,6.05-1.12,1.58,1.48,3.08,2.59,1.52Z"/><path class="cls-2" d="M262.4,57.92a62.59,62.59,0,0,0,25-47.06c.11-2.49.12-5.19,1.63-7.18,4.73-6.25,13.88,2.08,16.54,9.45A201,201,0,0,1,317.38,86"/><path d="M263.16,59.22a63.8,63.8,0,0,0,18.76-22.13,65.31,65.31,0,0,0,5.16-13.57A81.24,81.24,0,0,0,289,8.87c.14-2,.6-4.43,2.56-5.48a4.53,4.53,0,0,1,4.08.21c3.66,1.72,6.58,5.47,8.16,9.1a79.34,79.34,0,0,1,2.74,8Q307.89,24.79,309,29q2.31,8.5,3.85,17.19a199.23,199.23,0,0,1,3,39.84c0,1.93,3,1.93,3,0a202.68,202.68,0,0,0-11.51-72.4A23.77,23.77,0,0,0,299.82,2.7c-2.87-2.24-7-3.92-10.29-1.55-4.32,3.1-3.38,9.14-3.9,13.78A60.18,60.18,0,0,1,282,29.74a60.87,60.87,0,0,1-20.3,26.89c-1.54,1.14,0,3.74,1.51,2.59Z"/><path class="cls-2" d="M120.8,76.43c-17.6-2.35-29.8-23.6-23-40-11.06-8.07-25.63,4.89-31,17.48a101,101,0,0,0-3.43,69.28"/><path d="M121.2,75c-13.13-1.85-23.11-14.3-23.76-27.29a25.38,25.38,0,0,1,1.84-10.86,1.52,1.52,0,0,0-.69-1.7c-11.94-8.49-25.68,4.45-31.3,14.48a62.94,62.94,0,0,0-4.42,10.47A97.26,97.26,0,0,0,59.6,72a103.42,103.42,0,0,0-2.18,24.44A102.18,102.18,0,0,0,62,123.6c.58,1.83,3.47,1.05,2.9-.8a99.48,99.48,0,0,1-3.18-45.73A98.28,98.28,0,0,1,68,54.9,37.64,37.64,0,0,1,79.66,39.65c5.15-3.89,11.74-5.95,17.42-1.92L96.39,36c-5.52,13.48,1,29.75,12.84,37.56a27.25,27.25,0,0,0,11.17,4.28,1.57,1.57,0,0,0,1.85-1,1.51,1.51,0,0,0-1-1.84Z"/><path d="M211.1,216.58a1.5,1.5,0,0,0,0-3,1.5,1.5,0,0,0,0,3Z"/><path class="cls-1" d="M284.6,142.24c10.06-5.7,22.87-1.61,31.2,6.9s13,20.57,16.48,32.56c5,16.94,7.86,36.49-.27,51.82-6.12,11.55-17.62,18.51-29.37,21.26s-23.9,1.82-35.88.88c-6.8-.54-13.76-1.12-20-4.24-17.75-8.93-22.8-34.13-24.33-55.84-.41-5.94-.73-12,.47-17.79,2.67-13,12.7-22.84,23.77-27.77s23.21-5.75,35.11-6.52"/><path d="M285.36,143.54c10.05-5.58,22.24-.78,29.66,7,8.56,8.91,12.84,21.15,16.16,32.81s5.78,24.57,3.7,36.84a40.51,40.51,0,0,1-6.4,16.3,39.26,39.26,0,0,1-12.17,11.24c-11.17,6.72-24.3,7.82-37.05,7.3a198.53,198.53,0,0,1-20.54-1.63c-5.76-.85-11.33-2.61-16-6.24C234.93,241,230.69,231.35,228.1,222a137.58,137.58,0,0,1-4.5-33.18c-.15-6.44.62-12.81,3.52-18.64a38.87,38.87,0,0,1,10.23-12.66c9.7-8,22.27-10.63,34.48-11.77,3.32-.31,6.64-.52,10-.74,1.91-.12,1.93-3.12,0-3-13.61.88-27.9,1.88-40,8.82-10.07,5.78-18.2,15.47-20.42,27.05-1.32,6.87-.77,14-.18,20.9a154.34,154.34,0,0,0,2.34,17c2.1,10.44,5.65,21.19,12.77,29.34A32.42,32.42,0,0,0,248.85,254c6.58,2.58,13.82,2.89,20.79,3.42,14,1.07,28.61,1.66,41.83-3.9,11.13-4.69,20.14-13.27,24.27-24.73,4.44-12.3,3.14-26,.32-38.52a150.81,150.81,0,0,0-5.66-19.08,73.49,73.49,0,0,0-8.76-17.3c-6.74-9.47-17.74-17.15-29.89-15.53a22.14,22.14,0,0,0-7.9,2.63c-1.69.93-.18,3.53,1.51,2.59Z"/><path class="cls-2" d="M278.29,173.45c11.82-6.09,27.74,1.24,32,14.74,1.64,5.14,1.74,10.72,1.5,16.17a44.83,44.83,0,0,1-1.61,11.21c-2.88,9.32-10.75,16-19.27,19.08s-17.71,3.09-26.68,2.6a16.76,16.76,0,0,1-7.26-1.53c-4.78-2.59-6.61-8.94-7.64-14.67a156.25,156.25,0,0,1-2.45-25.46,12.05,12.05,0,0,1,.83-5.55c1-2,3.05-3.21,5-4.19a97,97,0,0,1,45.8-10.32"/><path d="M279.05,174.74c10.29-5.19,23.08.52,28.3,10.23,3.69,6.86,3.41,15.41,2.75,22.94A29.69,29.69,0,0,1,307.2,219a27.67,27.67,0,0,1-6.1,7.87c-5.34,4.83-12.14,7.41-19.19,8.46a72.56,72.56,0,0,1-12.15.62q-3.08-.06-6.15-.26a13.82,13.82,0,0,1-5.84-1.29c-2.71-1.46-4.29-4.31-5.28-7.12a58.37,58.37,0,0,1-2.34-10.7q-1-6.36-1.4-12.8-.21-3.26-.3-6.52c0-2-.28-4.16.41-6.05a6.88,6.88,0,0,1,3.35-3.4c1.67-1,3.45-1.75,5.21-2.54a96.86,96.86,0,0,1,11.33-4.21,94.64,94.64,0,0,1,23.74-4q3-.12,6.06,0c1.93,0,1.93-3,0-3a98.07,98.07,0,0,0-38.73,7c-2,.81-4,1.68-6,2.62a25.6,25.6,0,0,0-5,2.82c-3.6,2.83-3.49,7.1-3.38,11.29q.21,7,1,14a109.17,109.17,0,0,0,2.11,13,23.38,23.38,0,0,0,4.29,9.49c2.6,3.17,6.33,4.21,10.28,4.49a108,108,0,0,0,13.46.18c8.09-.45,16.23-2.32,23-7a30.37,30.37,0,0,0,12.56-17.72,59.71,59.71,0,0,0,1.26-13.54,40.71,40.71,0,0,0-1.8-13.3c-4.07-11.88-17.37-20.08-29.81-16.81a21.68,21.68,0,0,0-4.27,1.65c-1.73.87-.21,3.46,1.51,2.59Z"/><path d="M273.67,189.41c7.28-.74,15.58-1.12,20.83,4.45,5,5.35,5,14.93.84,21.11s-11.66,9-18.66,8.43a18.07,18.07,0,0,1-9.38-3.32c-6.63-5-8.37-15.87-4.48-23.57a20.75,20.75,0,0,1,20.44-11"/><path d="M273.67,190.91c7.32-.74,16.93-1.32,21.25,6,3.92,6.63,1.84,15.68-3.85,20.58-6.06,5.21-16.5,6.3-23,1.28-5.65-4.36-7-12.9-4.83-19.38,2.75-8.3,11.53-13.24,20-12.43,1.92.19,1.9-2.81,0-3a22.34,22.34,0,0,0-21.74,11.78c-3.72,7.41-2.9,17.45,2.81,23.66,6.41,7,18.17,7,25.9,2.36A20,20,0,0,0,299,198.72a15.59,15.59,0,0,0-9.87-10c-4.93-1.71-10.35-1.33-15.45-.82-1.9.2-1.92,3.2,0,3Z"/><path d="M121.49,383.63C178.07,385.84,235.09,388,291,378c7.1-1.27,15-3.34,18.76-10.06,4.43-7.89,1-18.21-3.42-26.1A106.85,106.85,0,0,0,229.77,289c-30.82-4.64-62.7,4.42-89.22,22.31-11.57,7.8-22.75,18.06-27,32.23s1.19,32.63,14.14,37.05"/><path d="M121.49,385.13c19.46.76,38.91,1.52,58.38,1.78s38.9,0,58.3-1.21c9.65-.61,19.29-1.46,28.89-2.63,9.13-1.1,18.38-2.26,27.38-4.23,6.83-1.49,14-4.47,17.12-11.2,3.46-7.48,1.17-16.05-2.19-23.12a92.54,92.54,0,0,0-12.79-19.38,106.91,106.91,0,0,0-16.41-15.84,109.22,109.22,0,0,0-39.73-19.62,113.05,113.05,0,0,0-48.57-1.32A137.9,137.9,0,0,0,144.55,307c-13.19,8.18-26.1,18.74-31.63,33.73-4.4,11.92-2.75,27.79,6.89,36.83a21,21,0,0,0,7.47,4.54c1.83.64,2.61-2.26.8-2.9-11.76-4.12-15.71-19.25-14.16-30.38,2.07-14.8,13.51-26.38,25.18-34.63a138,138,0,0,1,44.43-20.87,113.8,113.8,0,0,1,47.84-2.5,105.57,105.57,0,0,1,70.3,46.27c4.14,6.4,8.23,13.63,8.6,21.42a15.64,15.64,0,0,1-2.91,10.33,17.65,17.65,0,0,1-7.95,5.48,57.65,57.65,0,0,1-10.29,2.51q-7,1.23-14,2.21-13.8,1.94-27.71,3c-18.64,1.5-37.36,2-56.06,2s-37.47-.64-56.19-1.34l-13.67-.53c-1.93-.08-1.92,2.92,0,3Z"/><path class="cls-1" d="M238.27,300.58l-7.76,21.36c-.78,2.15-1.55,4.56-.43,6.61.81,1.5,2.47,2.46,4.08,3.28,8.49,4.29,18.55,6.7,27.91,4.68s17.6-9.2,18.17-17.92"/><path d="M236.83,300.18q-3.84,10.57-7.68,21.13c-1.07,2.93-1.89,6.25.26,8.91,1.91,2.36,5.2,3.57,7.91,4.7,11.23,4.68,25.24,6,35.56-1.61,4.83-3.54,8.39-8.63,8.86-14.72.15-1.92-2.85-1.91-3,0-.78,10.15-11.57,16.26-20.75,17a41.14,41.14,0,0,1-17.22-2.55,36.58,36.58,0,0,1-7.72-3.58,4,4,0,0,1-2-2.94,11.25,11.25,0,0,1,1.09-4.67q3.8-10.44,7.6-20.89c.66-1.82-2.24-2.6-2.89-.8Z"/><path class="cls-1" d="M241.23,298.55A148.82,148.82,0,0,1,283,319.77"/><path d="M240.83,300a148.48,148.48,0,0,1,41.45,21.07c1.57,1.13,3.07-1.47,1.52-2.59a151.28,151.28,0,0,0-42.17-21.37c-1.84-.6-2.63,2.3-.8,2.89Z"/><path class="cls-1" d="M128.51,318c.17,16.76,21.07,29.4,36,21.77s16.92-32,3.43-41.92"/><path d="M127,318c.26,14.42,14.41,25.91,28.4,25.54a22.63,22.63,0,0,0,17.53-9,28.79,28.79,0,0,0,5.5-18.59c-.37-7.57-3.62-14.77-9.75-19.36-1.54-1.16-3,1.44-1.51,2.59,9.57,7.17,10.53,22,4.61,31.74a19.73,19.73,0,0,1-14.17,9.48,25.17,25.17,0,0,1-17.57-4.73c-5.75-4.05-9.91-10.49-10-17.64,0-1.93-3-1.93-3,0Z"/><path class="cls-1" d="M127.86,315.47a159.73,159.73,0,0,1,40-11.82"/><path d="M128.61,316.76a160.55,160.55,0,0,1,39.68-11.66c1.9-.31,1.09-3.2-.8-2.9a163.68,163.68,0,0,0-40.39,12c-1.76.78-.24,3.37,1.51,2.59Z"/><path d="M260.2,63.93a117.51,117.51,0,0,1,53,18.32,124.94,124.94,0,0,1,39.23,39.85,113.92,113.92,0,0,1,12.67,29.17,1.5,1.5,0,0,0,2.89-.79,120.59,120.59,0,0,0-28.42-50.16A128.2,128.2,0,0,0,292,68.2a116.11,116.11,0,0,0-31.78-7.27c-1.92-.17-1.91,2.83,0,3Z"/></g></g></svg>