<svg xmlns="http://www.w3.org/2000/svg" viewBox="0 0 371.4 515.84"><defs><style>.cls-1{fill:#fff;}.cls-1,.cls-2,.cls-3{stroke:#000;stroke-miterlimit:10;}.cls-1,.cls-2{stroke-width:2px;}.cls-2,.cls-4{fill:#2f0f3c;}.cls-3{fill:none;stroke-width:4px;}</style></defs><g id="Layer_2" data-name="Layer 2"><g id="Layer_1-2" data-name="Layer 1"><path class="cls-1" d="M98.79,217.33c-11.1-35.15,5.51-81.47,28.82-85.61,17.67-3.14,36.79,18.4,44.48,37.09,15.21,37-3.61,88.58-27.36,92.67C126.57,264.61,105.91,239.87,98.79,217.33Z"/><path class="cls-2" d="M107.7,213.44c-8.63-26.22,3.83-60.63,21.6-63.61,13.48-2.25,28.17,13.87,34.12,27.82,11.78,27.59-2.35,65.93-20.46,68.87C129.12,248.77,113.24,230.26,107.7,213.44Z"/><path class="cls-3" d="M204.28,337.18c-2.89-4.47-21.32-32-56.18-36.92-35.79-5.09-60.63,17.61-64.32,21.1"/><path d="M242,125c5.76,29.22,9.57,58.76,12.77,88.35,3.26,30.17,5.93,60.4,9.41,90.54a196.63,196.63,0,0,0,3.39,21.86c1.68,7.26,2,14.76,2.75,22.16q2.18,22.31,4.42,44.61c1.4,14.09,1.89,28.56,6.2,42.15a89.33,89.33,0,0,0,19.35,33.72c16.44,17.85,38.83,27.31,59,40a25.55,25.55,0,0,1,6.42,5.48l3.39-4.41c-2.87-.53-5.87-.69-8.44-2.19l-1.51,5.59c2.84-.33,5.21.67,7.63,2.09l2.32-5.49c-5.85-2.15-11.82-3.93-17.84-5.52-3.08-.81-6.34-1.12-9.47-1.74s-6.34-1.32-9.5-2c-6.39-1.39-12.9-3.06-19.42-3.63s-12.75-1-19.12-1.44-13-1.13-19.48-1.29-12.92.06-19.37.46c-13.16.82-26.2,2.38-39.26,4.19a84.45,84.45,0,0,0-9.5,1.6c-3,.76-5.86,1.65-8.75,2.61-6.19,2-12.25,4.37-18.71,5.42-12.72,2.06-25.61.13-38.39.93a350.7,350.7,0,0,1-39.84.41c-6.6-.34-13.19-.91-19.73-1.78-3.35-.44-6.79-1.37-10.15-1.51-2.34-.11-5,.46-7.28-.21-1.16-.34-2.27-.88-3.44-1.19a23.38,23.38,0,0,0-4-.49c-3.13-.26-6.27-.46-9.4-.8a59.15,59.15,0,0,1-9-1.62c-2.58-.7-5.74-1.46-7.86-3.18-3-2.43-3.34-6.86-3.11-10.41.34-5.14,2.84-9.42,4.41-14.22a63.7,63.7,0,0,0,2.69-17.52,24.2,24.2,0,0,0-1.1-8.19c-.84-2.63-2.31-4.71-3.6-7.1s-2.37-4.66-3.86-6.89c-1.35-2-2.76-4-4.17-5.91a110.64,110.64,0,0,1-8-12.16A33.09,33.09,0,0,1,8.81,403c-.41-6,.82-12.15,1.92-18a231.22,231.22,0,0,1,9.87-35c4.07-11.41,9.13-22.55,12.37-34.23s4.88-24.07,3.33-36.16C34.81,268.09,30,257.73,23.83,248S10.56,229,7.65,217.78C1.6,194.43,13.11,171.22,21.4,150a54.29,54.29,0,0,0,2.72-7.61c.65-2.88,1.31-5.75,2.1-8.6,1-3.72-4.75-5.31-5.78-1.59-.83,3-1.43,6-2.17,9A67.15,67.15,0,0,1,15.38,149c-2.15,5.48-4.4,10.91-6.51,16.4-4.29,11.21-8,22.81-8.75,34.87A61.21,61.21,0,0,0,8.47,235c5.63,9.83,12.73,18.77,17.42,29.14C30.81,275,31.67,287.26,30.28,299c-1.46,12.28-5.76,23.68-10.15,35.14S11.54,357,8.33,368.78a184.14,184.14,0,0,0-4,18.15c-1,5.84-2.05,11.91-1.35,17.84C4.19,415,9.83,423.32,15.69,431.45c1.41,2,2.82,3.92,4.16,5.92,1.49,2.23,2.61,4.54,3.87,6.89s2.69,4.28,3.35,6.9a26.19,26.19,0,0,1,.3,8,50.49,50.49,0,0,1-3.75,17.29c-1.95,4.63-3.34,9.18-3.16,14.29.16,4.35,1.45,9,4.81,12,4.37,3.88,11.26,5.26,16.87,6.1,3,.46,6.1.75,9.16,1,2.74.22,5.64.14,8.25,1.08a20.34,20.34,0,0,0,7.33,1.17,60.71,60.71,0,0,1,9.22.88,272.56,272.56,0,0,0,40.27,2.8c6.7,0,13.41-.22,20.11-.58,3.39-.19,6.79-.52,10.19-.49,3.17,0,6.35.14,9.53.22a142.65,142.65,0,0,0,19.61-.49A89.73,89.73,0,0,0,195,509.82c5.92-2,11.94-4.17,18.16-5s12.66-1.91,19-2.55c13.25-1.33,26.55-2.62,39.89-2.47,13.11.14,26.29,1.65,39.37,2.65,6.49.5,12.93,2.15,19.28,3.53,3.16.69,6.32,1.38,9.5,2s6.61,1,9.81,1.84c5.91,1.57,11.76,3.32,17.49,5.43,3.24,1.19,5.19-3.81,2.31-5.49-3.24-1.89-6.84-3.34-10.66-2.9-2.78.32-4.31,4-1.52,5.59,3.09,1.8,6.43,2.16,9.87,2.8,2.24.41,5.13-2.11,3.39-4.41-3.7-4.88-9-8-14.18-11.06s-10.24-5.86-15.38-8.76c-10.23-5.78-20.41-11.81-29.27-19.58a84.69,84.69,0,0,1-22.46-30.61,89.42,89.42,0,0,1-5.6-18.67c-1.31-7-1.71-14.12-2.42-21.17q-2.19-22-4.38-44.1-1.12-11.37-2.21-22.73c-.69-7.18-2.87-14-3.73-21.18-3.64-30.07-6.36-60.24-9.5-90.37-3.09-29.53-6.6-59-11.9-88.27q-1-5.49-2.07-11c-.75-3.79-6.53-2.18-5.79,1.59Z"/><path d="M21.48,140.57a193.11,193.11,0,0,1,25.85-37A167.55,167.55,0,0,1,79.09,75.88a144.19,144.19,0,0,1,35.83-17.47,122.56,122.56,0,0,1,40.65-6.18c17.39.4,34.54,5,50.46,11.82q3.08,1.32,6.09,2.74a3.1,3.1,0,0,0,4.11-1.08,3,3,0,0,0-1.08-4.1c-16.59-7.76-34.21-13.43-52.53-15a125.73,125.73,0,0,0-44.16,4.48A147.32,147.32,0,0,0,80.63,67.77,170.71,170.71,0,0,0,47,95.12a195.57,195.57,0,0,0-27.79,37.2q-1.5,2.6-2.92,5.22c-1.84,3.4,3.34,6.43,5.18,3Z"/><path class="cls-4" d="M176,50.44c9.81-9.45,16.09-24.89,16.6-40.81.07-2.17.08-4.51,1.08-6.24,3.14-5.41,9.21,1.81,11,8.2a223.62,223.62,0,0,1,7.81,63.22"/><path d="M177.09,51.5a54.59,54.59,0,0,0,12.54-19.58A66.09,66.09,0,0,0,193,20.05a112.42,112.42,0,0,0,1.23-12.68c.1-1.33.34-3.6,1.75-4.27.92-.44,2,.45,2.68,1,2.81,2.52,4.13,6.13,5.07,9.68A214.62,214.62,0,0,1,209.23,42,227.42,227.42,0,0,1,211,74.81c0,1.93,3,1.93,3,0a225.64,225.64,0,0,0-7.08-60.67c-1-4-2.3-7.79-5-11C200,1,196.9-1.16,194.13.72,190.63,3.11,191.26,8.29,191,12a65.42,65.42,0,0,1-2.27,13.17c-2.53,9-7,17.68-13.77,24.26-1.39,1.35.73,3.47,2.12,2.12Z"/><path class="cls-4" d="M82.11,66.49C70.44,64.45,62.35,46,66.88,31.81c-7.33-7-17,4.24-20.56,15.16a113,113,0,0,0-2.27,60.08"/><path d="M82.51,65.05C76.33,63.9,72.09,58.43,69.72,53a30.17,30.17,0,0,1-1.39-20.75,1.49,1.49,0,0,0-.39-1.46C58.42,22,48.53,37,45.53,44.73a90.94,90.94,0,0,0-4.76,19.52,118.39,118.39,0,0,0-1.19,20.17,113.83,113.83,0,0,0,3,23c.45,1.88,3.34,1.08,2.9-.8A112.09,112.09,0,0,1,43.16,69.1a107.39,107.39,0,0,1,3.58-18.38c1.55-5.37,3.68-10.61,7.4-14.87,3-3.38,7.64-6.7,11.68-3l-.38-1.46a32.5,32.5,0,0,0,0,18.26c1.51,5.4,4.32,10.78,8.65,14.44a16.68,16.68,0,0,0,7.67,3.83c1.89.35,2.7-2.54.8-2.89Z"/><path d="M174.56,57.35c1.32.14,2.48.32,4.13.64s3.15.7,4.71,1.14,3,.93,4.49,1.47c1.64.61,2.54,1,4,1.65a74.44,74.44,0,0,1,16.43,10.46,99,99,0,0,1,25.76,34.35,114.5,114.5,0,0,1,8.15,24.79,3,3,0,0,0,5.79-1.59A116.47,116.47,0,0,0,229,86.39c-8.43-11.73-19.28-22-32.3-28.49a66.07,66.07,0,0,0-22.09-6.55c-1.61-.18-3,1.5-3,3a3.08,3.08,0,0,0,3,3Z"/></g></g></svg>